<svg width="268" height="203" viewBox="0 0 268 203" fill="none" xmlns="http://www.w3.org/2000/svg">
<path d="M267.377 178.72H0.964844V178.854H267.377V178.72Z" fill="#E6E6E6"/>
<path d="M42.6425 184.72H28.4854V184.854H42.6425V184.72Z" fill="#E6E6E6"/>
<path d="M47.7632 182.031H35.5615V182.166H47.7632V182.031Z" fill="#E6E6E6"/>
<path d="M174.35 182.43H141.608V182.564H174.35V182.43Z" fill="#E6E6E6"/>
<path d="M185.274 182.43H177.42V182.564H185.274V182.43Z" fill="#E6E6E6"/>
<path d="M229.93 183.349H204.003V183.483H229.93V183.349Z" fill="#E6E6E6"/>
<path d="M103.891 185.494H57.7324V185.629H103.891V185.494Z" fill="#E6E6E6"/>
<path d="M238.386 183.349H234.608V183.483H238.386V183.349Z" fill="#E6E6E6"/>
<path d="M127.243 154.74H24.3603C23.5544 154.739 22.7819 154.415 22.2125 153.839C21.6431 153.264 21.3232 152.484 21.3232 151.67V5.73645C21.3303 4.92784 21.6532 4.15468 22.2218 3.5849C22.7905 3.01512 23.559 2.69474 24.3603 2.69336H127.243C128.05 2.69336 128.824 3.0168 129.395 3.59253C129.965 4.16827 130.286 4.94913 130.286 5.76333V151.67C130.286 152.485 129.965 153.266 129.395 153.841C128.824 154.417 128.05 154.74 127.243 154.74ZM24.3603 2.80089C23.5897 2.80231 22.8511 3.11222 22.3067 3.66259C21.7622 4.21296 21.4564 4.95882 21.4564 5.73645V151.67C21.4564 152.448 21.7622 153.194 22.3067 153.744C22.8511 154.295 23.5897 154.605 24.3603 154.606H127.243C128.015 154.605 128.754 154.295 129.299 153.745C129.844 153.194 130.151 152.449 130.153 151.67V5.73645C130.151 4.95833 129.844 4.21248 129.299 3.66226C128.754 3.11205 128.015 2.80231 127.243 2.80089H24.3603Z" fill="#E6E6E6"/>
<path d="M242.5 154.74H139.612C138.805 154.739 138.032 154.415 137.462 153.84C136.892 153.264 136.571 152.484 136.569 151.67V5.73645C136.578 4.92735 136.902 4.15419 137.471 3.58456C138.041 3.01493 138.81 2.69473 139.612 2.69336H242.5C243.301 2.69616 244.068 3.01716 244.635 3.58679C245.203 4.15641 245.525 4.92877 245.532 5.73645V151.67C245.532 152.483 245.213 153.262 244.645 153.837C244.076 154.413 243.305 154.738 242.5 154.74ZM139.612 2.80089C138.841 2.80231 138.101 3.11205 137.556 3.66226C137.011 4.21248 136.704 4.95833 136.703 5.73645V151.67C136.704 152.449 137.011 153.194 137.556 153.745C138.101 154.295 138.841 154.605 139.612 154.606H242.5C243.271 154.605 244.01 154.295 244.556 153.745C245.101 153.194 245.408 152.449 245.409 151.67V5.73645C245.408 4.95833 245.101 4.21248 244.556 3.66226C244.01 3.11205 243.271 2.80231 242.5 2.80089H139.612Z" fill="#E6E6E6"/>
<path d="M82.7153 86.256C84.1985 79.763 80.1845 73.2862 73.7498 71.7895C67.3151 70.2929 60.8963 74.3432 59.4131 80.8362C57.9299 87.3292 61.9439 93.806 68.3786 95.3027C74.8133 96.7993 81.232 92.749 82.7153 86.256Z" fill="#F0F0F0"/>
<path d="M152.596 81.05C151.109 77.8241 152.292 75.4854 155.937 75.4854C158.217 75.4854 161.052 76.3994 163.812 77.8779C164.126 77.0338 165 76.5284 166.412 76.5284C168.9 76.5284 172.326 78.0929 175.012 80.2919C175.84 79.7324 176.817 79.4382 177.814 79.4478C180.196 79.351 183.073 80.2489 185.578 81.7113C185.725 81.5708 185.898 81.4613 186.087 81.3893C186.277 81.3172 186.478 81.2842 186.681 81.292C187.474 81.3189 188.254 81.5131 188.969 81.8622C189.683 82.2113 190.318 82.7075 190.831 83.3189C190.89 83.3888 190.938 83.4641 190.991 83.534H150.747C149.473 82.3888 150.88 81.1092 152.596 81.05Z" fill="#F5F5F5"/>
<path d="M74.1963 106.013L107.167 98.3945V178.719H74.1963V106.013Z" fill="#FAFAFA"/>
<path d="M124.276 98.3945H107.167V178.719H124.276V98.3945Z" fill="#EBEBEB"/>
<path d="M118.686 178.72H146.75V79.1848H118.686L118.686 178.72Z" fill="#FAFAFA"/>
<path d="M161.312 79.1846H146.75V178.719H161.312V79.1846Z" fill="#EBEBEB"/>
<path d="M122.464 79.1846H146.75V71.7865H122.464V79.1846Z" fill="#FAFAFA"/>
<path d="M122.464 79.1846H146.75V77.5232H122.464V79.1846Z" fill="#EBEBEB"/>
<path d="M157.54 71.7871H146.75V79.1852H157.54V71.7871Z" fill="#EBEBEB"/>
<path d="M126.237 71.7871H146.745V64.3891H126.237V71.7871Z" fill="#FAFAFA"/>
<path d="M126.237 71.7871H146.745V70.1258H126.237V71.7871Z" fill="#EBEBEB"/>
<path d="M153.762 64.3936H146.75V71.7916H153.762V64.3936Z" fill="#EBEBEB"/>
<path d="M140.682 54.0605H139.317V64.3942H140.682V54.0605Z" fill="#EBEBEB"/>
<path d="M156.661 178.72H177.153V92.1207H156.661V178.72Z" fill="#FAFAFA"/>
<path d="M187.793 92.1201H177.158V178.719H187.793V92.1201Z" fill="#EBEBEB"/>
<path d="M182.477 109.686L198.014 123.127V178.72H182.477V109.686Z" fill="#FAFAFA"/>
<path d="M206.081 123.127H198.014V178.72H206.081V123.127Z" fill="#EBEBEB"/>
<path d="M206.081 123.127H198.014L182.477 109.686H190.538L206.081 123.127Z" fill="#EBEBEB"/>
<path d="M235.354 178.719C235.582 177.428 236.126 176.214 236.936 175.188C237.747 174.162 238.798 173.356 239.994 172.843C238.944 174.61 238.467 176.665 238.63 178.719H235.354Z" fill="#EBEBEB"/>
<path d="M100.231 178.719C100.002 177.428 99.4581 176.214 98.6478 175.188C97.8375 174.162 96.7865 173.356 95.5898 172.843C96.6404 174.61 97.1173 176.665 96.9539 178.719H100.231Z" fill="#EBEBEB"/>
<path d="M32.3324 178.72C32.3324 178.72 32.0713 171.838 29.2207 169.838C30.3876 172.65 30.1372 178.72 30.1372 178.72H32.3324Z" fill="#EBEBEB"/>
<path d="M31.2607 178.72C31.2607 178.72 31.5272 174.768 34.3778 173.623C33.2055 175.236 33.4613 178.72 33.4613 178.72H31.2607Z" fill="#EBEBEB"/>
<path d="M102.671 178.72C102.671 178.72 102.383 172.204 97.2148 169.838C99.5273 173.182 99.3941 178.72 99.3941 178.72H102.671Z" fill="#EBEBEB"/>
<path d="M50.8799 134.853L54.6416 161.627L55.0146 164.305H57.4283L57.05 161.627L53.2882 134.853H50.8799Z" fill="#E0E0E0"/>
<path d="M154.242 134.853L158.004 161.627L158.377 164.305H160.791L160.412 161.627L156.651 134.853H154.242Z" fill="#E0E0E0"/>
<path d="M66.3262 161.628L66.7045 164.305L68.7345 178.741H71.1482L69.1182 164.305L68.7452 161.628H66.3262Z" fill="#E6E6E6"/>
<path d="M169.694 161.628L170.073 164.305L172.097 178.741H174.506L172.481 164.305L172.108 161.628H169.694Z" fill="#E6E6E6"/>
<path d="M157.514 161.628L157.136 164.305L155.106 178.741H152.692L154.722 164.305L155.095 161.628H157.514Z" fill="#E6E6E6"/>
<path d="M54.1464 161.628L53.7681 164.305L51.7433 178.741H49.335L51.3597 164.305L51.738 161.628H54.1464Z" fill="#E6E6E6"/>
<path d="M47.4107 138.578H157.881L155.83 131.121H45.3594L47.4107 138.578Z" fill="#F5F5F5"/>
<path d="M49.9313 138.578H160.407L158.356 131.121H47.8799L49.9313 138.578Z" fill="#E6E6E6"/>
<path d="M48.9512 147.875H159.422L157.37 140.423H46.8945L48.9512 147.875Z" fill="#F5F5F5"/>
<path d="M51.4703 147.875H161.941L159.889 140.423H49.4189L51.4703 147.875Z" fill="#E6E6E6"/>
<path d="M50.4859 157.186H160.962L158.91 149.734H48.4346L50.4859 157.186Z" fill="#F5F5F5"/>
<path d="M53.0113 157.186H163.482L161.43 149.734H50.96L53.0113 157.186Z" fill="#E6E6E6"/>
<path d="M173.535 161.628H63.5498V164.305H173.535V161.628Z" fill="#E6E6E6"/>
<path d="M63.5508 161.628H48.4346V164.305H63.5508V161.628Z" fill="#F5F5F5"/>
<path d="M40.127 52.4096C38.065 47.9148 39.7061 44.7158 44.7466 44.7158C47.9063 44.7158 51.8225 45.9739 55.6429 48.0224C56.0745 46.8557 57.2893 46.1567 59.2395 46.1567C62.6815 46.1567 67.4183 48.3073 71.1374 51.3773C72.2821 50.6023 73.6327 50.1955 75.011 50.2106C78.3039 50.0708 82.2894 51.3181 85.7528 53.3397C86.1645 52.9502 86.7126 52.7414 87.2767 52.759C89.1735 52.6784 91.7417 53.9365 93.0152 55.5602C93.0951 55.6623 93.1644 55.7591 93.2336 55.8613H37.5695C35.8112 54.2645 37.756 52.4902 40.127 52.4096Z" fill="#F5F5F5"/>
<path d="M186.34 61.6787C186.48 61.6705 186.621 61.6705 186.761 61.6787C186.633 60.2109 187.384 59.27 188.999 59.27C190.433 59.3679 191.822 59.8203 193.043 60.5872C192.627 57.7377 193.965 55.8828 196.98 55.8828C199.415 55.8828 202.5 57.0872 205.548 59.0549C205.815 57.9366 206.71 57.2646 208.212 57.2646C210.876 57.2646 214.606 59.3399 217.643 62.2647C218.441 61.5326 219.485 61.133 220.563 61.1464C223.083 61.012 226.216 62.2217 228.992 64.1465C229.126 63.9699 229.3 63.8288 229.499 63.7351C229.699 63.6415 229.918 63.5981 230.138 63.6088C231.518 63.5389 233.415 64.6089 234.523 66.039H184.123C182.935 63.8239 183.878 61.926 186.34 61.6787Z" fill="#F5F5F5"/>
<path d="M101.551 29.1616C101.689 29.1534 101.828 29.1534 101.966 29.1616C101.838 27.6884 102.595 26.7529 104.204 26.7529C105.641 26.8499 107.031 27.3023 108.254 28.0702C107.838 25.2152 109.17 23.3604 112.186 23.3604C114.626 23.3604 117.706 24.5701 120.754 26.5379C121.02 25.4195 121.915 24.7475 123.418 24.7475C126.082 24.7475 129.812 26.8174 132.849 29.7476C133.649 29.0177 134.69 28.6168 135.769 28.6239C138.289 28.4949 141.422 29.6992 144.198 31.624C144.332 31.4478 144.506 31.3069 144.705 31.2133C144.905 31.1197 145.124 31.0761 145.344 31.0864C146.724 31.0111 148.626 32.081 149.729 33.5165H99.3288C98.1459 31.3068 99.089 29.4089 101.551 29.1616Z" fill="#F5F5F5"/>
<path d="M227.293 169.418L217.824 159.864H210.45L218.634 168.123H216.386V178.72H225.044V169.418H227.293Z" fill="#EBEBEB"/>
<path d="M219.918 169.418L210.45 159.864L200.981 169.418H204.514V178.72H216.385V169.418H219.918Z" fill="#FAFAFA"/>
<path d="M134.172 203C191.228 203 237.481 200.276 237.481 196.914C237.481 193.553 191.228 190.828 134.172 190.828C77.1154 190.828 30.8623 193.553 30.8623 196.914C30.8623 200.276 77.1154 203 134.172 203Z" fill="#F5F5F5"/>
<path d="M214.712 31.0383L200.513 16.71H189.451L201.727 29.0974H198.349V44.9849H211.334V31.0383H214.712Z" fill="#407BFF"/>
<path opacity="0.4" d="M214.712 31.0383L200.513 16.71H189.451L201.727 29.0974H198.349V44.9849H211.334V31.0383H214.712Z" fill="white"/>
<path d="M203.651 31.0383L189.451 16.71L175.251 31.0383H180.553V44.9849H198.349V31.0383H203.651Z" fill="#407BFF"/>
<path opacity="0.7" d="M203.651 31.0383L189.451 16.71L175.251 31.0383H180.553V44.9849H198.349V31.0383H203.651Z" fill="white"/>
<path d="M223.856 88.2331L209.656 73.8994H198.595L210.871 86.2868H207.493V102.174H220.478V88.2331H223.856Z" fill="#407BFF"/>
<path opacity="0.4" d="M223.856 88.2331L209.656 73.8994H198.595L210.871 86.2868H207.493V102.174H220.478V88.2331H223.856Z" fill="white"/>
<path d="M212.794 88.2331L198.594 73.8994L184.395 88.2331H189.691V102.174H207.492V88.2331H212.794Z" fill="#407BFF"/>
<path opacity="0.7" d="M212.794 88.2331L198.594 73.8994L184.395 88.2331H189.691V102.174H207.492V88.2331H212.794Z" fill="white"/>
<path d="M159.949 103.132L145.744 88.8037H134.688L146.964 101.186H143.586V117.079H156.571V103.132H159.949Z" fill="#407BFF"/>
<path opacity="0.4" d="M159.949 103.132L145.744 88.8037H134.688L146.964 101.186H143.586V117.079H156.571V103.132H159.949Z" fill="white"/>
<path d="M148.888 103.132L134.688 88.8037L120.488 103.132H125.785V117.073H143.586V103.132H148.888Z" fill="#407BFF"/>
<path opacity="0.7" d="M148.888 103.132L134.688 88.8037L120.488 103.132H125.785V117.073H143.586V103.132H148.888Z" fill="white"/>
<path d="M159.102 54.9856H151.461L150.369 53.8888L141.497 37.2217L159.102 54.9856Z" fill="#2F54C6"/>
<path d="M151.435 71.1738H167.531V51.4744H151.435V71.1738Z" fill="#407BFF"/>
<path opacity="0.3" d="M151.435 71.1738H167.531V51.4744H151.435V71.1738Z" fill="black"/>
<path d="M158.009 53.8884H171.724L154.114 36.1191H140.404L158.009 53.8884Z" fill="#407BFF"/>
<path opacity="0.3" d="M158.009 53.8884H171.724L154.114 36.1191H140.404L158.009 53.8884Z" fill="black"/>
<path d="M151.434 48.9049V71.1743H129.37V48.9049L140.405 38.0928L140.517 38.2057L141.497 39.1627L151.434 48.9049Z" fill="#407BFF"/>
<path opacity="0.3" d="M141.497 37.2217V44.9316L131.528 54.9856H129.37V49.4586L140.517 38.2056L141.497 37.2217Z" fill="black"/>
<path d="M158.009 53.8884H150.368L140.404 43.829V36.1191L158.009 53.8884Z" fill="#407BFF"/>
<path d="M122.796 53.8884H130.437L140.406 43.829V36.1191L122.796 53.8884Z" fill="#407BFF"/>
<path d="M120.318 76.5561C115.773 80.2767 111.084 83.7768 106.368 87.2177C101.653 90.6587 96.8734 94.0028 92.078 97.3201C87.2825 100.637 82.4072 103.831 77.5105 106.998C75.0755 108.611 72.6032 110.138 70.1469 111.708C68.9354 112.55 67.5967 113.189 66.1827 113.6C65.4162 113.809 64.6307 113.938 63.8383 113.987C62.9478 114.062 62.0515 114.013 61.1742 113.842C60.4873 113.701 59.8347 113.425 59.2539 113.029C58.673 112.633 58.1753 112.125 57.7892 111.535C57.4032 110.944 57.1363 110.283 57.004 109.588C56.8717 108.894 56.8765 108.18 57.0181 107.487C57.0181 107.406 57.0554 107.304 57.0767 107.218C57.3158 106.348 57.6745 105.515 58.1424 104.745C58.536 104.059 58.9985 103.416 59.5224 102.826C60.5094 101.724 61.6663 100.791 62.9485 100.062C65.4261 98.5245 67.8824 96.9599 70.3707 95.4545C75.3313 92.3953 80.3398 89.4221 85.375 86.4865C90.4102 83.5509 95.4987 80.7068 100.63 77.9325C105.761 75.1582 110.935 72.4539 116.242 69.9592C117.098 69.5845 118.059 69.5326 118.95 69.8127C119.841 70.0929 120.603 70.6865 121.096 71.4856C121.59 72.2847 121.783 73.2362 121.64 74.1668C121.497 75.0974 121.028 75.9453 120.318 76.5561Z" fill="#407BFF"/>
<path d="M120.318 76.5561C115.773 80.2767 111.084 83.7768 106.368 87.2177C101.653 90.6587 96.8734 94.0028 92.078 97.3201C87.2825 100.637 82.4072 103.831 77.5105 106.998C75.0755 108.611 72.6032 110.138 70.1469 111.708C68.9354 112.55 67.5967 113.189 66.1827 113.6C65.4162 113.809 64.6307 113.938 63.8383 113.987C62.9478 114.062 62.0515 114.013 61.1742 113.842C60.4873 113.701 59.8347 113.425 59.2539 113.029C58.673 112.633 58.1753 112.125 57.7892 111.535C57.4032 110.944 57.1363 110.283 57.004 109.588C56.8717 108.894 56.8765 108.18 57.0181 107.487C57.0181 107.406 57.0554 107.304 57.0767 107.218C57.3158 106.348 57.6745 105.515 58.1424 104.745C58.536 104.059 58.9985 103.416 59.5224 102.826C60.5094 101.724 61.6663 100.791 62.9485 100.062C65.4261 98.5245 67.8824 96.9599 70.3707 95.4545C75.3313 92.3953 80.3398 89.4221 85.375 86.4865C90.4102 83.5509 95.4987 80.7068 100.63 77.9325C105.761 75.1582 110.935 72.4539 116.242 69.9592C117.098 69.5845 118.059 69.5326 118.95 69.8127C119.841 70.0929 120.603 70.6865 121.096 71.4856C121.59 72.2847 121.783 73.2362 121.64 74.1668C121.497 75.0974 121.028 75.9453 120.318 76.5561Z" fill="#407BFF"/>
<path opacity="0.5" d="M120.318 76.5561C115.773 80.2767 111.084 83.7768 106.368 87.2177C101.653 90.6587 96.8734 94.0028 92.078 97.3201C87.2825 100.637 82.4072 103.831 77.5105 106.998C75.0755 108.611 72.6032 110.138 70.1469 111.708C68.9354 112.55 67.5967 113.189 66.1827 113.6C65.4162 113.809 64.6307 113.938 63.8383 113.987C62.9478 114.062 62.0515 114.013 61.1742 113.842C60.4873 113.701 59.8347 113.425 59.2539 113.029C58.673 112.633 58.1753 112.125 57.7892 111.535C57.4032 110.944 57.1363 110.283 57.004 109.588C56.8717 108.894 56.8765 108.18 57.0181 107.487C57.0181 107.406 57.0554 107.304 57.0767 107.218C57.3158 106.348 57.6745 105.515 58.1424 104.745C58.536 104.059 58.9985 103.416 59.5224 102.826C60.5094 101.724 61.6663 100.791 62.9485 100.062C65.4261 98.5245 67.8824 96.9599 70.3707 95.4545C75.3313 92.3953 80.3398 89.4221 85.375 86.4865C90.4102 83.5509 95.4987 80.7068 100.63 77.9325C105.761 75.1582 110.935 72.4539 116.242 69.9592C117.098 69.5845 118.059 69.5326 118.95 69.8127C119.841 70.0929 120.603 70.6865 121.096 71.4856C121.59 72.2847 121.783 73.2362 121.64 74.1668C121.497 75.0974 121.028 75.9453 120.318 76.5561Z" fill="white"/>
<path d="M100.656 192.285L105.004 191.269L102.969 181.037L98.6211 182.053L100.656 192.285Z" fill="#EBB376"/>
<path d="M71.3404 70.0233C70.7383 72.1739 70.1575 74.4374 69.6034 76.6525C69.0492 78.8676 68.5377 81.115 68.1115 83.3516C67.877 84.4646 67.6745 85.6044 67.4987 86.6528C67.3229 87.7012 67.2216 88.8034 67.1577 89.9056C67.1018 91.0016 67.1018 92.0999 67.1577 93.196C67.1577 93.7336 67.227 94.2713 67.2802 94.8412C67.3335 95.4111 67.4294 95.9541 67.504 96.4219L65.3727 97.2337C65.0931 96.6559 64.8527 96.0595 64.6534 95.4487C64.445 94.8617 64.2671 94.2641 64.1206 93.6583C63.829 92.4497 63.6295 91.2202 63.5238 89.9808C63.4252 88.7288 63.4074 87.4716 63.4706 86.2173C63.5558 84.9484 63.705 83.7817 63.8702 82.5989C64.2059 80.2386 64.6374 77.8999 65.149 75.6095C65.6605 73.3191 66.2146 71.0126 66.9339 68.6953L71.3404 70.0233Z" fill="#EBB376"/>
<path d="M65.0693 70.7649L69.5504 74.3672L72.2412 76.5177C72.2412 76.5177 72.5235 75.7597 72.8646 74.6736C73.5146 72.5768 74.3618 69.2541 73.7757 67.7272C72.8539 65.3078 71.1116 63.1249 68.9057 63.6088C67.0355 64.0335 65.0693 70.7649 65.0693 70.7649Z" fill="#263238"/>
<path d="M71.2608 192.317H75.7206L75.3742 181.887H70.9092L71.2608 192.317Z" fill="#EBB376"/>
<path d="M102.969 181.043L104.062 186.522L99.6712 187.328L98.6162 182.059L102.969 181.043Z" fill="#DA9D62"/>
<path d="M70.9092 181.887H75.3742L75.5501 187.263H71.085L70.9092 181.887Z" fill="#DA9D62"/>
<path d="M85.4553 90.9321C85.4553 90.9321 82.8658 121.842 80.1803 139.261C78.0117 153.332 76.296 186.225 76.296 186.225H70.2325C70.2325 186.225 67.3339 154.461 68.4369 140.525C71.2236 105.314 66.3056 99.0775 72.14 90.916L85.4553 90.9321Z" fill="#407BFF"/>
<path opacity="0.6" d="M85.4553 90.9321C85.4553 90.9321 82.8658 121.842 80.1803 139.261C78.0117 153.332 76.296 186.225 76.296 186.225H70.2325C70.2325 186.225 67.3339 154.461 68.4369 140.525C71.2236 105.314 66.3056 99.0775 72.14 90.916L85.4553 90.9321Z" fill="black"/>
<path d="M65.6663 96.884L63.0342 98.6905L63.4072 100.234C63.4072 100.234 68.8899 97.3625 67.4247 96.2119L65.6663 96.884Z" fill="#EBB376"/>
<path d="M77.601 192.582C77.2037 192.572 76.8087 192.518 76.4231 192.42C76.4034 192.414 76.3857 192.403 76.3717 192.388C76.3577 192.373 76.3478 192.355 76.3431 192.334C76.3399 192.314 76.3427 192.292 76.3512 192.273C76.3597 192.254 76.3736 192.238 76.3911 192.227C76.5457 192.124 77.8942 191.242 78.4165 191.479C78.4757 191.505 78.5268 191.547 78.5644 191.6C78.6019 191.653 78.6245 191.715 78.6297 191.78C78.6505 191.882 78.6453 191.987 78.6145 192.086C78.5837 192.185 78.5284 192.274 78.4538 192.345C78.2069 192.525 77.9042 192.609 77.601 192.582ZM76.7215 192.264C77.4997 192.426 78.086 192.394 78.3206 192.189C78.3695 192.14 78.4055 192.079 78.425 192.012C78.4446 191.946 78.4472 191.875 78.4325 191.807C78.4306 191.778 78.4211 191.751 78.4052 191.727C78.3893 191.704 78.3674 191.685 78.3419 191.672C78.0594 191.549 77.2759 191.947 76.7215 192.264Z" fill="#407BFF"/>
<path d="M76.4504 192.419C76.433 192.424 76.4144 192.424 76.3971 192.419C76.3814 192.409 76.3684 192.396 76.3591 192.38C76.3498 192.364 76.3445 192.346 76.3438 192.327C76.3438 192.268 76.3437 190.972 76.8341 190.537C76.8933 190.481 76.9643 190.439 77.0419 190.415C77.1195 190.39 77.2016 190.384 77.2818 190.397C77.3659 190.398 77.4472 190.427 77.5122 190.481C77.5772 190.535 77.6219 190.61 77.639 190.693C77.7402 191.23 76.9247 192.177 76.5037 192.419C76.4862 192.424 76.4678 192.424 76.4504 192.419ZM77.2072 190.596C77.1209 190.598 77.038 190.63 76.9727 190.687C76.6931 191.106 76.5496 191.602 76.5623 192.107C76.9834 191.763 77.495 191.032 77.4311 190.725C77.4311 190.677 77.3938 190.612 77.2552 190.596H77.2072Z" fill="#407BFF"/>
<path d="M105.399 190.591C105.38 190.59 105.36 190.584 105.344 190.572C105.327 190.561 105.314 190.546 105.305 190.528C105.296 190.51 105.293 190.49 105.294 190.47C105.296 190.449 105.303 190.43 105.314 190.414C105.458 190.242 106.7 188.769 107.334 188.769H107.377C107.435 188.773 107.49 188.792 107.538 188.825C107.586 188.858 107.624 188.904 107.649 188.957C107.692 189.04 107.714 189.132 107.714 189.226C107.714 189.319 107.692 189.411 107.649 189.494C107.372 190.086 106.119 190.419 105.394 190.57L105.399 190.591ZM107.329 188.978C106.982 188.978 106.215 189.709 105.687 190.306C106.663 190.075 107.324 189.769 107.478 189.419C107.51 189.364 107.526 189.302 107.526 189.239C107.526 189.176 107.51 189.114 107.478 189.059C107.469 189.037 107.454 189.018 107.436 189.004C107.417 188.99 107.395 188.981 107.372 188.978H107.329Z" fill="#407BFF"/>
<path d="M105.398 190.591C105.38 190.589 105.364 190.58 105.35 190.568C105.337 190.555 105.328 190.539 105.324 190.521C105.324 190.473 104.94 189.312 105.281 188.661C105.328 188.566 105.394 188.481 105.474 188.413C105.555 188.344 105.649 188.294 105.75 188.263C106.032 188.177 106.171 188.263 106.23 188.387C106.502 188.828 105.899 190.129 105.499 190.538C105.489 190.555 105.474 190.569 105.456 190.578C105.438 190.588 105.418 190.592 105.398 190.591ZM105.931 188.441C105.891 188.434 105.849 188.434 105.809 188.441C105.734 188.462 105.665 188.499 105.605 188.549C105.546 188.599 105.497 188.661 105.462 188.731C105.307 189.221 105.307 189.747 105.462 190.236C105.841 189.699 106.208 188.736 106.048 188.473C106.031 188.451 106.007 188.436 105.979 188.431C105.952 188.425 105.924 188.428 105.899 188.441H105.931Z" fill="#407BFF"/>
<path d="M76.8384 52.7324C77.3712 55.4207 78.4369 60.7971 76.5986 62.5983C76.5986 62.5983 77.3233 65.2865 82.2466 65.2865C87.6547 65.2865 84.8308 62.5983 84.8308 62.5983C81.8789 61.8886 81.9535 59.6788 82.4704 57.5981L76.8384 52.7324Z" fill="#EBB376"/>
<path d="M87.5912 47.0017C87.5474 47.0025 87.5045 46.9894 87.4686 46.9641C87.4458 46.9476 87.4265 46.9266 87.4117 46.9025C87.3969 46.8784 87.387 46.8516 87.3826 46.8236C87.3781 46.7956 87.3792 46.7671 87.3857 46.7395C87.3923 46.7119 87.4041 46.6859 87.4206 46.663C87.613 46.3867 87.8672 46.16 88.1626 46.0012C88.458 45.8424 88.7863 45.756 89.1209 45.749C89.171 45.7571 89.2166 45.7829 89.2495 45.8218C89.2825 45.8607 89.3005 45.9102 89.3005 45.9614C89.3005 46.0126 89.2825 46.062 89.2495 46.101C89.2166 46.1399 89.171 46.1657 89.1209 46.1738C88.8548 46.1811 88.5942 46.2523 88.3606 46.3813C88.1271 46.5103 87.9273 46.6935 87.7778 46.9157C87.7567 46.9451 87.7284 46.9685 87.6957 46.9836C87.663 46.9986 87.627 47.0049 87.5912 47.0017Z" fill="#263238"/>
<path d="M88.7741 49.5664C89.0615 50.4086 89.4633 51.2066 89.9681 51.9374C89.7785 52.0614 89.5645 52.1425 89.3409 52.175C89.1173 52.2075 88.8894 52.1906 88.6729 52.1256L88.7741 49.5664Z" fill="#DE5753"/>
<path d="M88.4766 48.9311C88.4766 49.2967 88.6418 49.5978 88.8763 49.6032C89.1108 49.6085 89.3134 49.329 89.3294 48.9634C89.3454 48.5978 89.1641 48.3021 88.9296 48.2913C88.6951 48.2806 88.4926 48.5709 88.4766 48.9311Z" fill="#263238"/>
<path d="M88.8223 48.308L89.6964 48.0928C89.6964 48.0928 89.2274 48.7547 88.8223 48.308Z" fill="#263238"/>
<path d="M76.0936 191.795H71.0797C70.993 191.792 70.9082 191.821 70.8421 191.878C70.7759 191.935 70.7334 192.015 70.7227 192.102L70.1526 196.102C70.1404 196.203 70.1499 196.306 70.1804 196.403C70.2108 196.501 70.2616 196.59 70.3292 196.666C70.3968 196.742 70.4798 196.802 70.5725 196.843C70.6652 196.884 70.7655 196.904 70.8666 196.903C72.6143 196.876 73.4561 196.768 75.662 196.768C77.0207 196.768 78.9975 196.914 80.873 196.914C82.7486 196.914 82.8445 195.043 82.0666 194.876C78.5712 194.112 78.0171 193.069 76.8396 192.069C76.6299 191.894 76.3662 191.797 76.0936 191.795Z" fill="#263238"/>
<path d="M104.919 190.113L100.289 192.054C100.208 192.085 100.142 192.146 100.103 192.223C100.064 192.3 100.054 192.389 100.076 192.473L101.067 196.393C101.095 196.491 101.143 196.581 101.208 196.659C101.274 196.736 101.355 196.799 101.446 196.843C101.537 196.886 101.636 196.91 101.737 196.912C101.838 196.914 101.938 196.895 102.031 196.855C103.63 196.151 104.375 195.732 106.411 194.877C107.663 194.339 110.311 193.398 112.043 192.672C113.775 191.946 113.151 190.183 112.368 190.328C108.851 190.984 107.178 190.549 105.713 190.081C105.453 189.997 105.172 190.009 104.919 190.113Z" fill="#263238"/>
<path d="M94.8375 68.1738C95.706 70.2384 96.6438 72.3514 97.5922 74.4052C98.0718 75.4375 98.5708 76.4518 99.0895 77.4483C99.6223 78.4483 100.155 79.4268 100.688 80.3623C100.97 80.8247 101.253 81.2871 101.546 81.7118L101.983 82.3247C102.072 82.4527 102.174 82.5715 102.286 82.6796C102.867 83.189 103.593 83.5012 104.359 83.5721C106.176 83.8355 108.457 83.4646 110.497 82.9108L111.446 84.9807C110.906 85.3076 110.348 85.6002 109.773 85.8571C109.207 86.123 108.625 86.3528 108.03 86.5453C106.777 86.9757 105.464 87.2026 104.141 87.2174C103.403 87.224 102.667 87.1263 101.956 86.927C101.167 86.7078 100.424 86.3432 99.7661 85.8517C99.4292 85.5932 99.117 85.3034 98.8337 84.9861C98.5939 84.7119 98.4181 84.4807 98.205 84.2226C97.8053 83.7173 97.4484 83.2065 97.0914 82.6957C95.7636 80.6796 94.5676 78.5783 93.5108 76.4052C92.4451 74.2546 91.4861 72.104 90.6016 69.8782L94.8375 68.1738Z" fill="#EBB376"/>
<path d="M110.04 85.2331L114.91 84.4589L113.615 81.6738C113.615 81.6738 109.843 82.3351 109.118 84.0556L110.04 85.2331Z" fill="#EBB376"/>
<path d="M114.905 82.2878L114.372 81.0996L113.615 81.6749L114.905 84.4599V82.2878Z" fill="#EBB376"/>
<path d="M76.4341 47.2056C76.53 51.6735 76.4767 53.566 78.6187 55.9424C81.8156 59.5177 87.2611 58.4209 88.4866 54.0122C89.5895 50.0444 89.2432 43.4044 84.9912 41.4581C84.0551 41.025 83.0247 40.8405 81.9979 40.9222C80.9712 41.0039 79.9822 41.349 79.1249 41.9249C78.2675 42.5007 77.5703 43.2881 77.0993 44.2124C76.6284 45.1366 76.3994 46.1669 76.4341 47.2056Z" fill="#EBB376"/>
<path d="M72.8638 39.1359C77.4141 35.8078 82.4973 37.695 85.2786 39.9961C88.1878 42.4048 87.7243 47.0339 85.9446 48.9479C86.1292 49.231 86.2514 49.5508 86.3029 49.8857C86.3544 50.2205 86.3339 50.5627 86.243 50.8889C86.4676 52.3212 86.1554 53.7866 85.3674 54.9993C84.5793 56.212 83.3718 57.0851 81.9804 57.4482L81.73 57.5127C76.0448 58.8783 69.475 54.9965 68.484 49.1899C67.8819 45.6468 68.841 42.0714 72.8638 39.1359Z" fill="#263238"/>
<path d="M84.9272 49.2753C85 50.1177 85.3576 50.9092 85.9399 51.5173C86.7288 52.3399 87.5389 51.8668 87.6829 50.8937C87.8054 50.0173 87.5443 48.5334 86.5849 48.0656C85.6254 47.5979 84.8579 48.2807 84.9272 49.2753Z" fill="#EBB376"/>
<path opacity="0.3" d="M79.2902 105.385C78.784 114.622 80.9899 121.595 81.997 125.676C82.711 119.643 83.3663 113.348 83.9151 107.794C82.0343 101.503 79.6579 98.4332 79.2902 105.385Z" fill="black"/>
<path d="M77.1316 186.344H69.379L68.9688 183.602L77.1742 183.322L77.1316 186.344Z" fill="#407BFF"/>
<path opacity="0.3" d="M69.5498 74.3681L72.2406 76.5186C72.2406 76.5186 72.523 75.7606 72.864 74.6745L71.2655 66.6904L69.5498 74.3681Z" fill="black"/>
<path d="M75.4004 39.8829C76.7911 38.3291 81.5172 35.9581 85.572 37.8184C86.7286 38.3499 87.7087 39.2068 88.3948 40.2863C89.0809 41.3658 89.4439 42.6221 89.4403 43.9045L85.7851 46.3777L75.4004 39.8829Z" fill="#263238"/>
<path d="M71.671 43.9637C73.6798 42.3024 75.9336 36.2807 71.671 38.3775C67.4084 40.4744 66.1136 48.5606 71.671 43.9637Z" fill="#407BFF"/>
<path d="M72.1239 40.1034C72.9924 37.5442 67.2646 32.4527 63.4016 37.2915C59.5386 42.1303 69.625 47.4692 72.1239 40.1034Z" fill="#263238"/>
<path d="M81.0854 43.6736C77.7553 42.2434 76.0982 36.8239 81.8154 36.9799C87.5326 37.1358 87.3674 46.378 81.0854 43.6736Z" fill="#407BFF"/>
<path d="M80.0091 40.8664C77.9897 38.3234 80.2223 31.7856 86.0141 33.877C91.8059 35.9685 84.6447 46.6784 80.0091 40.8664Z" fill="#263238"/>
<path d="M90.2448 90.9326C90.2448 90.9326 95.2747 125.611 97.0437 139.256C98.8819 153.424 104.253 185.188 104.253 185.188L98.2851 186.107C98.2851 186.107 88.8542 155.811 86.2273 142.02C83.3607 126.993 77.7021 90.9434 77.7021 90.9434L90.2448 90.9326Z" fill="#407BFF"/>
<path opacity="0.6" d="M90.2448 90.9326C90.2448 90.9326 95.2747 125.611 97.0437 139.256C98.8819 153.424 104.253 185.188 104.253 185.188L98.2851 186.107C98.2851 186.107 88.8542 155.811 86.2273 142.02C83.3607 126.993 77.7021 90.9434 77.7021 90.9434L90.2448 90.9326Z" fill="black"/>
<path d="M92.3766 63.7547C94.5932 64.2923 97.3266 70.443 97.3266 70.443L92.0463 77.2712C92.0463 77.2712 86.5902 69.4806 87.3201 67.1042C88.0768 64.6257 89.6859 63.0934 92.3766 63.7547Z" fill="#263238"/>
<path d="M85.151 63.4751C85.881 63.5826 85.2043 61.8998 84.9006 61.7224C84.2026 61.303 75.3098 60.4589 75.411 61.4051C75.4648 61.9699 75.705 62.5 76.093 62.9106C76.4926 63.1794 78.7571 62.4374 85.151 63.4751Z" fill="#407BFF"/>
<path opacity="0.6" d="M85.151 63.4751C85.881 63.5826 85.2043 61.8998 84.9006 61.7224C84.2026 61.303 75.3098 60.4589 75.411 61.4051C75.4648 61.9699 75.705 62.5 76.093 62.9106C76.4926 63.1794 78.7571 62.4374 85.151 63.4751Z" fill="white"/>
<path d="M92.3759 63.7545C92.3759 63.7545 94.5072 64.5072 90.2446 90.9327H72.1286C72.4323 83.4916 72.443 78.9001 68.9316 63.6201C71.4684 63.0919 74.0398 62.7505 76.6256 62.5986C79.3661 62.3994 82.1173 62.3994 84.8578 62.5986C88.3478 62.9104 92.3759 63.7545 92.3759 63.7545Z" fill="#263238"/>
<path d="M71.8312 89.8625L71.0159 91.4755C70.952 91.6045 71.1012 91.7335 71.309 91.7335H90.3202C90.48 91.7335 90.6185 91.6529 90.6292 91.5454L90.789 89.9324C90.789 89.8195 90.6612 89.7227 90.48 89.7227H72.1402C72.0809 89.7145 72.0205 89.7232 71.9658 89.748C71.9112 89.7727 71.8645 89.8124 71.8312 89.8625Z" fill="#407BFF"/>
<path opacity="0.6" d="M71.8312 89.8625L71.0159 91.4755C70.952 91.6045 71.1012 91.7335 71.309 91.7335H90.3202C90.48 91.7335 90.6185 91.6529 90.6292 91.5454L90.789 89.9324C90.789 89.8195 90.6612 89.7227 90.48 89.7227H72.1402C72.0809 89.7145 72.0205 89.7232 71.9658 89.748C71.9112 89.7727 71.8645 89.8124 71.8312 89.8625Z" fill="white"/>
<path d="M74.3145 91.9438H73.8188C73.7229 91.9438 73.6483 91.89 73.6536 91.8309L73.8881 89.6803C73.8881 89.6158 73.9787 89.5674 74.0747 89.5674H74.5704C74.6663 89.5674 74.7409 89.6158 74.7356 89.6803L74.5011 91.8309C74.4957 91.8793 74.4105 91.9438 74.3145 91.9438Z" fill="#407BFF"/>
<path d="M86.2172 91.9438H85.7268C85.6255 91.9438 85.5509 91.89 85.5616 91.8309L85.7908 89.6803C85.7908 89.6158 85.8814 89.5674 85.9826 89.5674H86.473C86.5689 89.5674 86.6436 89.6158 86.6382 89.6803L86.409 91.8309C86.409 91.8793 86.3238 91.9438 86.2172 91.9438Z" fill="#407BFF"/>
<path opacity="0.6" d="M74.3145 91.9438H73.8188C73.7229 91.9438 73.6483 91.89 73.6536 91.8309L73.8881 89.6803C73.8881 89.6158 73.9787 89.5674 74.0747 89.5674H74.5704C74.6663 89.5674 74.7409 89.6158 74.7356 89.6803L74.5011 91.8309C74.4957 91.8793 74.4105 91.9438 74.3145 91.9438Z" fill="black"/>
<path opacity="0.6" d="M86.2172 91.9438H85.7268C85.6255 91.9438 85.5509 91.89 85.5616 91.8309L85.7908 89.6803C85.7908 89.6158 85.8814 89.5674 85.9826 89.5674H86.473C86.5689 89.5674 86.6436 89.6158 86.6382 89.6803L86.409 91.8309C86.409 91.8793 86.3238 91.9438 86.2172 91.9438Z" fill="black"/>
<path d="M105.132 185.188L97.4916 186.499L96.623 183.591L104.802 182.177L105.132 185.188Z" fill="#407BFF"/>
<path d="M181.279 35.0924C177.214 28.5256 171.312 23.3223 164.317 20.1405C157.322 16.9586 149.55 15.9411 141.982 17.2165C134.414 18.492 127.391 22.0032 121.801 27.3061C116.21 32.609 112.304 39.4655 110.576 47.0085C108.847 54.5516 109.374 62.4425 112.089 69.6834C114.805 76.9244 119.588 83.1902 125.832 87.6885C132.077 92.1868 139.503 94.7157 147.172 94.9553C154.841 95.1949 162.408 93.1345 168.917 89.0347C173.239 86.3121 176.987 82.7571 179.948 78.5726C182.908 74.3882 185.023 69.6563 186.171 64.6472C187.319 59.6381 187.477 54.4498 186.638 49.3788C185.799 44.3077 183.977 39.4532 181.279 35.0924ZM122.407 72.1902C119.201 67.008 117.59 60.983 117.777 54.877C117.965 48.771 119.943 42.8582 123.461 37.8864C126.978 32.9145 131.878 29.1069 137.541 26.945C143.203 24.7831 149.373 24.3639 155.272 25.7406C161.17 27.1173 166.532 30.2279 170.678 34.6792C174.824 39.1305 177.57 44.7224 178.566 50.748C179.563 56.7735 178.767 62.9621 176.278 68.531C173.79 74.0999 169.721 78.7992 164.585 82.0345C161.175 84.1826 157.379 85.6318 153.413 86.2993C149.448 86.9669 145.391 86.8397 141.474 85.925C137.557 85.0104 133.858 83.3262 130.586 80.9686C127.314 78.6111 124.535 75.6263 122.407 72.1848V72.1902Z" fill="#407BFF"/>
<path d="M181.279 35.0924C177.214 28.5256 171.312 23.3223 164.317 20.1405C157.322 16.9586 149.55 15.9411 141.982 17.2165C134.414 18.492 127.391 22.0032 121.801 27.3061C116.21 32.609 112.304 39.4655 110.576 47.0085C108.847 54.5516 109.374 62.4425 112.089 69.6834C114.805 76.9244 119.588 83.1902 125.832 87.6885C132.077 92.1868 139.503 94.7157 147.172 94.9553C154.841 95.1949 162.408 93.1345 168.917 89.0347C173.239 86.3121 176.987 82.7571 179.948 78.5726C182.908 74.3882 185.023 69.6563 186.171 64.6472C187.319 59.6381 187.477 54.4498 186.638 49.3788C185.799 44.3077 183.977 39.4532 181.279 35.0924ZM122.407 72.1902C119.201 67.008 117.59 60.983 117.777 54.877C117.965 48.771 119.943 42.8582 123.461 37.8864C126.978 32.9145 131.878 29.1069 137.541 26.945C143.203 24.7831 149.373 24.3639 155.272 25.7406C161.17 27.1173 166.532 30.2279 170.678 34.6792C174.824 39.1305 177.57 44.7224 178.566 50.748C179.563 56.7735 178.767 62.9621 176.278 68.531C173.79 74.0999 169.721 78.7992 164.585 82.0345C161.175 84.1826 157.379 85.6318 153.413 86.2993C149.448 86.9669 145.391 86.8397 141.474 85.925C137.557 85.0104 133.858 83.3262 130.586 80.9686C127.314 78.6111 124.535 75.6263 122.407 72.1848V72.1902Z" fill="#407BFF"/>
<path opacity="0.5" d="M181.279 35.0924C177.214 28.5256 171.312 23.3223 164.317 20.1405C157.322 16.9586 149.55 15.9411 141.982 17.2165C134.414 18.492 127.391 22.0032 121.801 27.3061C116.21 32.609 112.304 39.4655 110.576 47.0085C108.847 54.5516 109.374 62.4425 112.089 69.6834C114.805 76.9244 119.588 83.1902 125.832 87.6885C132.077 92.1868 139.503 94.7157 147.172 94.9553C154.841 95.1949 162.408 93.1345 168.917 89.0347C173.239 86.3121 176.987 82.7571 179.948 78.5726C182.908 74.3882 185.023 69.6563 186.171 64.6472C187.319 59.6381 187.477 54.4498 186.638 49.3788C185.799 44.3077 183.977 39.4532 181.279 35.0924ZM122.407 72.1902C119.201 67.008 117.59 60.983 117.777 54.877C117.965 48.771 119.943 42.8582 123.461 37.8864C126.978 32.9145 131.878 29.1069 137.541 26.945C143.203 24.7831 149.373 24.3639 155.272 25.7406C161.17 27.1173 166.532 30.2279 170.678 34.6792C174.824 39.1305 177.57 44.7224 178.566 50.748C179.563 56.7735 178.767 62.9621 176.278 68.531C173.79 74.0999 169.721 78.7992 164.585 82.0345C161.175 84.1826 157.379 85.6318 153.413 86.2993C149.448 86.9669 145.391 86.8397 141.474 85.925C137.557 85.0104 133.858 83.3262 130.586 80.9686C127.314 78.6111 124.535 75.6263 122.407 72.1848V72.1902Z" fill="white"/>
<path opacity="0.2" d="M176.904 37.8506C180.426 43.5451 182.195 50.1655 181.989 56.8748C181.782 63.584 179.609 70.0808 175.743 75.5438C171.877 81.0067 166.493 85.1904 160.272 87.5659C154.05 89.9414 147.27 90.4021 140.789 88.8896C134.307 87.3772 128.416 83.9595 123.86 79.0689C119.303 74.1782 116.286 68.034 115.19 61.4132C114.094 54.7925 114.968 47.9925 117.702 41.8729C120.435 35.7533 124.906 30.5891 130.548 27.0331C134.295 24.6712 138.467 23.0774 142.825 22.3428C147.183 21.6082 151.642 21.7472 155.947 22.7517C160.251 23.7563 164.318 25.6067 167.914 28.1974C171.51 30.7881 174.564 34.0683 176.904 37.8506Z" fill="#FAFAFA"/>
<path opacity="0.1" d="M181.683 51.0227L129.466 83.916C125.208 81.0005 121.67 77.1378 119.124 72.6254L176.136 36.7051C179.045 40.987 180.943 45.885 181.683 51.0227Z" fill="#E6E6E6"/>
</svg>
