<svg width="270" height="203" viewBox="0 0 270 203" fill="none" xmlns="http://www.w3.org/2000/svg">
<path d="M242.717 187.438H224.898V187.574H242.717V187.438Z" fill="#EBEBEB"/>
<path d="M178.868 188.922H174.192V189.058H178.868V188.922Z" fill="#EBEBEB"/>
<path d="M224.361 182.373H214.037V182.509H224.361V182.373Z" fill="#EBEBEB"/>
<path d="M52.1307 183.29H28.8945V183.426H52.1307V183.29Z" fill="#EBEBEB"/>
<path d="M60.3294 183.29H56.9238V183.426H60.3294V183.29Z" fill="#EBEBEB"/>
<path d="M121.802 185.593H71.4023V185.729H121.802V185.593Z" fill="#EBEBEB"/>
<path d="M128.178 154.32H24.2951C23.4813 154.318 22.7013 153.989 22.1264 153.405C21.5514 152.821 21.2285 152.029 21.2285 151.204V3.08857C21.2356 2.26788 21.5616 1.48316 22.1358 0.904864C22.71 0.326569 23.4859 0.00140589 24.2951 0H128.178C128.992 0 129.774 0.328277 130.35 0.912614C130.926 1.49695 131.25 2.28948 131.25 3.11586V151.204C131.25 152.03 130.926 152.823 130.35 153.407C129.774 153.991 128.992 154.32 128.178 154.32ZM24.2951 0.109137C23.517 0.110583 22.7712 0.425124 22.2215 0.98372C21.6718 1.54232 21.363 2.29932 21.363 3.08857V151.204C21.363 151.993 21.6718 152.75 22.2215 153.309C22.7712 153.867 23.517 154.182 24.2951 154.183H128.178C128.956 154.182 129.702 153.867 130.253 153.309C130.804 152.75 131.114 151.993 131.115 151.204V3.08857C131.114 2.29882 130.804 1.54183 130.253 0.983387C129.702 0.424946 128.956 0.11058 128.178 0.109137H24.2951Z" fill="#EBEBEB"/>
<path d="M244.552 154.32H140.664C139.849 154.318 139.069 153.989 138.493 153.405C137.917 152.821 137.593 152.03 137.592 151.204V3.08857C137.6 2.26738 137.928 1.48267 138.503 0.904522C139.078 0.326378 139.854 0.00139056 140.664 0H244.552C245.36 0.00284001 246.134 0.328638 246.707 0.906779C247.28 1.48492 247.606 2.26882 247.613 3.08857V151.204C247.613 152.028 247.291 152.819 246.717 153.403C246.143 153.987 245.364 154.317 244.552 154.32ZM140.664 0.109137C139.885 0.11058 139.139 0.424946 138.588 0.983387C138.038 1.54183 137.728 2.29882 137.726 3.08857V151.204C137.728 151.993 138.038 152.75 138.588 153.309C139.139 153.867 139.885 154.182 140.664 154.183H244.552C245.33 154.182 246.077 153.867 246.627 153.309C247.178 152.75 247.488 151.993 247.489 151.204V3.08857C247.488 2.29882 247.178 1.54183 246.627 0.983387C246.077 0.424946 245.33 0.11058 244.552 0.109137H140.664Z" fill="#EBEBEB"/>
<path d="M269.671 178.657H0.670898V178.794H269.671V178.657Z" fill="#EBEBEB"/>
<path d="M222.897 122.343L225.248 124.089C225.264 124.106 225.285 124.12 225.307 124.127L227.594 122.184C234.701 115.925 242.771 109.022 236.428 103.391C232.021 99.4784 226.91 103.124 224.333 105.492C221.606 103.309 215.865 97.0774 211.034 104.641C207.004 110.943 215.403 116.553 222.897 122.343Z" fill="#EBEBEB"/>
<path opacity="0.5" d="M236.078 105.809C235.893 105.819 235.719 105.901 235.594 106.039C235.468 106.177 235.401 106.359 235.406 106.547C235.41 106.735 235.487 106.913 235.62 107.044C235.753 107.175 235.93 107.248 236.115 107.248C236.301 107.248 236.478 107.175 236.611 107.044C236.743 106.913 236.82 106.735 236.825 106.547C236.83 106.359 236.763 106.177 236.637 106.039C236.512 105.901 236.338 105.819 236.153 105.809H236.078Z" fill="white"/>
<path opacity="0.5" d="M233.286 114.315C235.25 113.022 233.286 108.498 235.739 108.116C237.552 108.869 235.713 112.705 233.286 114.315Z" fill="white"/>
<path d="M57.0793 118.644L44.0683 124.186C41.1041 125.448 39.7103 128.909 40.9551 131.915L41.33 132.821C42.5749 135.828 45.9869 137.241 48.9511 135.979L61.9621 130.437C64.9262 129.174 66.3201 125.713 65.0753 122.707L64.7003 121.801C63.4555 118.795 60.0434 117.381 57.0793 118.644Z" fill="#EBEBEB"/>
<path d="M46.7877 129.12L45.8085 129.54L45.5664 128.956L48.2564 127.821L48.4985 128.405L47.5193 128.82L48.5523 131.341L47.8421 131.641L46.7877 129.12Z" fill="white"/>
<path d="M52.5029 126.845L52.6374 129.573L51.981 129.851L50.8404 128.596L50.905 130.31L50.2486 130.588L48.4141 128.564L49.0597 128.291L50.2809 129.671L50.1679 127.832L50.7436 127.587L51.9702 128.962L51.8788 127.101L52.5029 126.845Z" fill="white"/>
<path d="M55.6168 127.145L53.8414 127.903C53.9401 128.036 54.0823 128.128 54.2423 128.163C54.4022 128.198 54.5692 128.174 54.713 128.094C54.8235 128.053 54.9244 127.989 55.0096 127.906C55.0947 127.824 55.1622 127.724 55.2079 127.614L55.7459 127.86C55.634 128.116 55.4543 128.335 55.2268 128.494C54.9994 128.653 54.733 128.745 54.4573 128.759C54.1816 128.774 53.9072 128.711 53.6646 128.577C53.422 128.443 53.2207 128.244 53.0828 128.001C53.0128 127.837 52.9766 127.659 52.9766 127.479C52.9765 127.3 53.0126 127.122 53.0826 126.957C53.1526 126.792 53.255 126.643 53.3837 126.52C53.5123 126.396 53.6644 126.301 53.8307 126.239C53.9894 126.161 54.1624 126.118 54.3386 126.112C54.5149 126.106 54.6903 126.138 54.8536 126.205C55.0169 126.273 55.1645 126.374 55.2867 126.503C55.4089 126.632 55.503 126.786 55.563 126.954C55.5865 127.016 55.6045 127.08 55.6168 127.145ZM53.6639 127.505L54.8206 127.008C54.7414 126.876 54.618 126.778 54.4731 126.73C54.3281 126.683 54.1712 126.69 54.031 126.75C53.8907 126.811 53.7765 126.92 53.7091 127.058C53.6417 127.197 53.6257 127.355 53.6639 127.505Z" fill="white"/>
<path d="M58.3767 125.977L56.6229 126.735C56.7215 126.868 56.8637 126.96 57.0237 126.995C57.1836 127.03 57.3507 127.006 57.4944 126.926C57.6054 126.886 57.7068 126.822 57.792 126.739C57.8773 126.657 57.9445 126.557 57.9894 126.446L58.5274 126.686C58.4178 126.944 58.2394 127.165 58.0122 127.326C57.7851 127.486 57.5183 127.579 57.2419 127.594C56.9656 127.609 56.6906 127.545 56.4482 127.409C56.2057 127.274 56.0053 127.073 55.8697 126.828C55.7988 126.664 55.7621 126.486 55.7617 126.307C55.7613 126.127 55.7973 125.95 55.8675 125.785C55.9376 125.62 56.0403 125.472 56.1694 125.349C56.2984 125.226 56.4509 125.131 56.6175 125.071C56.7762 124.993 56.9492 124.95 57.1255 124.944C57.3017 124.938 57.4771 124.97 57.6404 125.037C57.8038 125.105 57.9513 125.206 58.0735 125.335C58.1957 125.464 58.2898 125.618 58.3498 125.786C58.3337 125.835 58.3552 125.917 58.3767 125.977ZM56.4238 126.331L57.5805 125.84C57.5046 125.708 57.3826 125.608 57.2383 125.562C57.0941 125.515 56.9379 125.525 56.8004 125.589C56.6566 125.642 56.5377 125.747 56.4677 125.885C56.3978 126.023 56.3821 126.182 56.4238 126.331Z" fill="white"/>
<path d="M60.7267 126.015C60.602 126.19 60.4301 126.325 60.2317 126.403C60.122 126.468 59.9992 126.507 59.8726 126.517C59.7459 126.527 59.6187 126.508 59.5003 126.461C59.3819 126.414 59.2753 126.341 59.1887 126.247C59.102 126.153 59.0374 126.04 58.9997 125.917L58.5962 124.94L58.2303 125.093L58.0098 124.547L58.3756 124.389L58.1335 123.811L58.8168 123.521L59.0589 124.1L59.6399 123.849L59.8605 124.395L59.2794 124.646L59.6776 125.611C59.6886 125.655 59.7094 125.696 59.7383 125.731C59.7672 125.766 59.8035 125.793 59.8444 125.812C59.8853 125.83 59.9298 125.839 59.9745 125.837C60.0192 125.836 60.063 125.824 60.1026 125.802C60.1993 125.76 60.2816 125.69 60.3393 125.601L60.7267 126.015Z" fill="white"/>
<path d="M63.6383 111.578L27.9795 106.996C26.8269 106.848 25.7742 107.675 25.6282 108.844L24.6633 116.569C24.5173 117.738 25.3333 118.806 26.4859 118.954L62.1446 123.536C63.2972 123.684 64.3499 122.857 64.4959 121.688L65.4608 113.962C65.6068 112.793 64.7908 111.726 63.6383 111.578Z" fill="#E6E6E6"/>
<path d="M36.9816 112.788L36.8525 113.814L38.6279 114.043L38.5364 114.763L36.7664 114.534L36.5889 115.953L35.7012 115.838L36.1854 111.947L39.0852 112.324L38.9937 113.044L36.9816 112.788Z" fill="white"/>
<path d="M39.0242 114.747C39.048 114.422 39.1665 114.113 39.3646 113.857C39.5626 113.601 39.8313 113.411 40.1362 113.311C40.4412 113.211 40.7686 113.205 41.0769 113.294C41.3851 113.384 41.6602 113.564 41.867 113.812C42.0738 114.061 42.2029 114.366 42.238 114.689C42.2731 115.013 42.2125 115.339 42.0639 115.627C41.9154 115.915 41.6856 116.152 41.4039 116.307C41.1222 116.462 40.8013 116.529 40.4821 116.498C40.2698 116.489 40.0616 116.436 39.8707 116.341C39.6799 116.246 39.5105 116.112 39.3734 115.948C39.2363 115.783 39.1345 115.591 39.0744 115.384C39.0142 115.178 38.9971 114.96 39.0242 114.747ZM41.3967 115.052C41.4201 114.948 41.4216 114.84 41.401 114.736C41.3804 114.631 41.3383 114.532 41.2773 114.445C41.2164 114.358 41.138 114.285 41.0474 114.23C40.9567 114.176 40.8557 114.142 40.7511 114.13C40.5547 114.136 40.3667 114.212 40.2211 114.346C40.0755 114.48 39.9819 114.662 39.9573 114.86C39.9326 115.057 39.9784 115.258 40.0865 115.424C40.1946 115.59 40.3579 115.712 40.5467 115.767C40.6496 115.782 40.7544 115.774 40.8543 115.745C40.9542 115.717 41.0471 115.667 41.1271 115.6C41.2071 115.532 41.2723 115.449 41.3188 115.355C41.3652 115.261 41.3918 115.158 41.3967 115.052Z" fill="white"/>
<path d="M43.1723 112.607L44.0223 112.717L43.4843 116.842L42.6289 116.733L43.1723 112.607Z" fill="white"/>
<path d="M44.787 112.82L45.6424 112.929L45.1044 117.055L44.249 116.946L44.787 112.82Z" fill="white"/>
<path d="M45.9059 115.631C45.9304 115.305 46.0501 114.995 46.2497 114.739C46.4493 114.483 46.7196 114.294 47.0261 114.195C47.3326 114.096 47.6612 114.093 47.9697 114.184C48.2783 114.276 48.5528 114.46 48.758 114.711C48.9632 114.962 49.0897 115.269 49.1214 115.594C49.153 115.919 49.0884 116.245 48.9357 116.532C48.783 116.82 48.5492 117.054 48.2644 117.205C47.9795 117.357 47.6566 117.418 47.337 117.382C47.1267 117.371 46.921 117.315 46.7329 117.219C46.5449 117.123 46.3784 116.988 46.244 116.824C46.1096 116.659 46.0102 116.468 45.952 116.263C45.8939 116.058 45.8781 115.842 45.9059 115.631ZM48.2785 115.936C48.2858 115.785 48.2495 115.636 48.1742 115.506C48.0989 115.376 47.9877 115.271 47.8544 115.204C47.7211 115.137 47.5715 115.111 47.4238 115.129C47.2761 115.147 47.1369 115.208 47.0231 115.306C46.9094 115.403 46.8261 115.532 46.7835 115.676C46.7409 115.821 46.7408 115.975 46.7833 116.119C46.8257 116.264 46.9089 116.393 47.0226 116.49C47.1362 116.588 47.2754 116.649 47.4231 116.667C47.5277 116.683 47.6343 116.676 47.736 116.646C47.8376 116.617 47.932 116.566 48.0128 116.497C48.0937 116.428 48.1591 116.342 48.2049 116.245C48.2507 116.149 48.2758 116.043 48.2785 115.936Z" fill="white"/>
<path d="M54.5514 115.227L53.1096 118.075L52.2865 117.972L51.8561 116.029L50.9361 117.797L50.1183 117.693L49.4297 114.594L50.2313 114.697L50.7047 116.776L51.6785 114.845L52.3994 114.938L52.8514 117.055L53.8198 115.123L54.5514 115.227Z" fill="white"/>
<path d="M69.1276 109.312L37.1504 84.6758L29.9585 94.2791L61.9358 118.916L69.1276 109.312Z" fill="#E0E0E0"/>
<path d="M35.5117 92.7113L36.1627 92.3566C36.3096 92.7897 36.579 93.1693 36.9374 93.448C37.3571 93.7699 37.6368 93.759 37.7767 93.568C38.2179 92.9841 36.125 92.0074 36.9966 90.8396C37.3947 90.2939 38.1479 90.1902 39.0195 90.8396C39.3989 91.1172 39.6966 91.4945 39.8803 91.931L39.2508 92.3075C39.1065 91.9553 38.8771 91.6456 38.5837 91.4071C38.1587 91.0852 37.8789 91.1179 37.7283 91.3144C37.2979 91.8873 39.3853 92.8696 38.5245 94.0428C38.1372 94.5885 37.3786 94.6812 36.4963 94.0046C36.0481 93.6829 35.7052 93.2324 35.5117 92.7113Z" fill="white"/>
<path d="M39.3319 93.9728L40.6393 92.2266L41.3548 92.7722L40.0636 94.4966C39.6171 95.0859 39.6924 95.528 40.1228 95.8608C40.5532 96.1937 40.989 96.1446 41.4355 95.5498L42.7267 93.8309L43.4261 94.3766L42.0972 96.1227C41.9581 96.3083 41.7842 96.4643 41.5856 96.5818C41.387 96.6992 41.1675 96.7758 40.9397 96.8073C40.7119 96.8387 40.4802 96.8243 40.2579 96.7649C40.0356 96.7055 39.8269 96.6022 39.644 96.4611C39.461 96.3199 39.3072 96.1436 39.1914 95.9421C39.0756 95.7407 39.0001 95.518 38.9691 95.287C38.9381 95.0559 38.9523 94.8209 39.0109 94.5954C39.0694 94.3699 39.1712 94.1584 39.3104 93.9728H39.3319Z" fill="white"/>
<path d="M45.2484 99.3585C44.8449 99.9041 44.1724 99.9041 43.3816 99.2602L41.7676 98.0324L44.1079 94.9111L45.6089 96.0734C46.3782 96.6628 46.5289 97.2958 46.1469 97.7814C46.0426 97.9253 45.9005 98.0364 45.7369 98.102C45.5732 98.1676 45.3946 98.1851 45.2215 98.1525C45.3603 98.3206 45.4385 98.5315 45.4434 98.7507C45.4483 98.9699 45.3795 99.1842 45.2484 99.3585ZM44.4253 96.0025L43.8873 96.7392L44.5975 97.2849C44.9418 97.5522 45.2269 97.5741 45.4098 97.3285C45.5928 97.083 45.4959 96.8156 45.1462 96.5482L44.4253 96.0025ZM44.5921 98.7309C44.7858 98.4635 44.6835 98.1852 44.3123 97.9069L43.4838 97.263L42.9028 98.0379L43.7367 98.6764C44.1025 98.9601 44.3876 98.9983 44.5921 98.7309Z" fill="white"/>
<path d="M45.1426 100.127L45.7882 99.7726C45.9339 100.206 46.2036 100.586 46.5629 100.864C46.9825 101.191 47.2623 101.18 47.4076 100.984C47.8433 100.4 45.7559 99.4234 46.6221 98.2556C47.0202 97.7099 47.7734 97.6063 48.645 98.2556C49.026 98.5316 49.324 98.9094 49.5058 99.347L48.8763 99.729C48.7336 99.3743 48.504 99.0625 48.2092 98.8231C47.7842 98.5012 47.5044 98.5339 47.3538 98.7304C46.9234 99.3088 49.0108 100.291 48.1554 101.459C47.7626 101.977 47.0041 102.097 46.1217 101.415C45.6739 101.097 45.3323 100.648 45.1426 100.127Z" fill="white"/>
<path d="M48.929 101.072C49.0914 100.852 49.2967 100.667 49.5322 100.53C49.7677 100.393 50.0284 100.307 50.2982 100.276C50.5679 100.246 50.841 100.271 51.1006 100.352C51.3602 100.432 51.6007 100.566 51.8073 100.745C52.0534 100.92 52.258 101.148 52.406 101.413C52.554 101.679 52.6417 101.974 52.6627 102.278L51.8826 102.349C51.8743 102.162 51.8251 101.978 51.7386 101.812C51.6521 101.646 51.5304 101.501 51.3822 101.389C51.2537 101.281 51.105 101.201 50.945 101.153C50.7851 101.105 50.6173 101.09 50.4516 101.109C50.2859 101.129 50.1258 101.182 49.9809 101.266C49.836 101.35 49.7093 101.462 49.6084 101.597C49.5075 101.732 49.4345 101.886 49.3938 102.05C49.3531 102.214 49.3455 102.384 49.3715 102.552C49.3975 102.719 49.4565 102.879 49.545 103.022C49.6335 103.165 49.7497 103.289 49.8866 103.386C50.0356 103.507 50.2107 103.591 50.3976 103.631C50.5845 103.671 50.7781 103.665 50.9626 103.615L51.1025 104.395C50.6939 104.46 50.2755 104.405 49.8974 104.235C49.5193 104.065 49.1975 103.788 48.9705 103.437C48.7434 103.087 48.6208 102.677 48.6173 102.258C48.6137 101.838 48.7294 101.427 48.9505 101.072H48.929Z" fill="white"/>
<path d="M53.1365 106.774L53.1904 105.448L53.1581 105.421L52.5394 104.946L51.8884 105.813L51.1729 105.268L53.5132 102.146L54.842 103.178C55.6652 103.811 55.8588 104.64 55.3316 105.361C55.183 105.579 54.9706 105.744 54.7245 105.833C54.4783 105.922 54.2108 105.93 53.9597 105.857L53.9005 107.391L53.1365 106.774ZM54.3632 103.729L53.7822 103.282L52.9698 104.373L53.5508 104.82C53.9866 105.159 54.3578 105.12 54.6268 104.782C54.8958 104.444 54.799 104.062 54.3632 103.729Z" fill="white"/>
<path d="M56.7417 104.63L57.4518 105.176L55.1169 108.297L54.4014 107.751L56.7417 104.63Z" fill="white"/>
<path d="M59.3134 110.185C58.9045 110.731 58.2374 110.731 57.4411 110.092L55.8271 108.864L58.1675 105.743L59.6685 106.9C60.4378 107.495 60.5938 108.122 60.2065 108.608C60.1029 108.753 59.961 108.865 59.7973 108.932C59.6336 108.998 59.4547 109.017 59.2811 108.985C59.4202 109.151 59.4992 109.361 59.5051 109.579C59.5109 109.797 59.4433 110.011 59.3134 110.185ZM58.4903 106.835L57.9523 107.566L58.6624 108.111C59.0067 108.379 59.2919 108.401 59.4748 108.155C59.6577 107.91 59.5609 107.648 59.2112 107.375L58.4903 106.835ZM58.6516 109.563C58.8507 109.301 58.7431 109.017 58.3719 108.739L57.5434 108.101L56.9677 108.87L57.7962 109.508C58.1621 109.792 58.4472 109.825 58.6463 109.558L58.6516 109.563Z" fill="white"/>
<path d="M62.0027 112.711L61.5669 113.289L59.1836 111.456L61.5239 108.329L63.8481 110.124L63.4123 110.703L61.7983 109.459L61.2926 110.135L62.7236 111.227L62.2986 111.772L60.8729 110.681L60.3349 111.401L62.0027 112.711Z" fill="white"/>
<path d="M111.681 37.7889C111.291 37.7889 110.917 37.6322 110.641 37.3529C110.364 37.0737 110.208 36.6948 110.207 36.2992V32.6268H109.497C108.996 32.6253 108.517 32.4231 108.163 32.0642C107.809 31.7053 107.61 31.219 107.608 30.7114V13.3205C107.611 12.8153 107.811 12.3318 108.163 11.9751C108.516 11.6184 108.993 11.4174 109.491 11.416H136.246C136.745 11.416 137.223 11.6165 137.576 11.9735C137.929 12.3305 138.128 12.8149 138.129 13.3205V30.7114C138.128 31.219 137.928 31.7053 137.574 32.0642C137.221 32.4231 136.741 32.6253 136.241 32.6268H118.761L112.574 37.4888C112.318 37.6869 112.003 37.7926 111.681 37.7889ZM109.491 11.9617C109.136 11.9631 108.796 12.1066 108.544 12.3609C108.292 12.6153 108.149 12.96 108.146 13.3205V30.7114C108.148 31.0742 108.291 31.4218 108.543 31.6783C108.796 31.9349 109.139 32.0796 109.497 32.0811H110.745V36.2992C110.746 36.5501 110.846 36.7902 111.021 36.9671C111.196 37.144 111.434 37.2433 111.681 37.2433C111.876 37.239 112.064 37.1721 112.219 37.0523L118.562 32.0811H136.246C136.604 32.0796 136.946 31.9349 137.199 31.6783C137.452 31.4218 137.595 31.0742 137.597 30.7114V13.3205C137.595 12.9596 137.453 12.614 137.201 12.3593C136.949 12.1047 136.607 11.9617 136.252 11.9617H109.491Z" fill="#E0E0E0"/>
<path d="M121.43 9.23828H118.078V9.653H121.43V9.23828Z" fill="#E0E0E0"/>
<path d="M105.758 14.1385H105.344V12.0868C105.347 11.3303 105.645 10.6058 106.173 10.0719C106.702 9.53803 107.417 9.23828 108.163 9.23828H115.636V9.653H108.163C107.526 9.653 106.915 9.90924 106.464 10.3655C106.013 10.8218 105.759 11.4408 105.758 12.0868V14.1385Z" fill="#E0E0E0"/>
<path d="M130.114 19.5245H115.416C115.229 19.4865 115.062 19.3842 114.941 19.235C114.821 19.0858 114.755 18.8989 114.755 18.706C114.755 18.5131 114.821 18.3262 114.941 18.177C115.062 18.0278 115.229 17.9255 115.416 17.8875H130.114C130.233 17.8631 130.357 17.866 130.475 17.8958C130.593 17.9257 130.703 17.9818 130.798 18.0601C130.892 18.1384 130.968 18.2369 131.02 18.3486C131.072 18.4603 131.099 18.5824 131.099 18.706C131.099 18.8296 131.072 18.9516 131.02 19.0633C130.968 19.175 130.892 19.2736 130.798 19.3519C130.703 19.4302 130.593 19.4863 130.475 19.5162C130.357 19.546 130.233 19.5489 130.114 19.5245Z" fill="#E0E0E0"/>
<path d="M130.114 22.8155H115.416C115.229 22.7775 115.062 22.6752 114.941 22.526C114.821 22.3768 114.755 22.1899 114.755 21.997C114.755 21.8041 114.821 21.6172 114.941 21.468C115.062 21.3188 115.229 21.2165 115.416 21.1785H130.114C130.233 21.1541 130.357 21.157 130.475 21.1868C130.593 21.2167 130.703 21.2728 130.798 21.3511C130.892 21.4294 130.968 21.528 131.02 21.6397C131.072 21.7514 131.099 21.8734 131.099 21.997C131.099 22.1206 131.072 22.2426 131.02 22.3543C130.968 22.466 130.892 22.5646 130.798 22.6429C130.703 22.7212 130.593 22.7773 130.475 22.8072C130.357 22.837 130.233 22.8399 130.114 22.8155Z" fill="#E0E0E0"/>
<path d="M130.114 26.1056H115.416C115.229 26.0676 115.062 25.9653 114.941 25.8161C114.821 25.6668 114.755 25.4799 114.755 25.287C114.755 25.0942 114.821 24.9073 114.941 24.758C115.062 24.6088 115.229 24.5065 115.416 24.4685H130.114C130.233 24.4442 130.357 24.447 130.475 24.4769C130.593 24.5067 130.703 24.5628 130.798 24.6411C130.892 24.7194 130.968 24.818 131.02 24.9297C131.072 25.0414 131.099 25.1635 131.099 25.287C131.099 25.4106 131.072 25.5327 131.02 25.6444C130.968 25.7561 130.892 25.8547 130.798 25.933C130.703 26.0113 130.593 26.0674 130.475 26.0972C130.357 26.1271 130.233 26.1299 130.114 26.1056Z" fill="#E0E0E0"/>
<path d="M139.503 42.5196H154.201C154.321 42.544 154.444 42.5411 154.562 42.5113C154.68 42.4814 154.791 42.4253 154.885 42.347C154.979 42.2687 155.055 42.1702 155.107 42.0585C155.159 41.9468 155.186 41.8247 155.186 41.7011C155.186 41.5775 155.159 41.4555 155.107 41.3438C155.055 41.2321 154.979 41.1335 154.885 41.0552C154.791 40.9769 154.68 40.9208 154.562 40.8909C154.444 40.8611 154.321 40.8582 154.201 40.8826H139.503C139.383 40.8582 139.26 40.8611 139.142 40.8909C139.024 40.9208 138.913 40.9769 138.819 41.0552C138.725 41.1335 138.649 41.2321 138.597 41.3438C138.545 41.4555 138.518 41.5775 138.518 41.7011C138.518 41.8247 138.545 41.9468 138.597 42.0585C138.649 42.1702 138.725 42.2687 138.819 42.347C138.913 42.4253 139.024 42.4814 139.142 42.5113C139.26 42.5411 139.383 42.544 139.503 42.5196Z" fill="#E0E0E0"/>
<path d="M139.503 45.838H154.201C154.321 45.8623 154.444 45.8595 154.562 45.8297C154.68 45.7998 154.791 45.7437 154.885 45.6654C154.979 45.5871 155.055 45.4885 155.107 45.3768C155.159 45.2651 155.186 45.1431 155.186 45.0195C155.186 44.8959 155.159 44.7738 155.107 44.6621C155.055 44.5504 154.979 44.4519 154.885 44.3736C154.791 44.2952 154.68 44.2391 154.562 44.2093C154.444 44.1794 154.321 44.1766 154.201 44.2009H139.503C139.383 44.1766 139.26 44.1794 139.142 44.2093C139.024 44.2391 138.913 44.2952 138.819 44.3736C138.725 44.4519 138.649 44.5504 138.597 44.6621C138.545 44.7738 138.518 44.8959 138.518 45.0195C138.518 45.1431 138.545 45.2651 138.597 45.3768C138.649 45.4885 138.725 45.5871 138.819 45.6654C138.913 45.7437 139.024 45.7998 139.142 45.8297C139.26 45.8595 139.383 45.8623 139.503 45.838Z" fill="#E0E0E0"/>
<path d="M139.503 49.1114H154.201C154.321 49.1358 154.444 49.1329 154.562 49.1031C154.68 49.0732 154.791 49.0171 154.885 48.9388C154.979 48.8605 155.055 48.7619 155.107 48.6502C155.159 48.5385 155.186 48.4165 155.186 48.2929C155.186 48.1693 155.159 48.0473 155.107 47.9356C155.055 47.8239 154.979 47.7253 154.885 47.647C154.791 47.5687 154.68 47.5126 154.562 47.4827C154.444 47.4529 154.321 47.45 154.201 47.4744H139.503C139.383 47.45 139.26 47.4529 139.142 47.4827C139.024 47.5126 138.913 47.5687 138.819 47.647C138.725 47.7253 138.649 47.8239 138.597 47.9356C138.545 48.0473 138.518 48.1693 138.518 48.2929C138.518 48.4165 138.545 48.5385 138.597 48.6502C138.649 48.7619 138.725 48.8605 138.819 48.9388C138.913 49.0171 139.024 49.0732 139.142 49.1031C139.26 49.1329 139.383 49.1358 139.503 49.1114Z" fill="#E0E0E0"/>
<path d="M162.007 45.1385C162.007 47.7524 160.533 50.1315 158.101 51.9377V57.9403C158.108 58.0699 158.075 58.1985 158.007 58.3081C157.938 58.4178 157.838 58.5029 157.719 58.5516C157.6 58.6004 157.47 58.6102 157.345 58.5799C157.221 58.5495 157.109 58.4804 157.025 58.3823L151.344 54.8353C149.825 55.1524 148.279 55.3115 146.728 55.3101C138.297 55.3101 131.465 50.7536 131.465 45.1331C131.465 39.5125 138.297 34.9561 146.728 34.9561C155.158 34.9561 162.007 39.518 162.007 45.1385Z" stroke="#E0E0E0" stroke-width="0.449107" stroke-miterlimit="10"/>
<path d="M196.185 35.5127H193.92C193.397 35.5198 192.896 35.7266 192.518 36.0917C192.139 36.4569 191.909 36.9536 191.875 37.4826L191.337 48.0907C191.322 48.3448 191.358 48.5993 191.444 48.8385C191.529 49.0778 191.663 49.2966 191.835 49.4814C192.008 49.6661 192.216 49.8129 192.447 49.9126C192.678 50.0122 192.927 50.0626 193.177 50.0606H195.426C195.949 50.0535 196.45 49.8467 196.829 49.4816C197.208 49.1164 197.437 48.6198 197.471 48.0907L198.009 37.4826C198.024 37.23 197.988 36.9768 197.904 36.7387C197.819 36.5005 197.687 36.2825 197.516 36.098C197.346 35.9134 197.139 35.7663 196.91 35.6657C196.681 35.565 196.434 35.513 196.185 35.5127ZM196.244 48.0634C196.232 48.257 196.148 48.4387 196.009 48.5723C195.871 48.7059 195.687 48.7814 195.496 48.7837H193.231C193.139 48.7847 193.048 48.7664 192.964 48.73C192.879 48.6937 192.803 48.64 192.74 48.5724C192.677 48.5048 192.628 48.4247 192.597 48.3371C192.566 48.2495 192.553 48.1564 192.559 48.0634L193.097 37.4553C193.108 37.2608 193.191 37.0777 193.33 36.943C193.468 36.8083 193.652 36.732 193.845 36.7296H196.11C196.202 36.7294 196.293 36.7484 196.377 36.7853C196.462 36.8223 196.538 36.8765 196.601 36.9445C196.664 37.0126 196.713 37.093 196.744 37.1809C196.775 37.2687 196.788 37.3622 196.782 37.4553L196.244 48.0634Z" fill="#EBEBEB"/>
<path d="M214.096 35.5131H207.462L208.942 31.977C209.104 31.5997 209.165 31.1856 209.119 30.7765L208.807 27.9935C208.752 27.4495 208.498 26.9463 208.094 26.5835C207.691 26.2207 207.168 26.0248 206.628 26.0345H203.992L203.772 30.3454L199.495 35.8023C199.071 36.3422 198.821 37.0014 198.779 37.6903L198.241 47.6163C198.221 47.9299 198.265 48.2442 198.37 48.5397C198.476 48.8352 198.64 49.1054 198.853 49.3334C199.067 49.5614 199.324 49.7422 199.609 49.8646C199.894 49.987 200.202 50.0483 200.511 50.0446H209.792C210.199 50.0383 210.601 49.9463 210.971 49.7744C211.342 49.6025 211.673 49.3545 211.944 49.046L212.81 48.0693C213.15 47.6896 213.387 47.2272 213.499 46.7269L215.532 37.5375L214.096 35.5131Z" fill="#EBEBEB"/>
<g opacity="0.5">
<path d="M196.185 35.5127H193.92C193.397 35.5198 192.896 35.7266 192.518 36.0917C192.139 36.4569 191.909 36.9536 191.875 37.4826L191.337 48.0907C191.322 48.3448 191.358 48.5993 191.444 48.8385C191.529 49.0778 191.663 49.2966 191.835 49.4814C192.008 49.6661 192.216 49.8129 192.447 49.9126C192.678 50.0122 192.927 50.0626 193.177 50.0606H195.426C195.949 50.0535 196.45 49.8467 196.829 49.4816C197.208 49.1164 197.437 48.6198 197.471 48.0907L198.009 37.4826C198.024 37.23 197.988 36.9768 197.904 36.7387C197.819 36.5005 197.687 36.2825 197.516 36.098C197.346 35.9134 197.139 35.7663 196.91 35.6657C196.681 35.565 196.434 35.513 196.185 35.5127ZM196.244 48.0634C196.232 48.257 196.148 48.4387 196.009 48.5723C195.871 48.7059 195.687 48.7814 195.496 48.7837H193.231C193.139 48.7847 193.048 48.7664 192.964 48.73C192.879 48.6937 192.803 48.64 192.74 48.5724C192.677 48.5048 192.628 48.4247 192.597 48.3371C192.566 48.2495 192.553 48.1564 192.559 48.0634L193.097 37.4553C193.108 37.2608 193.191 37.0777 193.33 36.943C193.468 36.8083 193.652 36.732 193.845 36.7296H196.11C196.202 36.7294 196.293 36.7484 196.377 36.7853C196.462 36.8223 196.538 36.8765 196.601 36.9445C196.664 37.0126 196.713 37.093 196.744 37.1809C196.775 37.2687 196.788 37.3622 196.782 37.4553L196.244 48.0634Z" fill="#EBEBEB"/>
</g>
<path d="M67.4745 30.1874L57.8066 28.2393L59.921 23.8574L67.1786 25.3144L67.4745 30.1874Z" fill="#EBEBEB"/>
<path d="M67.1781 25.3145L64.8809 29.6636L67.474 30.1874L67.1781 25.3145Z" fill="#E0E0E0"/>
<path d="M71.7805 31.0597L53.3738 27.3562C51.7446 27.0284 50.1618 28.1023 49.8387 29.7548L47.3137 42.6651C46.9905 44.3176 48.0493 45.9229 49.6785 46.2507L68.0853 49.9542C69.7145 50.282 71.2972 49.2081 71.6204 47.5556L74.1453 34.6453C74.4685 32.9928 73.4098 31.3875 71.7805 31.0597Z" fill="#EBEBEB"/>
<path d="M71.4502 30.9814L71.9779 31.0876C72.7043 31.2338 73.3437 31.6666 73.7554 32.2909C74.1672 32.9152 74.3176 33.6799 74.1735 34.4167L71.5648 47.7552C71.4207 48.492 70.9939 49.1405 70.3784 49.5581C69.7629 49.9757 69.009 50.1283 68.2826 49.9821L67.7549 49.8759L71.4502 30.9814Z" fill="#E0E0E0"/>
<path d="M66.2424 38.8583C65.984 40.1795 65.345 41.3933 64.4064 42.3462C63.4677 43.2991 62.2716 43.9482 60.9692 44.2115C59.6668 44.4749 58.3167 44.3405 57.0896 43.8256C55.8625 43.3106 54.8135 42.4381 54.0753 41.3184C53.3371 40.1987 52.9428 38.8821 52.9424 37.5352C52.9419 36.1882 53.3353 34.8713 54.0727 33.7511C54.8102 32.6309 55.8586 31.7577 57.0853 31.2418C58.3121 30.726 59.6621 30.5907 60.9647 30.8531C62.7111 31.205 64.2482 32.246 65.2379 33.7472C66.2277 35.2484 66.589 37.0869 66.2424 38.8583Z" fill="#FAFAFA"/>
<path d="M65.3661 38.5909C65.1405 39.7507 64.5808 40.8165 63.7578 41.6535C62.9348 42.4905 61.8856 43.0612 60.7428 43.2932C59.6 43.5253 58.4151 43.4083 57.3379 42.9571C56.2606 42.5059 55.3396 41.7408 54.6912 40.7585C54.0428 39.7762 53.6962 38.6209 53.6953 37.4388C53.6944 36.2567 54.0392 35.1009 54.6861 34.1176C55.333 33.1344 56.2529 32.3678 57.3294 31.9149C58.406 31.462 59.5908 31.3432 60.7339 31.5734C62.2617 31.8885 63.6051 32.8022 64.4725 34.1162C65.3398 35.4302 65.6609 37.0382 65.3661 38.5909Z" fill="#E0E0E0"/>
<path d="M56.2305 30.667L60.7336 31.5728L58.4417 43.2887L52.6582 42.1646C52.6582 42.1646 57.328 32.5059 56.2305 30.667Z" fill="#E0E0E0"/>
<path d="M57.2274 26.8989L54.1719 26.2842L53.9049 27.6491L56.9604 28.2638L57.2274 26.8989Z" fill="#EBEBEB"/>
<path d="M68.9962 34.0507C68.9656 34.2062 68.8904 34.349 68.7799 34.4611C68.6694 34.5732 68.5286 34.6496 68.3753 34.6806C68.2221 34.7116 68.0632 34.6959 67.9187 34.6354C67.7743 34.5749 67.6507 34.4723 67.5637 34.3407C67.4766 34.209 67.43 34.0542 67.4297 33.8956C67.4294 33.7371 67.4753 33.5821 67.5618 33.45C67.6483 33.318 67.7715 33.2149 67.9157 33.1538C68.0599 33.0927 68.2187 33.0763 68.3721 33.1067C68.4743 33.1269 68.5715 33.1674 68.6582 33.2258C68.7449 33.2843 68.8194 33.3595 68.8774 33.4472C68.9354 33.5349 68.9757 33.6334 68.9961 33.7369C69.0165 33.8405 69.0165 33.9471 68.9962 34.0507Z" fill="#FAFAFA"/>
<path d="M57.1611 36.506C56.9263 37.7087 56.4215 38.8403 55.6859 39.8132C54.9503 40.7861 54.0037 41.5741 52.9194 42.116C51.8352 42.658 50.6424 42.9394 49.4337 42.9384C48.2249 42.9373 47.0326 42.654 45.9492 42.1102C47.6739 41.9898 49.3115 41.2969 50.6091 40.1384C51.9068 38.9799 52.7924 37.4203 53.129 35.7004C53.4657 33.9806 53.2348 32.1962 52.4719 30.6227C51.7091 29.0492 50.4567 27.7743 48.9082 26.9947C50.1138 26.9098 51.3223 27.108 52.4401 27.5739C53.5578 28.0398 54.5546 28.7608 55.353 29.6809C56.1513 30.601 56.7298 31.6954 57.0434 32.8791C57.357 34.0628 57.3973 35.3039 57.1611 36.506Z" fill="#EBEBEB"/>
<path d="M53.1315 35.7026C53.9478 31.5285 52.0556 27.6309 48.905 26.997C45.7544 26.3631 42.5386 29.233 41.7223 33.407C40.9059 37.5811 42.7982 41.4787 45.9488 42.1126C49.0993 42.7465 52.3152 39.8767 53.1315 35.7026Z" fill="#FAFAFA"/>
<path d="M45.9426 42.11C44.7362 42.1942 43.5269 41.9953 42.4085 41.5289C41.2902 41.0624 40.2928 40.3408 39.4939 39.4201C38.6949 38.4994 38.1159 37.4044 37.8016 36.22C37.4874 35.0356 37.4465 33.7937 37.682 32.5907C37.9175 31.3876 38.4231 30.2558 39.1596 29.2831C39.8961 28.3103 40.8437 27.5227 41.9289 26.9815C43.014 26.4402 44.2075 26.1599 45.4167 26.1621C46.626 26.1644 47.8184 26.4492 48.9016 26.9945C47.177 27.1149 45.5394 27.8079 44.2417 28.9664C42.944 30.1248 42.0585 31.6844 41.7218 33.4043C41.3851 35.1241 41.616 36.9085 42.3789 38.482C43.1418 40.0555 44.3941 41.3304 45.9426 42.11Z" fill="#E6E6E6"/>
<path d="M135.171 203C192.782 203 239.484 200.234 239.484 196.823C239.484 193.411 192.782 190.646 135.171 190.646C77.5608 190.646 30.8584 193.411 30.8584 196.823C30.8584 200.234 77.5608 203 135.171 203Z" fill="#F5F5F5"/>
<path d="M198.477 146.642H74.6133V188.07H198.477V146.642Z" fill="#407BFF"/>
<path opacity="0.2" d="M198.477 146.647H74.6133V188.07H198.477V146.647Z" fill="white"/>
<path d="M161.871 105.71H108.108V147.138H161.871V105.71Z" fill="#407BFF"/>
<path opacity="0.2" d="M161.871 105.71H108.108V147.138H161.871V105.71Z" fill="white"/>
<path d="M139.969 117.47L136.93 132.896H133.406L135.886 120.345H132.841L133.406 117.481L139.969 117.47Z" fill="#263238"/>
<path d="M167.983 90.6165L170.076 92.8648L184.909 82.8515L201.657 88.472L216.231 77.5529L217.21 79.3318L221.149 72.6144L213.45 72.5107L214.429 74.2842L201.409 85.7818L184.624 80.2867L167.983 90.6165Z" fill="#263238"/>
<path opacity="0.2" d="M176.85 150.909L188.121 150.495C185.464 149.72 182.655 149.764 179.901 149.474C179.104 149.418 178.319 149.253 177.566 148.983C176.856 148.705 176.215 148.263 175.511 147.968C174.587 147.582 173.578 147.454 172.589 147.597C172.271 147.632 171.961 147.725 171.675 147.87C171.135 148.19 170.731 148.701 170.54 149.305C170.363 149.822 170.261 150.363 170.238 150.909C170.238 150.986 170.238 151.068 170.238 151.15C170.253 152.349 170.505 153.533 170.981 154.631C173.595 161.054 194.776 155.57 194.776 155.57C194.034 159.782 195.142 162.958 195.901 167.176L197.886 178.286L195.766 178.521L196.622 181.632H198.489V150.909H176.85Z" fill="black"/>
<path opacity="0.2" d="M198.617 184.316V187.798L198.531 187.694L198.068 185.25C198.066 185.215 198.066 185.18 198.068 185.146C198.068 184.968 198.119 184.793 198.217 184.646C198.315 184.498 198.454 184.383 198.617 184.316Z" fill="black"/>
<path d="M208.521 181.751L211.841 181.385L212.164 173.479L208.839 173.844L208.521 181.751Z" fill="#FF8B7B"/>
<path d="M212.181 179.967L208.415 179.923C208.353 179.917 208.291 179.936 208.243 179.976C208.194 180.015 208.163 180.073 208.157 180.136C208.154 180.145 208.154 180.154 208.157 180.163L207.941 183.164C207.941 183.323 208.002 183.475 208.11 183.589C208.219 183.703 208.366 183.77 208.522 183.776C209.824 183.776 210.373 183.699 212.014 183.601C213.031 183.535 215.446 183.372 216.824 183.11C218.201 182.848 217.9 181.473 217.297 181.473C215.861 181.445 213.66 180.965 212.73 180.201C212.576 180.065 212.384 179.983 212.181 179.967Z" fill="#263238"/>
<path opacity="0.2" d="M208.84 173.85L212.165 173.479L212.009 177.287L208.689 177.538L208.84 173.85Z" fill="black"/>
<path d="M185.206 138.942C185.206 138.942 210.492 137.676 212.165 147.231C212.986 156.212 213.146 165.243 212.644 174.248L207.952 175.165C207.952 175.165 204.294 158.587 204.671 150.44C197.703 149.665 178.734 153.092 175.775 147.826C173.359 143.531 173.811 140.863 173.811 140.863L185.206 138.942Z" fill="#263238"/>
<path d="M206.452 176.703L213.564 176.365L214.054 173.658L206.172 173.931L206.452 176.703Z" fill="#407BFF"/>
<path d="M213.983 180.398C214.035 180.342 214.072 180.274 214.09 180.199C214.108 180.124 214.106 180.046 214.085 179.972C214.076 179.922 214.055 179.875 214.023 179.836C213.99 179.797 213.949 179.767 213.902 179.748C213.493 179.574 212.546 180.223 212.444 180.294C212.434 180.299 212.426 180.306 212.42 180.314C212.413 180.323 212.409 180.333 212.406 180.343C212.404 180.353 212.404 180.364 212.405 180.374C212.407 180.384 212.411 180.394 212.416 180.402C212.422 180.411 212.429 180.419 212.438 180.424C212.446 180.43 212.456 180.434 212.466 180.436C212.756 180.512 213.054 180.556 213.353 180.567C213.576 180.591 213.8 180.531 213.983 180.398ZM213.854 179.89C213.875 179.9 213.894 179.917 213.907 179.937C213.921 179.957 213.928 179.981 213.929 180.005C213.946 180.052 213.95 180.103 213.94 180.152C213.931 180.201 213.908 180.246 213.875 180.283C213.714 180.441 213.278 180.458 212.681 180.327C213.068 180.076 213.628 179.803 213.854 179.89Z" fill="#407BFF"/>
<path d="M212.535 180.419C212.868 180.223 213.374 179.524 213.299 179.153C213.287 179.088 213.253 179.028 213.203 178.984C213.153 178.941 213.09 178.916 213.024 178.913C212.962 178.903 212.898 178.908 212.839 178.928C212.779 178.948 212.724 178.982 212.68 179.028C212.341 179.355 212.4 180.326 212.406 180.37C212.406 180.384 212.411 180.397 212.418 180.409C212.426 180.42 212.436 180.43 212.449 180.436H212.486L212.535 180.419ZM212.976 179.071C213.094 179.071 213.116 179.137 213.127 179.186C213.175 179.426 212.841 179.955 212.546 180.201C212.503 179.821 212.585 179.438 212.777 179.11C212.799 179.087 212.826 179.069 212.856 179.058C212.886 179.046 212.917 179.042 212.949 179.044L212.976 179.071Z" fill="#407BFF"/>
<path opacity="0.3" d="M201.539 144.453C201.539 144.453 206.817 142.92 207.952 146.145C209.087 149.37 207.758 165.096 206.187 168.616C204.616 172.136 201.727 145.01 201.727 145.01L201.539 144.453Z" fill="black"/>
<path d="M201.635 184.315L204.858 184.228L204.61 176.294L201.388 176.376L201.635 184.315Z" fill="#FF8B7B"/>
<path d="M204.911 183.251L201.172 183.492C201.109 183.494 201.048 183.522 201.004 183.569C200.96 183.616 200.935 183.678 200.936 183.743V186.749C200.949 186.905 201.022 187.049 201.139 187.15C201.255 187.252 201.406 187.304 201.56 187.295C202.856 187.169 203.475 187.066 205.121 186.946C206.587 186.912 208.049 186.77 209.495 186.52C210.856 186.204 210.517 184.85 209.915 184.856C208.336 184.76 206.808 184.25 205.482 183.377C205.31 183.274 205.11 183.23 204.911 183.251Z" fill="#263238"/>
<path d="M206.724 183.54C206.773 183.481 206.806 183.41 206.818 183.334C206.83 183.259 206.822 183.181 206.794 183.109C206.782 183.06 206.758 183.015 206.724 182.978C206.69 182.941 206.648 182.913 206.6 182.896C206.181 182.754 205.282 183.48 205.18 183.562C205.167 183.576 205.158 183.593 205.153 183.611C205.152 183.621 205.152 183.631 205.155 183.641C205.157 183.651 205.161 183.66 205.167 183.669C205.173 183.677 205.181 183.683 205.19 183.689C205.198 183.694 205.208 183.697 205.218 183.698C205.512 183.754 205.812 183.774 206.111 183.758C206.336 183.771 206.556 183.692 206.724 183.54ZM206.552 183.049C206.575 183.057 206.597 183.07 206.614 183.088C206.631 183.106 206.643 183.129 206.649 183.153C206.667 183.199 206.674 183.25 206.667 183.3C206.66 183.349 206.641 183.397 206.611 183.436C206.477 183.606 206.025 183.649 205.422 183.573C205.81 183.295 206.348 182.978 206.568 183.049H206.552Z" fill="#407BFF"/>
<path d="M205.31 183.693C205.627 183.469 206.079 182.716 205.977 182.372C205.96 182.307 205.921 182.25 205.867 182.21C205.813 182.17 205.748 182.151 205.681 182.154C205.618 182.147 205.555 182.155 205.496 182.177C205.437 182.2 205.384 182.237 205.342 182.285C205.03 182.634 205.17 183.6 205.17 183.644C205.172 183.657 205.178 183.67 205.186 183.68C205.195 183.691 205.206 183.699 205.218 183.704H205.251C205.261 183.706 205.271 183.706 205.281 183.705C205.292 183.703 205.301 183.699 205.31 183.693ZM205.654 182.296C205.767 182.296 205.805 182.356 205.81 182.4C205.88 182.64 205.579 183.191 205.304 183.458C205.236 183.087 205.291 182.703 205.46 182.367C205.48 182.343 205.503 182.324 205.53 182.31C205.557 182.295 205.586 182.287 205.616 182.285L205.654 182.296Z" fill="#407BFF"/>
<path opacity="0.2" d="M201.098 176.305L204.702 175.688L204.735 180.649L201.571 181.02L201.098 176.305Z" fill="black"/>
<path d="M180.245 139.695C180.245 139.695 205.214 141.583 205.531 148.972C207.371 160.977 205.983 176.802 205.983 176.802L200 178.068C200 178.068 196.928 163.252 196.487 152.361C190.376 153.403 177.803 155.324 173.493 152.224C169.603 148.661 170.679 141.332 170.679 141.332L180.245 139.695Z" fill="#263238"/>
<path d="M199.435 180.07L206.747 179.443L206.898 176.201L198.887 177.042L199.435 180.07Z" fill="#407BFF"/>
<path d="M181.978 117.693C182.117 118.271 182.247 118.784 182.397 119.297C182.548 119.81 182.704 120.318 182.876 120.847C183.21 121.867 183.592 122.877 184.006 123.903C184.85 126.038 185.978 128.047 187.358 129.873C187.759 130.382 188.202 130.856 188.681 131.291C189.219 131.782 189.826 132.186 190.483 132.492C191.741 133.065 193.125 133.293 194.497 133.152C195.7 133.029 196.876 132.708 197.978 132.203C198.497 131.969 199.002 131.703 199.489 131.406C199.735 131.262 199.972 131.103 200.2 130.931C200.426 130.751 200.641 130.598 200.904 130.386L199.613 128.203L198.973 128.399L198.3 128.585C197.843 128.699 197.397 128.803 196.934 128.879C196.102 129.035 195.254 129.079 194.411 129.01C193.736 128.963 193.084 128.747 192.512 128.383C192.263 128.218 192.033 128.023 191.828 127.804C191.574 127.522 191.339 127.223 191.124 126.91C190.628 126.173 190.194 125.395 189.827 124.585C189.418 123.745 189.058 122.861 188.713 121.949C188.369 121.038 188.057 120.116 187.745 119.188L187.304 117.78C187.164 117.316 187.013 116.82 186.9 116.416L181.978 117.693Z" fill="#FF8B7B"/>
<path d="M181.509 114.855C183.521 112.083 186.738 112.973 188.664 117.224C189.727 119.485 190.588 121.84 191.236 124.257L183.855 127.144C181.762 123.15 179.438 117.704 181.509 114.855Z" fill="#407BFF"/>
<path opacity="0.1" d="M181.509 114.855C183.521 112.083 186.738 112.973 188.664 117.224C189.727 119.485 190.588 121.84 191.236 124.257L183.855 127.144C181.762 123.15 179.438 117.704 181.509 114.855Z" fill="black"/>
<path opacity="0.3" d="M184.769 119.281C184.14 118.877 182.956 121.377 182.467 124.302C182.908 125.3 183.381 126.255 183.849 127.145L188.288 125.398C187.465 122.703 186.179 120.193 184.769 119.281Z" fill="black"/>
<path d="M199.946 127.079L201.56 126.124L202.248 129.807C202.248 129.807 199.558 131.559 198.746 130.206L198.8 129.251C198.83 128.828 198.948 128.416 199.145 128.041C199.343 127.667 199.615 127.339 199.946 127.079Z" fill="#FF8B7B"/>
<path d="M203.594 125.878L205.117 128.803L202.222 129.807L201.539 126.123L203.594 125.878Z" fill="#FF8B7B"/>
<path d="M181.402 112.438L177.56 112.018L172.831 112.591C172.109 112.677 171.434 113.002 170.912 113.516C170.39 114.03 170.049 114.704 169.942 115.434C169.515 118.971 169.305 122.532 169.313 126.096C169.27 130.112 169.894 136.028 170.701 141.375L186.545 138.909C186.26 124.83 187.169 120.432 187.185 116.694C187.187 115.963 186.954 115.25 186.521 114.665C186.088 114.08 185.479 113.655 184.786 113.453L181.402 112.438Z" fill="#407BFF"/>
<path d="M181.402 112.438L177.56 112.018L172.831 112.591C172.109 112.677 171.434 113.002 170.912 113.516C170.39 114.03 170.049 114.704 169.942 115.434C169.515 118.971 169.305 122.532 169.313 126.096C169.27 130.112 169.894 136.028 170.701 141.375L186.545 138.909C186.26 124.83 187.169 120.432 187.185 116.694C187.187 115.963 186.954 115.25 186.521 114.665C186.088 114.08 185.479 113.655 184.786 113.453L181.402 112.438Z" fill="#407BFF"/>
<path opacity="0.3" d="M171.432 114.047C174.59 113.382 174.66 120.694 173.385 126.085C173.013 127.646 171.184 127.056 170.565 126.674C168.526 125.425 167.563 116.514 171.432 114.047Z" fill="black"/>
<path d="M171.389 124.885C171.61 128.044 170.674 129.731 172.363 130.729C174.052 131.728 183.978 134.718 184.199 134.298C183.747 135.073 183.306 135.739 182.854 136.519C180.013 136.181 177.171 135.875 174.327 135.602C172.25 135.4 168.898 134.969 167.236 133.692C165.729 132.535 165.826 127.248 165.955 123.439C167.257 122.615 171.389 124.885 171.389 124.885Z" fill="#FF8B7B"/>
<path d="M170.141 112.804C173.369 111.713 174.687 114.337 173.837 118.916C173.418 121.385 172.777 123.811 171.922 126.162L165.035 124.198C165.654 119.712 166.854 113.906 170.141 112.804Z" fill="#407BFF"/>
<path d="M174.886 112.629C174.82 113.33 175.012 114.032 175.424 114.599C175.845 115.153 176.331 115.654 176.871 116.089C177.538 116.667 178.323 117.284 179.19 117.136C180.056 116.989 180.432 116.591 180.723 115.603C181.444 116.694 181.498 117.24 182.251 117.306C182.496 117.285 182.734 117.21 182.947 117.086C183.161 116.963 183.346 116.794 183.488 116.591C184.032 116.109 184.364 115.428 184.414 114.697C184.548 113.273 183.37 111.969 182.036 111.538C180.678 111.123 179.273 110.886 177.855 110.834C176.634 110.73 175.09 111.172 174.886 112.629Z" fill="#263238"/>
<path d="M178.011 105.71L179.797 107.68L182.235 110.354C182.024 110.653 181.871 110.99 181.783 111.347C181.633 111.723 181.622 112.142 181.754 112.526C181.886 112.909 182.15 113.231 182.498 113.431C182.864 113.59 183.101 115.483 180.739 115.363C180.066 115.373 179.398 115.242 178.777 114.979C178.157 114.717 177.595 114.327 177.129 113.835C176.677 113.257 176.553 112.946 176.978 112.291C178.21 110.436 178.21 107.8 178.011 105.71Z" fill="#FF8B7B"/>
<path opacity="0.2" d="M181.649 109.682L180.104 107.739C180.104 107.799 180.072 107.865 180.051 107.93C179.99 108.214 179.95 108.502 179.932 108.792C179.873 109.78 180.825 111.013 181.729 111.521L181.794 111.319C181.886 110.987 182.024 110.669 182.203 110.375C182.213 110.356 182.228 110.341 182.246 110.331L181.649 109.682Z" fill="black"/>
<path d="M183.796 105.114C185.222 102.293 184.92 100.694 186.292 99.1937C187.029 98.8609 188.32 100.241 187.46 102.588C186.599 104.934 183.796 105.114 183.796 105.114Z" fill="#263238"/>
<path d="M178.056 101.983C177.889 105.257 177.652 107.161 179.094 108.968C181.246 111.696 185.388 110.605 186.502 107.407C187.503 104.553 187.578 99.6802 184.576 98.0977C184.052 97.825 183.481 97.6598 182.894 97.6115C182.307 97.5633 181.717 97.6329 181.157 97.8164C180.596 97.9999 180.077 98.2936 179.629 98.6809C179.181 99.0681 178.813 99.5412 178.545 100.073C178.244 100.665 178.077 101.317 178.056 101.983Z" fill="#FF8B7B"/>
<path d="M177.673 104.891L180.304 105.945L179.642 103.08L181.073 102.25L182.822 99.5982C182.822 99.5982 179.056 98.4741 177.91 98.3213C177.512 98.2667 176.129 99.3581 175.924 99.8165C175.657 100.461 175.573 101.168 175.68 101.858C175.787 102.548 176.083 103.194 176.532 103.724C176.874 104.15 177.256 104.541 177.673 104.891Z" fill="#263238"/>
<path d="M178.991 94.9815C179.819 94.5723 180.825 95.0852 181.708 95.358C182.574 95.6708 183.458 95.9296 184.355 96.1329C185.137 96.3232 185.96 96.2205 186.674 95.8437C187.02 95.6433 187.283 95.3217 187.413 94.939C187.542 94.5563 187.53 94.1389 187.378 93.7646C187.862 94.0431 188.272 94.4371 188.571 94.9123C188.871 95.3875 189.052 95.9297 189.099 96.492C189.146 97.0542 189.056 97.6194 188.839 98.1388C188.622 98.6581 188.283 99.1159 187.852 99.4725C187.025 100.098 186.016 100.427 184.984 100.406C183.962 100.378 182.946 100.236 181.955 99.98C180.626 99.6908 178.727 99.6471 177.49 99.0305C176.252 98.4139 176.462 96.2202 178.991 94.9815Z" fill="#263238"/>
<path d="M176.473 104.335C176.562 105.063 176.91 105.732 177.452 106.218C178.162 106.829 178.98 106.108 179.066 105.181C179.12 104.351 178.673 103.156 177.834 102.9C176.995 102.643 176.365 103.429 176.473 104.335Z" fill="#FF8B7B"/>
<path d="M182.94 103.784C182.903 104.057 183.005 104.302 183.182 104.329C183.36 104.357 183.505 104.171 183.564 103.904C183.599 103.799 183.594 103.685 183.55 103.584C183.507 103.483 183.427 103.403 183.328 103.358C183.15 103.325 182.983 103.516 182.94 103.784Z" fill="#263238"/>
<path d="M185.931 104.351C185.888 104.623 185.996 104.896 186.168 104.896C186.34 104.896 186.512 104.738 186.555 104.476C186.598 104.214 186.486 103.958 186.313 103.93C186.141 103.903 185.969 104.083 185.931 104.351Z" fill="#263238"/>
<path d="M184.942 104.373C185.057 105.137 185.27 105.881 185.577 106.589C185.399 106.659 185.207 106.689 185.017 106.676C184.826 106.662 184.641 106.607 184.474 106.512L184.942 104.373Z" fill="#FF5652"/>
<path d="M184 108.045C183.69 107.997 183.394 107.886 183.129 107.718C182.863 107.55 182.634 107.329 182.456 107.068C182.446 107.05 182.443 107.029 182.448 107.008C182.453 106.988 182.465 106.971 182.483 106.959C182.497 106.946 182.517 106.938 182.536 106.938C182.556 106.938 182.575 106.946 182.59 106.959C182.788 107.239 183.047 107.468 183.346 107.63C183.646 107.792 183.978 107.882 184.317 107.892C184.338 107.892 184.357 107.9 184.372 107.914C184.387 107.929 184.397 107.948 184.398 107.969C184.399 107.98 184.397 107.99 184.394 108.001C184.39 108.011 184.385 108.02 184.378 108.028C184.371 108.036 184.363 108.043 184.353 108.048C184.344 108.053 184.333 108.055 184.323 108.056C184.215 108.059 184.107 108.055 184 108.045Z" fill="#263238"/>
<path d="M182.515 102.725C182.492 102.713 182.47 102.699 182.45 102.681C182.421 102.65 182.404 102.609 182.404 102.566C182.404 102.524 182.421 102.482 182.45 102.452C182.63 102.278 182.85 102.152 183.089 102.086C183.328 102.019 183.58 102.014 183.822 102.07C183.862 102.08 183.896 102.106 183.918 102.142C183.939 102.178 183.945 102.22 183.935 102.261C183.93 102.282 183.92 102.301 183.907 102.318C183.894 102.335 183.878 102.349 183.859 102.359C183.84 102.369 183.82 102.375 183.799 102.377C183.778 102.379 183.756 102.377 183.736 102.37C183.545 102.331 183.348 102.338 183.161 102.393C182.974 102.447 182.802 102.546 182.66 102.681C182.642 102.701 182.619 102.715 182.593 102.723C182.568 102.73 182.541 102.731 182.515 102.725Z" fill="#263238"/>
<path d="M186.211 102.589C186.206 102.563 186.206 102.537 186.211 102.512C186.221 102.47 186.247 102.434 186.284 102.412C186.32 102.389 186.364 102.382 186.405 102.392C186.645 102.446 186.869 102.558 187.057 102.72C187.244 102.882 187.39 103.088 187.481 103.32C187.487 103.358 187.479 103.397 187.46 103.43C187.44 103.463 187.409 103.488 187.373 103.5C187.337 103.513 187.298 103.512 187.263 103.498C187.227 103.484 187.198 103.457 187.18 103.423C187.104 103.241 186.985 103.08 186.834 102.954C186.684 102.829 186.505 102.743 186.313 102.703C186.288 102.694 186.266 102.679 186.248 102.659C186.23 102.639 186.218 102.615 186.211 102.589Z" fill="#263238"/>
<path d="M194.835 144.978L216.435 142.113C216.489 142.106 216.54 142.089 216.587 142.062C216.634 142.035 216.675 141.999 216.708 141.956C216.741 141.913 216.765 141.863 216.779 141.811C216.793 141.758 216.797 141.703 216.791 141.649C216.776 141.54 216.72 141.442 216.634 141.374C216.549 141.307 216.441 141.276 216.333 141.289L194.727 144.154C194.62 144.17 194.523 144.228 194.458 144.316C194.392 144.404 194.364 144.514 194.377 144.623C194.384 144.677 194.401 144.729 194.428 144.776C194.455 144.823 194.49 144.865 194.533 144.898C194.575 144.931 194.624 144.955 194.676 144.968C194.728 144.982 194.782 144.985 194.835 144.978Z" fill="#407BFF"/>
<path opacity="0.5" d="M194.835 144.978L216.435 142.113C216.489 142.106 216.54 142.089 216.587 142.062C216.634 142.035 216.675 141.999 216.708 141.956C216.741 141.913 216.765 141.863 216.779 141.811C216.793 141.758 216.797 141.703 216.791 141.649C216.776 141.54 216.72 141.442 216.634 141.374C216.549 141.307 216.441 141.276 216.333 141.289L194.727 144.154C194.62 144.17 194.523 144.228 194.458 144.316C194.392 144.404 194.364 144.514 194.377 144.623C194.384 144.677 194.401 144.729 194.428 144.776C194.455 144.823 194.49 144.865 194.533 144.898C194.575 144.931 194.624 144.955 194.676 144.968C194.728 144.982 194.782 144.985 194.835 144.978Z" fill="black"/>
<path d="M184.189 144.852L194.669 144.983C194.723 144.984 194.777 144.975 194.827 144.955C194.877 144.935 194.923 144.905 194.961 144.867C195 144.829 195.031 144.783 195.052 144.733C195.073 144.682 195.083 144.628 195.083 144.574C195.084 144.519 195.074 144.465 195.054 144.414C195.034 144.364 195.005 144.318 194.967 144.279C194.93 144.24 194.885 144.209 194.836 144.187C194.787 144.166 194.733 144.154 194.68 144.153L184.2 144.022C184.092 144.022 183.988 144.065 183.91 144.142C183.833 144.218 183.788 144.322 183.785 144.432C183.784 144.486 183.793 144.541 183.813 144.592C183.833 144.643 183.862 144.689 183.9 144.728C183.937 144.767 183.982 144.798 184.032 144.82C184.082 144.841 184.135 144.852 184.189 144.852Z" fill="#407BFF"/>
<path opacity="0.5" d="M184.189 144.852L194.669 144.983C194.723 144.984 194.777 144.975 194.827 144.955C194.877 144.935 194.923 144.905 194.961 144.867C195 144.829 195.031 144.783 195.052 144.733C195.073 144.682 195.083 144.628 195.083 144.574C195.084 144.519 195.074 144.465 195.054 144.414C195.034 144.364 195.005 144.318 194.967 144.279C194.93 144.24 194.885 144.209 194.836 144.187C194.787 144.166 194.733 144.154 194.68 144.153L184.2 144.022C184.092 144.022 183.988 144.065 183.91 144.142C183.833 144.218 183.788 144.322 183.785 144.432C183.784 144.486 183.793 144.541 183.813 144.592C183.833 144.643 183.862 144.689 183.9 144.728C183.937 144.767 183.982 144.798 184.032 144.82C184.082 144.841 184.135 144.852 184.189 144.852Z" fill="white"/>
<path d="M195.324 144.497L183.784 144.404C183.784 144.404 183.397 144.175 184.172 144.023C184.946 143.87 194.964 142.527 194.964 142.527L195.324 144.497Z" fill="#407BFF"/>
<path d="M195.325 144.497L184.06 144.372C184.06 144.372 183.672 144.137 184.447 143.99C185.222 143.842 194.965 142.527 194.965 142.527L195.325 144.497Z" fill="#407BFF"/>
<path opacity="0.2" d="M195.325 144.497L184.06 144.372C184.06 144.372 183.672 144.137 184.447 143.99C185.222 143.842 194.965 142.527 194.965 142.527L195.325 144.497Z" fill="white"/>
<path d="M195.319 144.06L215.462 141.387C215.812 141.332 216.131 141.151 216.359 140.875C216.586 140.6 216.707 140.251 216.7 139.891L216.258 129.425C216.253 129.256 216.213 129.091 216.14 128.939C216.068 128.787 215.964 128.652 215.837 128.543C215.709 128.435 215.561 128.354 215.401 128.308C215.241 128.262 215.073 128.25 214.908 128.274L194.765 130.964C194.414 131.018 194.095 131.201 193.867 131.477C193.639 131.753 193.519 132.105 193.528 132.465L193.969 142.925C193.976 143.093 194.017 143.257 194.09 143.408C194.163 143.558 194.267 143.691 194.395 143.799C194.522 143.906 194.67 143.984 194.829 144.029C194.989 144.074 195.156 144.085 195.319 144.06Z" fill="#407BFF"/>
<path opacity="0.4" d="M195.319 144.06L215.462 141.387C215.812 141.332 216.131 141.151 216.359 140.875C216.586 140.6 216.707 140.251 216.7 139.891L216.258 129.425C216.253 129.256 216.213 129.091 216.14 128.939C216.068 128.787 215.964 128.652 215.837 128.543C215.709 128.435 215.561 128.354 215.401 128.308C215.241 128.262 215.073 128.25 214.908 128.274L194.765 130.964C194.414 131.018 194.095 131.201 193.867 131.477C193.639 131.753 193.519 132.105 193.528 132.465L193.969 142.925C193.976 143.093 194.017 143.257 194.09 143.408C194.163 143.558 194.267 143.691 194.395 143.799C194.522 143.906 194.67 143.984 194.829 144.029C194.989 144.074 195.156 144.085 195.319 144.06Z" fill="black"/>
<path d="M195.905 143.951L216.048 141.283C216.399 141.228 216.717 141.045 216.945 140.769C217.173 140.493 217.294 140.142 217.285 139.782L216.844 129.327C216.84 129.158 216.8 128.991 216.728 128.839C216.656 128.686 216.552 128.551 216.425 128.442C216.297 128.332 216.148 128.252 215.988 128.205C215.828 128.158 215.659 128.146 215.494 128.17L195.351 130.844C195.001 130.897 194.681 131.079 194.453 131.354C194.225 131.629 194.105 131.98 194.114 132.339L194.555 142.805C194.56 142.974 194.6 143.14 194.673 143.291C194.745 143.443 194.849 143.578 194.977 143.686C195.104 143.794 195.253 143.874 195.413 143.919C195.573 143.965 195.741 143.976 195.905 143.951Z" fill="#407BFF"/>
<path opacity="0.2" d="M195.905 143.951L216.048 141.283C216.399 141.228 216.717 141.045 216.945 140.769C217.173 140.493 217.294 140.142 217.285 139.782L216.844 129.327C216.84 129.158 216.8 128.991 216.728 128.839C216.656 128.686 216.552 128.551 216.425 128.442C216.297 128.332 216.148 128.252 215.988 128.205C215.828 128.158 215.659 128.146 215.494 128.17L195.351 130.844C195.001 130.897 194.681 131.079 194.453 131.354C194.225 131.629 194.105 131.98 194.114 132.339L194.555 142.805C194.56 142.974 194.6 143.14 194.673 143.291C194.745 143.443 194.849 143.578 194.977 143.686C195.104 143.794 195.253 143.874 195.413 143.919C195.573 143.965 195.741 143.976 195.905 143.951Z" fill="white"/>
<path d="M187.39 119.81C185.189 119.341 182.887 121.496 182.246 124.612C181.606 127.728 182.87 130.642 185.071 131.106C187.271 131.57 189.579 129.42 190.22 126.298C190.86 123.177 189.595 120.274 187.39 119.81ZM185.491 130.577C184.086 130.282 183.414 127.777 183.984 124.983C184.554 122.189 186.136 120.165 187.567 120.46C188.998 120.754 189.649 123.264 189.079 126.058C188.509 128.852 186.9 130.871 185.491 130.577Z" fill="#263238"/>
<path opacity="0.5" d="M189.074 126.053C188.503 128.847 186.922 130.871 185.496 130.571C184.07 130.271 183.414 127.772 183.984 124.978C184.555 122.184 186.136 120.16 187.567 120.454C188.998 120.749 189.649 123.265 189.074 126.053Z" fill="white"/>
<path d="M184.339 130.845L181.978 138.397C181.978 138.397 182.101 139.33 183.183 138.866C184.264 138.402 185.055 131.107 185.055 131.107L184.339 130.845Z" fill="#263238"/>
<path d="M181.977 132.907L183.64 132.361V136.547C183.64 136.547 180.03 137.534 179.75 135.843L180.186 134.915C180.541 134.102 181.073 133.147 181.977 132.907Z" fill="#FF8B7B"/>
<path d="M186.189 133.436L185.77 135.799L183.623 136.541L183.645 132.355L186.189 133.436Z" fill="#FF8B7B"/>
<path d="M202.831 111.768L202.814 111.774L202.793 111.768L202.814 111.762L202.831 111.768Z" fill="#F0F0F0"/>
<path d="M78.9372 64.1454C79.1039 64.1127 79.2869 64.2928 79.3407 64.5492C79.3945 64.8057 79.3084 65.0567 79.1362 65.0949C78.9641 65.1331 78.7865 64.9476 78.7327 64.6857C78.6789 64.4237 78.765 64.1782 78.9372 64.1454Z" fill="#263238"/>
<path d="M79.4657 67.5993C79.6872 67.6084 79.9079 67.5682 80.1124 67.4814C80.3169 67.3947 80.5001 67.2636 80.6493 67.0973C79.995 66.5261 79.4228 65.8649 78.9492 65.1328L79.4657 67.5993Z" fill="#B74D3C"/>
<path d="M77.6039 63.4084C77.7274 63.2555 77.8851 63.1347 78.0638 63.0559C78.2425 62.9772 78.4371 62.9427 78.6315 62.9554H78.6853C78.7267 62.9554 78.7664 62.9388 78.7956 62.9091C78.8249 62.8794 78.8413 62.8392 78.8413 62.7972C78.8413 62.7552 78.8249 62.715 78.7956 62.6853C78.7664 62.6556 78.7267 62.6389 78.6853 62.6389C78.441 62.6168 78.1951 62.6549 77.9684 62.7499C77.7417 62.8449 77.541 62.994 77.3834 63.1846C77.3601 63.2141 77.3469 63.2505 77.3457 63.2883C77.347 63.3304 77.3636 63.3705 77.3925 63.4008C77.4213 63.431 77.4603 63.4493 77.5017 63.452C77.5393 63.4479 77.5748 63.4327 77.6039 63.4084Z" fill="#263238"/>
<path d="M75.8874 79.3312C71.4542 79.3803 70.7764 76.9357 70.7764 76.9357C72.0945 75.626 72.159 73.225 71.8793 71.0859C72.2322 71.5948 72.68 72.0286 73.1974 72.3628C73.6645 72.6854 74.1933 72.9047 74.7495 73.0062C75.3057 73.1077 75.8767 73.0893 76.4254 72.9522C76.4429 72.9576 76.4616 72.9576 76.4792 72.9522C76.4766 72.9958 76.4766 73.0395 76.4792 73.0831C76.2156 74.7966 76.4523 76.6301 78.2223 77.1703C78.2169 77.1539 80.7724 79.2767 75.8874 79.3312Z" fill="#B25B52"/>
<path d="M76.6201 72.3027C76.5717 72.51 76.5286 72.7174 76.4963 72.9357C76.4788 72.9412 76.4601 72.9412 76.4425 72.9357C75.8938 73.0728 75.3228 73.0912 74.7667 72.9897C74.2105 72.8882 73.6816 72.669 73.2145 72.3463C72.6972 72.0121 72.2494 71.5783 71.8964 71.0694C71.8265 70.5238 71.7297 69.9781 71.6328 69.5088L76.4748 72.1881L76.6201 72.3027Z" fill="#B25B52"/>
<path d="M69.4258 77.3456C69.4258 77.3456 70.1252 75.1629 71.185 74.459C72.2449 73.755 76.8825 74.4862 77.6088 74.7755C78.3351 75.0647 79.0721 76.7617 79.0721 76.7617L69.4258 77.3456Z" fill="#407BFF"/>
<path d="M66.9887 84.2865C67.6147 84.3804 68.2525 84.2274 68.7708 83.8591C69.2891 83.4908 69.6486 82.935 69.7753 82.3061C69.9021 81.6772 69.7865 81.0229 69.4523 80.4778C69.1181 79.9327 68.5908 79.5382 67.9786 79.3753C65.988 78.9388 63.9382 78.4258 61.9422 77.9074C59.9462 77.389 59.2522 77.3617 57.3746 76.696C56.8958 76.5378 56.4331 76.3522 55.9758 76.1503L55.723 76.0521C55.6817 76.0405 55.642 76.0241 55.6046 76.003C55.4824 75.9345 55.3671 75.854 55.2603 75.7629C54.6308 75.179 50.4183 69.6185 49.6167 67.7304L49.5898 67.6704C49.474 67.3906 49.2619 67.1631 48.993 67.0304C48.724 66.8976 48.4166 66.8685 48.1282 66.9487C47.8397 67.0289 47.5898 67.2127 47.4252 67.466C47.2605 67.7193 47.1923 68.0247 47.2333 68.3252C47.4862 70.6171 51.6288 78.3549 52.4734 79.3426C52.7446 79.6385 53.0417 79.9089 53.3611 80.1502C53.6742 80.3866 54.0094 80.5913 54.3618 80.7613C54.8998 81.0178 58.4829 82.1092 60.6134 82.7367C62.7438 83.3643 64.8151 83.8772 67.0102 84.2974L66.9887 84.2865Z" fill="#B25B52"/>
<path d="M49.2989 67.0591V67.4956C49.3144 67.7045 49.2659 67.9131 49.1599 68.0928C49.054 68.2726 48.8958 68.4147 48.7071 68.4997C47.9489 68.8039 47.1273 68.909 46.3184 68.8053L46.9801 65.04L48.8039 66.2405C48.9448 66.3271 49.0632 66.4465 49.1493 66.5889C49.2354 66.7313 49.2867 66.8925 49.2989 67.0591Z" fill="#B25B52"/>
<path d="M46.9975 65.0292L46.3357 68.7944L43.8663 67.3156L43.8125 63.916L46.9975 65.0292Z" fill="#B25B52"/>
<path d="M67.7594 76.6465C66.8072 76.7884 63.0412 77.6069 59.9154 76.712L59.7109 83.1892C59.7109 83.1892 65.1394 85.9177 67.598 83.9477C70.0567 81.9778 71.6007 78.4254 67.7594 76.6465Z" fill="#263238"/>
<path d="M60.7648 84.8863L58.3115 83.7677L59.0163 76.0244L61.3028 76.4446L60.7648 84.8863Z" fill="#407BFF"/>
<path d="M80.5199 76.3959C79.8044 76.2759 78.9974 76.1667 78.1796 76.0958C75.7071 75.9812 73.2301 76.0085 70.7606 76.1776L69.1466 76.3359C66.5642 76.5269 63.9657 78.8024 64.4821 81.378C67.3497 95.5658 66.5319 103.467 66.2683 105.776L83.7156 105.585C85.5233 91.0148 85.023 83.6699 84.3182 80.1011C84.1328 79.1645 83.6696 78.3078 82.9908 77.6456C82.3119 76.9834 81.4498 76.5474 80.5199 76.3959Z" fill="#263238"/>
<path opacity="0.2" d="M84.275 100.461L83.737 105.601C84.8507 96.4772 85.0767 90.191 84.9153 85.8855L78.2871 81.3945C81.2622 90.9167 82.236 93.9234 84.275 100.461Z" fill="black"/>
<path d="M79.7942 68.6302C79.7831 69.3995 79.5799 70.1534 79.2035 70.8214C78.8272 71.4894 78.29 72.0497 77.6422 72.45H77.6046C77.2733 72.6645 76.9099 72.823 76.5286 72.9193C76.511 72.9248 76.4923 72.9248 76.4748 72.9193C75.9261 73.0565 75.3551 73.0749 74.7989 72.9733C74.2427 72.8718 73.7139 72.6526 73.2468 72.33C72.7294 71.9957 72.2816 71.5619 71.9287 71.0531C71.0571 69.8471 70.6967 68.2319 70.0726 65.9618C69.8839 65.295 69.8471 64.5934 69.965 63.91C70.1745 62.7387 70.8339 61.6997 71.7983 61.0213C72.7627 60.3429 73.9533 60.0807 75.1083 60.2922C78.4277 60.9306 79.8642 65.5962 79.7942 68.6302Z" fill="#B25B52"/>
<path opacity="0.2" d="M77.6033 72.467C77.2721 72.6814 76.9087 72.8399 76.5273 72.9363C76.5273 72.9363 76.6511 70.9336 76.6511 70.9336C76.6511 70.9336 77.3559 72.4724 77.6033 72.467Z" fill="black"/>
<path d="M77.8564 66.9005C77.7941 67.602 77.5853 68.2821 77.244 68.8955C76.9026 69.5089 76.4365 70.0416 75.8766 70.4583C75.7357 70.5676 75.5747 70.6473 75.4032 70.693C74.8652 70.8239 74.3272 70.3328 74.0528 69.8035C73.7561 69.1024 73.6095 68.3454 73.6224 67.5826C73.5578 65.7873 73.7784 63.8228 75.0212 62.5459C75.2958 62.2233 75.6798 62.0169 76.0972 61.9675C77.6789 61.9074 77.9694 65.8746 77.8564 66.9005Z" fill="#263238"/>
<path d="M70.9052 58.8465C70.5675 58.7328 70.2035 58.7267 69.8623 58.829C69.521 58.9312 69.2188 59.137 68.9962 59.4186C68.7736 59.7002 68.6413 60.0442 68.6171 60.4043C68.5929 60.7644 68.678 61.1234 68.8608 61.433C67.4567 61.875 66.1332 62.9446 65.8534 64.407C65.5737 65.8694 66.768 67.5774 68.2314 67.4083C68.0109 67.5871 67.8587 67.8381 67.8007 68.1183C67.7428 68.3985 67.7828 68.6904 67.9138 68.944C68.0449 69.1975 68.2588 69.397 68.519 69.5081C68.7791 69.6191 69.0693 69.635 69.3397 69.5528C70.4802 71.4736 74.031 71.8938 75.7472 70.475C76.1507 70.1421 75.8602 69.7929 75.9463 69.2745C75.9976 69.0141 75.9639 68.7439 75.8504 68.5046C75.7368 68.2654 75.5495 68.0702 75.3168 67.9485L75.6881 66.6443L74.6121 65.422C75.5912 64.6526 76.6188 63.8231 77.0438 62.6444C77.4688 61.4658 76.9793 59.856 75.7741 59.5668C75.9669 59.5182 76.1464 59.4265 76.2996 59.2984C76.4528 59.1702 76.5757 59.0088 76.6593 58.8261C76.7429 58.6434 76.7851 58.4441 76.7827 58.2427C76.7804 58.0413 76.7335 57.843 76.6457 57.6623C76.5347 57.4978 76.3898 57.3597 76.2209 57.2576C76.0521 57.1555 75.8634 57.0918 75.6679 57.0711C75.4724 57.0503 75.2748 57.0729 75.0887 57.1373C74.9027 57.2017 74.7327 57.3064 74.5905 57.4441C74.2516 56.9693 73.9772 56.4509 73.4016 56.2927C71.1473 55.6597 70.5286 58.1153 70.9052 58.8465Z" fill="#263238"/>
<path d="M77.0656 64.5219C78.0018 64.8002 78.486 66.1917 78.5236 67.0812C78.572 68.058 77.9264 68.6746 77.0871 68.0198C76.4523 67.5168 76 66.8144 75.8013 66.0226C75.5538 65.0676 76.1188 64.2491 77.0656 64.5219Z" fill="#B25B52"/>
<path d="M75.409 189.713C75.392 189.711 75.3761 189.703 75.3635 189.692C75.3509 189.68 75.3424 189.664 75.3391 189.647C75.3363 189.631 75.3384 189.613 75.3451 189.598C75.3518 189.582 75.3628 189.569 75.3767 189.56C75.4413 189.533 76.6356 188.807 77.2167 188.954C77.2722 188.965 77.3249 188.988 77.3712 189.021C77.4175 189.054 77.4565 189.096 77.4857 189.145C77.5233 189.198 77.5435 189.261 77.5435 189.325C77.5435 189.39 77.5233 189.453 77.4857 189.505C77.3458 189.713 76.9477 189.784 76.4742 189.795C76.1175 189.8 75.761 189.772 75.409 189.713ZM77.023 189.091C76.5443 189.159 76.0836 189.322 75.6672 189.571C76.3182 189.647 77.1952 189.625 77.3512 189.396C77.3835 189.364 77.405 189.314 77.3512 189.211C77.3331 189.181 77.3089 189.155 77.2801 189.135C77.2513 189.115 77.2187 189.102 77.1844 189.096C77.1327 189.088 77.0801 189.088 77.0284 189.096L77.023 189.091Z" fill="#407BFF"/>
<path d="M75.377 189.696C75.3645 189.687 75.3541 189.676 75.3466 189.663C75.3391 189.65 75.3348 189.635 75.334 189.619C75.3493 189.121 75.5272 188.641 75.8397 188.255C75.9027 188.2 75.9763 188.158 76.0559 188.133C76.1355 188.107 76.2194 188.099 76.3024 188.108C76.5283 188.108 76.609 188.239 76.6144 188.332C76.6897 188.741 75.8827 189.505 75.4631 189.701H75.4523C75.4401 189.706 75.4271 189.707 75.4141 189.706C75.4012 189.705 75.3886 189.702 75.377 189.696ZM76.2486 188.266C76.1414 188.271 76.0398 188.315 75.9634 188.392C75.7119 188.702 75.5598 189.083 75.5277 189.483C75.9527 189.21 76.4961 188.605 76.453 188.364C76.453 188.364 76.453 188.272 76.2862 188.272H76.2432L76.2486 188.266Z" fill="#407BFF"/>
<path d="M71.7566 181.598L75.2052 181.532L75.0814 189.625L71.6113 189.696L71.7566 181.598Z" fill="#B25B52"/>
<path d="M75.8933 189.478C78.2821 190.897 79.0137 190.951 81.7522 191.502C82.3493 191.622 82.005 193.096 80.5739 193.139C78.2121 193.183 77.9593 193.074 75.9471 193.139C74.2202 193.172 72.2403 193.292 70.8684 193.341H70.7447C70.6798 193.328 70.6183 193.301 70.5637 193.263C70.509 193.225 70.4623 193.177 70.4263 193.121C70.3902 193.064 70.3656 193.001 70.3538 192.935C70.3419 192.869 70.3431 192.801 70.3573 192.736L70.9653 189.592C70.9797 189.525 71.0161 189.463 71.0688 189.419C71.1214 189.374 71.1873 189.349 71.2558 189.347L75.0487 189.271C75.3436 189.26 75.6358 189.332 75.8933 189.478Z" fill="#263238"/>
<path opacity="0.2" d="M71.7506 181.604L71.6807 185.762L75.1454 185.696L75.2046 181.538L71.7506 181.604Z" fill="black"/>
<path d="M46.4422 190.242C46.4363 190.257 46.426 190.27 46.4125 190.28C46.3991 190.289 46.3831 190.294 46.3668 190.294C46.3505 190.294 46.3346 190.289 46.3211 190.28C46.3077 190.27 46.2974 190.257 46.2915 190.242C46.2592 190.182 45.5706 188.965 45.7535 188.381C45.7796 188.27 45.8471 188.174 45.9418 188.114C45.9953 188.075 46.0592 188.055 46.1247 188.055C46.1902 188.055 46.2541 188.075 46.3077 188.114C46.5067 188.255 46.5659 188.659 46.5659 189.139C46.5581 189.51 46.5166 189.879 46.4422 190.242ZM45.8665 188.605C45.9202 189.085 46.0664 189.551 46.2969 189.974C46.3884 189.319 46.383 188.435 46.157 188.272C46.157 188.239 46.0817 188.217 45.9795 188.272C45.9485 188.289 45.9218 188.313 45.9014 188.343C45.8809 188.372 45.8671 188.406 45.8611 188.441C45.8535 188.493 45.8535 188.547 45.8611 188.599L45.8665 188.605Z" fill="#407BFF"/>
<path d="M46.4378 190.275C46.4297 190.287 46.4183 190.296 46.4049 190.302C46.3915 190.308 46.3768 190.31 46.3625 190.307C45.8697 190.283 45.3995 190.091 45.0282 189.762C44.9729 189.699 44.9317 189.626 44.9075 189.545C44.8833 189.465 44.8768 189.381 44.8884 189.298C44.8884 189.069 45.0229 188.987 45.1143 188.987C45.5124 188.916 46.2603 189.745 46.4486 190.165V190.198C46.4536 190.211 46.4553 190.224 46.4534 190.238C46.4515 190.251 46.4461 190.264 46.4378 190.275ZM45.0336 189.38C45.0397 189.487 45.0814 189.589 45.152 189.669C45.4563 189.927 45.8323 190.084 46.228 190.116C45.9697 189.685 45.3833 189.123 45.152 189.167C45.152 189.167 45.0605 189.167 45.0605 189.33V189.38H45.0336Z" fill="#407BFF"/>
<path d="M48.235 182.046L51.6029 182.221L49.7844 190.417L46.3896 190.242L48.235 182.046Z" fill="#B25B52"/>
<path d="M45.571 189.805C44.6618 190.897 44.1829 191.492 41.5306 192.392C40.9442 192.588 41.4714 194.002 42.8971 193.843C45.2482 193.587 43.9731 193.62 45.953 193.396C47.6692 193.21 49.649 193.074 51.0155 192.949C51.0619 192.956 51.1091 192.956 51.1554 192.949C51.2823 192.905 51.3871 192.812 51.4466 192.69C51.5061 192.569 51.5155 192.428 51.4728 192.299L50.4883 189.265C50.4675 189.199 50.4244 189.141 50.3664 189.103C50.3085 189.066 50.2393 189.049 50.1709 189.058L46.4049 189.467C46.0939 189.464 45.7943 189.586 45.571 189.805Z" fill="#263238"/>
<path opacity="0.2" d="M48.2286 182.051L47.2871 186.258L50.6657 186.438L51.6019 182.22L48.2286 182.051Z" fill="black"/>
<path d="M66.2523 105.792C65.0173 107.878 63.9918 110.085 63.1911 112.378C61.448 117.491 62.1581 120.133 61.6094 123.576C60.6463 129.649 59.113 134.32 58.0639 138.931C54.7929 153.365 46.5723 183.852 46.5723 183.852L52.6839 185.08C52.6839 185.08 64.563 149.61 67.5543 139.275C70.2443 129.971 77.1576 105.541 77.1576 105.541L66.2523 105.792Z" fill="#407BFF"/>
<path d="M66.2523 105.792C65.0173 107.878 63.9918 110.085 63.1911 112.378C61.448 117.491 62.1581 120.133 61.6094 123.576C60.6463 129.649 59.113 134.32 58.0639 138.931C54.7929 153.365 46.5723 183.852 46.5723 183.852L52.6839 185.08C52.6839 185.08 64.563 149.61 67.5543 139.275C70.2443 129.971 77.1576 105.541 77.1576 105.541L66.2523 105.792Z" fill="#407BFF"/>
<path d="M45.8623 182.723V184.905L53.2114 185.555C53.2114 185.555 53.8086 183.143 53.7817 183.143L45.8623 182.723Z" fill="#407BFF"/>
<path opacity="0.3" d="M73.9621 116.777C71.8101 124.449 69.0287 134.157 67.5546 139.248C67.4846 139.494 67.4093 139.75 67.334 140.023C67.7805 131.554 69.1255 117.355 73.3004 116.744C73.5207 116.706 73.7466 116.717 73.9621 116.777Z" fill="black"/>
<path d="M71.8627 105.644C71.8627 105.644 70.5608 128.967 70.5823 139.984C70.6092 150.248 70.7491 184.976 70.7491 184.976L76.6187 184.861C76.6187 184.861 80.0081 149.435 80.8312 138.991C81.6167 129.103 83.6987 105.601 83.6987 105.601L71.8627 105.644Z" fill="#407BFF"/>
<path d="M71.8627 105.644C71.8627 105.644 70.5608 128.967 70.5823 139.984C70.6092 150.248 70.7491 184.976 70.7491 184.976L76.6187 184.861C76.6187 184.861 80.0081 149.435 80.8312 138.991C81.6167 129.103 83.6987 105.601 83.6987 105.601L71.8627 105.644Z" fill="#407BFF"/>
<path d="M69.8398 182.908L70.0819 185.091L77.2158 184.949C77.2158 184.949 77.501 182.499 77.4741 182.499L69.8398 182.908Z" fill="#407BFF"/>
<path d="M93.3242 70.7965L95.105 69.5469C95.5139 71.5113 97.3538 73.0447 98.7526 73.956C99.4198 74.3926 99.6672 75.3857 99.1938 75.7186L98.0371 76.5371C96.6329 77.5193 93.3242 70.7965 93.3242 70.7965Z" fill="#407BFF"/>
<path d="M92.6196 71.2933L96.6976 68.423C97.3351 67.9743 97.7712 67.2875 97.9104 66.5132C98.0495 65.7389 97.8804 64.9403 97.4401 64.2922C96.9957 63.6465 96.3178 63.205 95.5539 63.0639C94.7901 62.9229 94.0022 63.0937 93.362 63.5392L89.284 66.4095C88.6474 66.8591 88.2124 67.5462 88.0742 68.3205C87.9361 69.0947 88.1061 69.8929 88.5469 70.5403C88.9894 71.1869 89.6665 71.6292 90.4299 71.7704C91.1932 71.9115 91.9807 71.74 92.6196 71.2933Z" fill="#407BFF"/>
<path opacity="0.3" d="M92.6196 71.2933L96.6976 68.423C97.3351 67.9743 97.7712 67.2875 97.9104 66.5132C98.0495 65.7389 97.8804 64.9403 97.4401 64.2922C96.9957 63.6465 96.3178 63.205 95.5539 63.0639C94.7901 62.9229 94.0022 63.0937 93.362 63.5392L89.284 66.4095C88.6474 66.8591 88.2124 67.5462 88.0742 68.3205C87.9361 69.0947 88.1061 69.8929 88.5469 70.5403C88.9894 71.1869 89.6665 71.6292 90.4299 71.7704C91.1932 71.9115 91.9807 71.74 92.6196 71.2933Z" fill="black"/>
<path d="M105.166 66.8244L97.5157 70.0985C96.9131 70.5241 91.5008 62.6062 92.1357 62.1806L97.8385 56.0635L105.166 66.8244Z" fill="#407BFF"/>
<path d="M100.931 61.8369C102.965 64.8054 104.859 67.0427 105.165 66.8245C105.472 66.6062 104.089 64.0251 102.045 61.0511C100 58.0771 98.1174 55.8453 97.8107 56.0636C97.5041 56.2818 98.9029 58.8629 100.931 61.8369Z" fill="#407BFF"/>
<path opacity="0.3" d="M100.931 61.8369C102.965 64.8054 104.859 67.0427 105.165 66.8245C105.472 66.6062 104.089 64.0251 102.045 61.0511C100 58.0771 98.1174 55.8453 97.8107 56.0636C97.5041 56.2818 98.9029 58.8629 100.931 61.8369Z" fill="black"/>
<path d="M102.778 60.8706C102.283 60.1448 101.239 59.8884 100.9 60.1285C100.561 60.3686 100.685 61.1544 101.18 61.8801C101.675 62.6059 102.358 62.9715 102.697 62.7587C102.923 62.5015 103.054 62.1732 103.069 61.8292C103.083 61.4852 102.981 61.1466 102.778 60.8706Z" fill="#407BFF"/>
<path d="M92.7539 74.3991L93.2919 72.8602C93.6291 71.9115 94.2498 71.0932 95.0673 70.5192L96.2079 69.7171C96.3152 69.6429 96.447 69.6144 96.5748 69.6379C96.7027 69.6614 96.8163 69.7349 96.8911 69.8426C97.6645 70.8987 98.1806 72.1253 98.3975 73.4223C98.412 73.5835 98.3849 73.7457 98.3189 73.893C98.2528 74.0403 98.1502 74.1677 98.0209 74.2626L95.5676 75.9324C95.1803 76.238 94.723 76.3908 94.3733 76.0416L92.7539 74.3991Z" fill="#B25B52"/>
<path d="M95.5034 74.8464L93.7442 82.3332C93.6904 82.5787 93.6258 82.8134 93.5666 83.048C92.0817 88.6358 89.2196 91.6043 87.9069 90.9168C86.5941 90.2292 83.7051 86.9551 83.7051 86.9551L86.9707 84.3413L87.9069 85.138L93.0179 73.9405L93.7442 72.3799C93.7442 72.3799 96.036 72.3635 95.5034 74.8464Z" fill="#B25B52"/>
<path d="M93.7439 82.333L93.5771 83.0533C93.6202 82.8132 93.6847 82.5786 93.7439 82.333Z" fill="#B25B52"/>
<path d="M84.0597 77.9613C87.0509 80.4442 88.9017 85.7264 88.9017 85.7264L84.0597 88.8423C84.0597 88.8423 77.7113 84.2749 78.2062 79.9367C78.5613 76.6135 80.3636 74.8837 84.0597 77.9613Z" fill="#263238"/>
<path d="M81.2617 87.7838L82.9726 89.6282L89.633 85.2846L88.6 83.1455L81.2617 87.7838Z" fill="#407BFF"/>
<path d="M106.274 58.5193L109.745 50.083L112.504 51.6273L106.274 58.5193Z" fill="#263238"/>
<path d="M106.629 61.5533L115.63 61.0349L115.102 57.8809L106.629 61.5533Z" fill="#263238"/>
<path d="M108.879 58.6016L115.76 50.4873L118.482 53.5213L108.879 58.6016Z" fill="#263238"/>
<path d="M40.3691 56.4678V63.8563L47.2017 67.5233V59.5072L40.3691 56.4678Z" fill="#407BFF"/>
<path opacity="0.1" d="M40.3691 56.4678V63.8563L47.2017 67.5233V59.5072L40.3691 56.4678Z" fill="black"/>
<path d="M54.0284 56.4678V63.8563L47.2012 67.5233V59.5072L54.0284 56.4678Z" fill="#407BFF"/>
<path opacity="0.2" d="M54.0284 56.4678V63.8563L47.2012 67.5233V59.5072L54.0284 56.4678Z" fill="black"/>
<path d="M40.3691 56.4678L47.2017 59.5073L54.029 56.4678L47.2017 52.9863L40.3691 56.4678Z" fill="#407BFF"/>
<path d="M50.2578 58.1424V62.7316L50.6129 62.1313L50.8281 62.4533L51.0541 61.9349L51.28 62.2568V57.6895L50.2578 58.1424Z" fill="#263238"/>
<path d="M50.2586 58.1428L43.2969 54.9778L44.4213 54.3994L51.2808 57.6899L50.2586 58.1428Z" fill="#263238"/>
<path d="M150.574 190.897H138.028C138.028 190.029 139.642 189.26 141.891 188.96V183.503H146.706V188.96C148.977 189.271 150.574 190.024 150.574 190.897Z" fill="#407BFF"/>
<path opacity="0.4" d="M150.574 190.897H138.028C138.028 190.029 139.642 189.26 141.891 188.96V183.503H146.706V188.96C148.977 189.271 150.574 190.024 150.574 190.897Z" fill="black"/>
<path d="M164.767 162.832H123.997V185.069H164.767V162.832Z" fill="#407BFF"/>
<path opacity="0.2" d="M164.767 162.832H123.997V185.069H164.767V162.832Z" fill="black"/>
<path opacity="0.2" d="M163.659 163.847H124.944V182.536H163.659V163.847Z" fill="black"/>
<path opacity="0.2" d="M146.706 185.068H141.891V186.247H146.706V185.068Z" fill="black"/>
<path d="M141.891 169.909V177.991L148.965 173.947L141.891 169.909Z" fill="white"/>
<path d="M121.496 159.706C121.469 159.98 121.345 160.234 121.147 160.423C120.949 160.611 120.691 160.721 120.42 160.731H113.264C113.135 160.735 113.006 160.71 112.887 160.658C112.767 160.606 112.66 160.529 112.573 160.432C112.486 160.335 112.42 160.219 112.381 160.094C112.341 159.969 112.329 159.836 112.344 159.706L112.436 158.614H121.614L121.496 159.706Z" fill="#407BFF"/>
<path d="M107.249 161.009L104.505 192.752C104.463 193.141 104.503 193.535 104.623 193.907C104.743 194.279 104.939 194.621 105.199 194.91C105.459 195.199 105.777 195.429 106.132 195.583C106.486 195.738 106.869 195.815 107.255 195.808H120.28C121.099 195.792 121.885 195.473 122.489 194.91C123.093 194.347 123.472 193.579 123.556 192.752L126.294 161.009C126.337 160.62 126.296 160.227 126.177 159.855C126.057 159.482 125.861 159.14 125.601 158.851C125.341 158.562 125.023 158.333 124.668 158.178C124.314 158.023 123.931 157.947 123.545 157.954H110.52C109.701 157.971 108.917 158.291 108.314 158.853C107.712 159.416 107.333 160.183 107.249 161.009Z" fill="#407BFF"/>
<g opacity="0.4">
<path d="M121.496 159.706C121.469 159.98 121.345 160.234 121.147 160.423C120.949 160.611 120.691 160.721 120.42 160.731H113.264C113.135 160.735 113.006 160.71 112.887 160.658C112.767 160.606 112.66 160.529 112.573 160.432C112.486 160.335 112.42 160.219 112.381 160.094C112.341 159.969 112.329 159.836 112.344 159.706L112.436 158.614H121.614L121.496 159.706Z" fill="black"/>
<path d="M107.249 161.009L104.505 192.752C104.463 193.141 104.503 193.535 104.623 193.907C104.743 194.279 104.939 194.621 105.199 194.91C105.459 195.199 105.777 195.429 106.132 195.583C106.486 195.738 106.869 195.815 107.255 195.808H120.28C121.099 195.792 121.885 195.473 122.489 194.91C123.093 194.347 123.472 193.579 123.556 192.752L126.294 161.009C126.337 160.62 126.296 160.227 126.177 159.855C126.057 159.482 125.861 159.14 125.601 158.851C125.341 158.562 125.023 158.333 124.668 158.178C124.314 158.023 123.931 157.947 123.545 157.954H110.52C109.701 157.971 108.917 158.291 108.314 158.853C107.712 159.416 107.333 160.183 107.249 161.009Z" fill="#407BFF"/>
</g>
<path d="M109.664 158.608H122.689C122.992 158.607 123.293 158.67 123.57 158.794C123.847 158.918 124.096 159.1 124.299 159.328C124.502 159.557 124.656 159.826 124.749 160.118C124.842 160.411 124.874 160.72 124.841 161.026L122.108 192.768C122.035 193.42 121.732 194.023 121.256 194.467C120.78 194.911 120.162 195.166 119.515 195.186H106.506C106.203 195.187 105.903 195.124 105.626 195C105.348 194.876 105.1 194.694 104.897 194.466C104.693 194.238 104.54 193.968 104.447 193.676C104.353 193.383 104.322 193.074 104.354 192.768L107.093 161.026C107.158 160.374 107.455 159.77 107.929 159.325C108.402 158.88 109.019 158.625 109.664 158.608Z" fill="#407BFF"/>
<path opacity="0.3" d="M109.664 158.608H122.689C122.992 158.607 123.293 158.67 123.57 158.794C123.847 158.918 124.096 159.1 124.299 159.328C124.502 159.557 124.656 159.826 124.749 160.118C124.842 160.411 124.874 160.72 124.841 161.026L122.108 192.768C122.035 193.42 121.732 194.023 121.256 194.467C120.78 194.911 120.162 195.166 119.515 195.186H106.506C106.203 195.187 105.903 195.124 105.626 195C105.348 194.876 105.1 194.694 104.897 194.466C104.693 194.238 104.54 193.968 104.447 193.676C104.353 193.383 104.322 193.074 104.354 192.768L107.093 161.026C107.158 160.374 107.455 159.77 107.929 159.325C108.402 158.88 109.019 158.625 109.664 158.608Z" fill="white"/>
<path d="M106.442 161.026L103.703 192.768C103.662 193.157 103.703 193.551 103.823 193.922C103.943 194.294 104.139 194.636 104.399 194.925C104.659 195.214 104.976 195.443 105.33 195.598C105.684 195.753 106.067 195.83 106.452 195.824H119.477C120.297 195.807 121.082 195.488 121.685 194.925C122.289 194.362 122.669 193.595 122.754 192.768L125.487 161.026C125.529 160.637 125.489 160.243 125.369 159.871C125.249 159.499 125.053 159.157 124.793 158.868C124.533 158.579 124.215 158.349 123.861 158.194C123.506 158.04 123.123 157.963 122.738 157.97H109.718C108.898 157.986 108.112 158.305 107.509 158.868C106.905 159.431 106.525 160.199 106.442 161.026ZM107.071 161.026C107.137 160.371 107.437 159.763 107.915 159.318C108.393 158.872 109.015 158.62 109.664 158.609H122.689C122.992 158.607 123.292 158.67 123.57 158.794C123.847 158.918 124.096 159.1 124.299 159.329C124.502 159.557 124.655 159.826 124.749 160.118C124.842 160.411 124.874 160.72 124.841 161.026L122.108 192.768C122.035 193.42 121.732 194.023 121.256 194.467C120.78 194.911 120.161 195.166 119.515 195.186H106.506C106.203 195.188 105.903 195.124 105.625 195C105.348 194.876 105.1 194.694 104.896 194.466C104.693 194.238 104.54 193.968 104.446 193.676C104.353 193.383 104.321 193.074 104.354 192.768L107.071 161.026Z" fill="white"/>
<path d="M120.785 158.625C120.734 159.07 120.526 159.482 120.198 159.783C119.87 160.084 119.446 160.254 119.004 160.262H113.113C112.906 160.265 112.7 160.224 112.509 160.141C112.318 160.059 112.147 159.936 112.006 159.782C111.865 159.627 111.757 159.444 111.69 159.245C111.623 159.046 111.599 158.835 111.617 158.625H120.796H120.785Z" fill="white"/>
<path d="M114.378 178.204L111.855 177.702C112.334 180.038 111.048 182.613 109.956 184.25C109.418 185.047 109.633 186.253 110.3 186.389L111.947 186.717C113.937 187.126 114.378 178.204 114.378 178.204Z" fill="#407BFF"/>
<path d="M115.378 178.406L109.589 177.255C108.684 177.071 107.888 176.532 107.374 175.755C106.859 174.978 106.669 174.026 106.845 173.107C107.025 172.19 107.555 171.382 108.32 170.861C109.086 170.339 110.023 170.146 110.929 170.324L116.717 171.476C117.622 171.658 118.419 172.196 118.934 172.972C119.449 173.748 119.641 174.699 119.467 175.618C119.286 176.536 118.755 177.344 117.989 177.866C117.223 178.389 116.284 178.583 115.378 178.406Z" fill="#407BFF"/>
<path opacity="0.3" d="M115.378 178.406L109.589 177.255C108.684 177.071 107.888 176.532 107.374 175.755C106.859 174.978 106.669 174.026 106.845 173.107C107.025 172.19 107.555 171.382 108.32 170.861C109.086 170.339 110.023 170.146 110.929 170.324L116.717 171.476C117.622 171.658 118.419 172.196 118.934 172.972C119.449 173.748 119.641 174.699 119.467 175.618C119.286 176.536 118.755 177.344 117.989 177.866C117.223 178.389 116.284 178.583 115.378 178.406Z" fill="black"/>
<path d="M99.6211 179.6L109.488 179.469C110.343 179.638 112.517 168.403 111.64 168.234L102.553 164.332L99.6211 179.6Z" fill="#407BFF"/>
<path d="M101.885 172.125C101.073 176.338 100.056 179.688 99.62 179.601C99.1842 179.514 99.4909 176.027 100.309 171.809C101.126 167.59 102.138 164.245 102.574 164.333C103.009 164.42 102.703 167.907 101.885 172.125Z" fill="#407BFF"/>
<path opacity="0.3" d="M101.885 172.125C101.073 176.338 100.056 179.688 99.62 179.601C99.1842 179.514 99.4909 176.027 100.309 171.809C101.126 167.59 102.138 164.245 102.574 164.333C103.009 164.42 102.703 167.907 101.885 172.125Z" fill="black"/>
<path d="M99.4209 171.967C99.6199 170.935 100.637 170.155 101.121 170.248C101.605 170.34 101.836 171.257 101.659 172.289C101.481 173.32 100.906 174.078 100.422 173.986C99.9373 173.893 99.2218 172.982 99.4209 171.967Z" fill="#407BFF"/>
<path d="M116.955 180.954L115.632 179.53C114.817 178.662 113.757 178.071 112.598 177.838L110.984 177.516C110.832 177.487 110.675 177.519 110.546 177.606C110.418 177.693 110.327 177.827 110.295 177.98C110.101 178.957 109.816 180.976 110.338 182.608C110.396 182.791 110.5 182.956 110.641 183.085C110.782 183.215 110.954 183.304 111.14 183.344L114.599 183.977C115.164 184.119 115.734 184.065 115.949 183.513L116.955 180.954Z" fill="#FFC0BA"/>
<path d="M116.196 184.485L122.152 192.49L122.744 185.609L116.955 180.954C116.955 180.954 114.442 182.045 116.196 184.485Z" fill="#FFC0BA"/>
<path d="M96.7628 170.286L89.9087 164.344L88.1387 166.99L96.7628 170.286Z" fill="white"/>
<path d="M97.796 173.156L89.5377 176.812L88.6016 173.762L97.796 173.156Z" fill="white"/>
<path d="M94.4764 171.552L84.7279 167.459L83.6465 171.415L94.4764 171.552Z" fill="white"/>
<path d="M115.027 96.3572L113.273 105.71H115.468L118.54 98.2235C118.54 98.2235 118.32 95.9098 115.027 96.3572Z" fill="#407BFF"/>
<path d="M134.234 96.3572L135.988 105.71H133.793L130.721 98.2235C130.721 98.2235 130.941 95.9098 134.234 96.3572Z" fill="#407BFF"/>
<path opacity="0.3" d="M115.027 96.3572L113.273 105.71H115.468L118.54 98.2235C118.54 98.2235 118.32 95.9098 115.027 96.3572Z" fill="black"/>
<path opacity="0.3" d="M134.234 96.3572L135.988 105.71H133.793L130.721 98.2235C130.721 98.2235 130.941 95.9098 134.234 96.3572Z" fill="black"/>
<path d="M124.609 101.416C133.704 101.416 141.077 93.9372 141.077 84.7122C141.077 75.4872 133.704 68.0088 124.609 68.0088C115.514 68.0088 108.141 75.4872 108.141 84.7122C108.141 93.9372 115.514 101.416 124.609 101.416Z" fill="#407BFF"/>
<path d="M124.819 97.6175C131.847 97.6175 137.543 91.8396 137.543 84.7121C137.543 77.5846 131.847 71.8066 124.819 71.8066C117.792 71.8066 112.096 77.5846 112.096 84.7121C112.096 91.8396 117.792 97.6175 124.819 97.6175Z" fill="white"/>
<path d="M124.61 95.0797C130.255 95.0797 134.832 90.4378 134.832 84.7117C134.832 78.9857 130.255 74.3438 124.61 74.3438C118.964 74.3438 114.388 78.9857 114.388 84.7117C114.388 90.4378 118.964 95.0797 124.61 95.0797Z" fill="#407BFF"/>
<path d="M124.609 92.7225C128.971 92.7225 132.507 89.136 132.507 84.7118C132.507 80.2877 128.971 76.7012 124.609 76.7012C120.247 76.7012 116.711 80.2877 116.711 84.7118C116.711 89.136 120.247 92.7225 124.609 92.7225Z" fill="white"/>
<path d="M124.609 87.0258C125.869 87.0258 126.89 85.99 126.89 84.7121C126.89 83.4343 125.869 82.3984 124.609 82.3984C123.349 82.3984 122.328 83.4343 122.328 84.7121C122.328 85.99 123.349 87.0258 124.609 87.0258Z" fill="#407BFF"/>
<path d="M142.885 58.3174V62.5519L138.393 68.0087H138.388L137.543 64.7019L142.885 58.3174Z" fill="#407BFF"/>
<path d="M142.656 62.3611L124.375 84.5137L124.845 84.913L143.126 62.7604L142.656 62.3611Z" fill="#263238"/>
<path d="M146.608 62.6282L142.153 68.0086H138.393L142.885 62.5518L146.608 62.6282Z" fill="#407BFF"/>
<path opacity="0.2" d="M146.608 62.6282L142.153 68.0086H138.393L142.885 62.5518L146.608 62.6282Z" fill="black"/>
<path d="M147.006 86.7642L145.575 84.0358C145.575 84.0358 146.651 82.0331 147.991 81.9567C149.33 81.8803 150.681 83.0481 150.681 83.0481L152.365 82.3387L151.1 87.1625C151.1 87.1625 148.809 89.0834 147.006 86.7642Z" fill="#407BFF"/>
<path d="M158.105 96.9684C158.105 103.091 154.306 105.579 149.62 105.579C147.369 105.579 145.21 104.672 143.617 103.057C142.025 101.442 141.131 99.2521 141.131 96.9684C141.131 92.2155 144.929 86.1475 149.62 86.1475C149.62 86.1475 158.105 91.3642 158.105 96.9684Z" fill="#407BFF"/>
<path opacity="0.2" d="M158.105 96.9684C158.105 103.091 154.306 105.579 149.62 105.579C147.369 105.579 145.21 104.672 143.617 103.057C142.025 101.442 141.131 99.2521 141.131 96.9684C141.131 92.2155 144.929 86.1475 149.62 86.1475C149.62 86.1475 158.105 91.3642 158.105 96.9684Z" fill="black"/>
<path d="M152.477 97.9668C152.477 99.2001 151.498 100.03 149.964 100.15L149.76 101.17H148.845L149.045 100.15C148.292 100.097 147.566 99.8491 146.936 99.4293L147.554 98.2779C148.063 98.6508 148.661 98.8788 149.287 98.9381L149.599 97.3666C148.743 97.1046 147.807 96.7609 147.807 95.6368C147.807 94.3981 148.808 93.5632 150.368 93.454L150.567 92.4336H151.487L151.283 93.4649C151.879 93.5166 152.456 93.7031 152.972 94.0106L152.434 95.1675C152.024 94.8947 151.555 94.728 151.067 94.6818L150.745 96.3189C151.568 96.5862 152.477 96.8918 152.477 97.9668ZM149.852 96.0406L150.121 94.7036C149.583 94.8073 149.303 95.0911 149.292 95.4458C149.281 95.8005 149.523 95.9096 149.852 96.0406ZM150.992 98.2233C150.992 97.9505 150.782 97.7868 150.454 97.6776L150.207 98.9491C150.707 98.8181 150.992 98.5616 150.992 98.2233Z" fill="white"/>
</svg>
