<svg width="270" height="203" viewBox="0 0 270 203" fill="none" xmlns="http://www.w3.org/2000/svg">
<path d="M269.671 178.296H0.670898V178.432H269.671V178.296Z" fill="#EBEBEB"/>
<path d="M242.717 187.058H224.898V187.194H242.717V187.058Z" fill="#EBEBEB"/>
<path d="M178.868 188.539H174.192V188.675H178.868V188.539Z" fill="#EBEBEB"/>
<path d="M224.36 182.004H214.036V182.14H224.36V182.004Z" fill="#EBEBEB"/>
<path d="M52.1308 182.919H28.8945V183.055H52.1308V182.919Z" fill="#EBEBEB"/>
<path d="M60.3294 182.919H56.9238V183.055H60.3294V182.919Z" fill="#EBEBEB"/>
<path d="M121.802 185.218H71.4023V185.354H121.802V185.218Z" fill="#EBEBEB"/>
<path d="M128.177 154.007H24.2941C23.4803 154.006 22.7003 153.678 22.1254 153.095C21.5505 152.512 21.2275 151.722 21.2275 150.898V3.08233C21.2346 2.26329 21.5607 1.48016 22.1348 0.903034C22.709 0.325909 23.485 0.00140305 24.2941 0H128.177C128.991 0 129.773 0.327613 130.349 0.910768C130.925 1.49392 131.249 2.28485 131.249 3.10956V150.898C131.249 151.723 130.925 152.514 130.349 153.097C129.773 153.68 128.991 154.007 128.177 154.007ZM24.2941 0.108917C23.516 0.110359 22.7702 0.424264 22.2205 0.981731C21.6708 1.5392 21.362 2.29467 21.362 3.08233V150.898C21.362 151.686 21.6708 152.441 22.2205 152.999C22.7702 153.556 23.516 153.87 24.2941 153.871H128.177C128.955 153.87 129.702 153.556 130.252 152.999C130.803 152.442 131.113 151.686 131.114 150.898V3.08233C131.113 2.29417 130.803 1.53871 130.252 0.981398C129.702 0.424087 128.955 0.110356 128.177 0.108917H24.2941Z" fill="#EBEBEB"/>
<path d="M244.552 154.007H140.664C139.849 154.006 139.069 153.678 138.493 153.095C137.917 152.512 137.593 151.722 137.592 150.898V3.08233C137.6 2.2628 137.928 1.47967 138.503 0.902693C139.078 0.325719 139.854 0.00138775 140.664 0H244.552C245.36 0.00283427 246.134 0.327973 246.707 0.904945C247.28 1.48192 247.606 2.26423 247.613 3.08233V150.898C247.613 151.721 247.291 152.51 246.717 153.093C246.143 153.676 245.364 154.005 244.552 154.007ZM140.664 0.108917C139.885 0.110356 139.139 0.424087 138.588 0.981398C138.038 1.53871 137.728 2.29417 137.726 3.08233V150.898C137.728 151.686 138.038 152.442 138.588 152.999C139.139 153.556 139.885 153.87 140.664 153.871H244.552C245.33 153.87 246.077 153.556 246.627 152.999C247.178 152.442 247.488 151.686 247.489 150.898V3.08233C247.488 2.29417 247.178 1.53871 246.627 0.981398C246.077 0.424087 245.33 0.110356 244.552 0.108917H140.664Z" fill="#EBEBEB"/>
<path d="M46.6156 99.5332H49.6445L49.6445 35.0004H46.6156L46.6156 99.5332Z" fill="#E0E0E0"/>
<path d="M106.006 35.0059H48.3643V99.5387H106.006V35.0059Z" fill="#E0E0E0"/>
<path d="M107.847 35.0059H48.0586V99.5387H107.847V35.0059Z" fill="#F0F0F0"/>
<path d="M105.317 37.0645H50.4951V96.5708H105.317V37.0645Z" fill="white"/>
<path d="M105.318 37.0645H103.73V96.5708H105.318V37.0645Z" fill="#E0E0E0"/>
<path d="M50.3496 79.8515V81.458H103.897V79.8515H50.3496Z" fill="#E0E0E0"/>
<path d="M105.317 77.1621H49.6445V79.8578H105.317V77.1621Z" fill="#F0F0F0"/>
<path d="M147.927 177.288H227.233V75.6312L147.927 75.6312V177.288Z" fill="#F0F0F0"/>
<path d="M150.73 101.068L224.431 101.068V79.3287L150.73 79.3287V101.068Z" fill="#E0E0E0"/>
<path d="M220.24 101.068H224.426V82.8521H220.24V101.068Z" fill="#EBEBEB"/>
<path d="M199.994 101.068H204.18V82.8521H199.994V101.068Z" fill="#EBEBEB"/>
<path d="M173.96 100.349L178.085 101.068L181.142 83.1169L177.017 82.3972L173.96 100.349Z" fill="#EBEBEB"/>
<path d="M215.059 101.068H219.244V85.2483H215.059V101.068Z" fill="#EBEBEB"/>
<path d="M205.428 101.068H209.613V85.2483H205.428V101.068Z" fill="#EBEBEB"/>
<path d="M181.138 101.068H185.323V85.2483H181.138V101.068Z" fill="#EBEBEB"/>
<path d="M191.115 100.149L195.201 101.068L198.592 85.6251L194.506 84.7059L191.115 100.149Z" fill="#EBEBEB"/>
<path d="M211.438 101.068H213.531V81.9427H211.438V101.068Z" fill="#EBEBEB"/>
<path d="M186.534 101.068H188.627V81.9427H186.534V101.068Z" fill="#EBEBEB"/>
<path d="M224.425 104.516H150.725V126.255H224.425V104.516Z" fill="#E0E0E0"/>
<path d="M154.91 108.034H150.725V126.25H154.91V108.034Z" fill="#EBEBEB"/>
<path d="M175.154 108.034H170.969V126.25H175.154V108.034Z" fill="#EBEBEB"/>
<path d="M198.14 107.573L194.016 108.293L197.073 126.244L201.197 125.525L198.14 107.573Z" fill="#EBEBEB"/>
<path d="M160.102 110.436H155.916V126.256H160.102V110.436Z" fill="#EBEBEB"/>
<path d="M169.721 110.436H165.535V126.256H169.721V110.436Z" fill="#EBEBEB"/>
<path d="M194.012 110.436H189.826V126.256H194.012V110.436Z" fill="#EBEBEB"/>
<path d="M180.661 109.885L176.575 110.804L179.966 126.247L184.052 125.328L180.661 109.885Z" fill="#EBEBEB"/>
<path d="M163.723 107.13H161.63V126.256H163.723V107.13Z" fill="#EBEBEB"/>
<path d="M188.621 107.13H186.528V126.256H188.621V107.13Z" fill="#EBEBEB"/>
<path d="M220.24 126.25H224.426V108.034H220.24V126.25Z" fill="#EBEBEB"/>
<path d="M215.059 126.25H219.244V110.43H215.059V126.25Z" fill="#EBEBEB"/>
<path d="M205.428 126.25H209.613V110.43H205.428V126.25Z" fill="#EBEBEB"/>
<path d="M211.438 126.25H213.531V107.124H211.438V126.25Z" fill="#EBEBEB"/>
<path d="M150.73 151.432H224.431V129.692H150.73V151.432Z" fill="#E0E0E0"/>
<path d="M177.937 151.432H182.123V133.215H177.937V151.432Z" fill="#EBEBEB"/>
<path d="M151.904 150.705L156.029 151.425L159.086 133.473L154.961 132.754L151.904 150.705Z" fill="#EBEBEB"/>
<path d="M193 151.432H197.186V135.612H193V151.432Z" fill="#EBEBEB"/>
<path d="M183.375 151.432H187.561V135.612H183.375V151.432Z" fill="#EBEBEB"/>
<path d="M159.08 151.432H163.266V135.612H159.08V151.432Z" fill="#EBEBEB"/>
<path d="M169.062 150.505L173.147 151.424L176.538 135.981L172.452 135.061L169.062 150.505Z" fill="#EBEBEB"/>
<path d="M189.38 151.432H191.473V132.306H189.38V151.432Z" fill="#EBEBEB"/>
<path d="M164.476 151.432H166.568V132.306H164.476V151.432Z" fill="#EBEBEB"/>
<path d="M200.072 150.706L204.197 151.426L207.254 133.474L203.129 132.755L200.072 150.706Z" fill="#EBEBEB"/>
<path d="M207.252 151.432H211.438V135.612H207.252V151.432Z" fill="#EBEBEB"/>
<path d="M217.23 150.503L221.316 151.422L224.707 135.979L220.621 135.059L217.23 150.503Z" fill="#EBEBEB"/>
<path d="M212.638 151.432H214.73V132.306H212.638V151.432Z" fill="#EBEBEB"/>
<path d="M95.5736 114.787H49.5423C48.3538 114.785 47.1765 115.02 46.0777 115.479C44.979 115.938 43.9803 116.611 43.1389 117.461C42.2975 118.31 41.6297 119.32 41.1739 120.431C40.7181 121.542 40.4831 122.733 40.4824 123.936V160.325H104.617V123.936C104.617 122.734 104.383 121.544 103.929 120.434C103.474 119.323 102.808 118.315 101.968 117.465C101.128 116.615 100.131 115.941 99.0341 115.482C97.9369 115.023 96.761 114.786 95.5736 114.787Z" fill="#E6E6E6"/>
<path d="M118.229 141.755H109.992C108.565 141.755 107.197 142.329 106.188 143.35C105.179 144.371 104.612 145.756 104.612 147.201V177.289H123.593V147.195C123.592 145.755 123.026 144.373 122.021 143.354C121.016 142.334 119.652 141.759 118.229 141.755Z" fill="#E0E0E0"/>
<path d="M118.229 141.755H118.052C116.625 141.755 115.257 142.329 114.248 143.35C113.239 144.371 112.672 145.756 112.672 147.201V177.289H123.588V147.195C123.586 145.756 123.022 144.375 122.018 143.356C121.014 142.336 119.652 141.761 118.229 141.755Z" fill="#EBEBEB"/>
<path d="M110.385 163.461H47.208V177.282H110.385V163.461Z" fill="#E6E6E6"/>
<path d="M110.471 150.821H49.5427C46.5269 150.821 44.082 153.296 44.082 156.349V159.796C44.082 162.849 46.5269 165.323 49.5427 165.323H110.471C113.487 165.323 115.932 162.849 115.932 159.796V156.349C115.932 153.296 113.487 150.821 110.471 150.821Z" fill="#F5F5F5"/>
<path d="M57.2042 150.821H49.6453C46.6294 150.821 44.1846 153.296 44.1846 156.349V159.796C44.1846 162.849 46.6294 165.323 49.6453 165.323H57.2042C60.22 165.323 62.6649 162.849 62.6649 159.796V156.349C62.6649 153.296 60.22 150.821 57.2042 150.821Z" fill="#E0E0E0"/>
<path d="M48.8277 141.755H40.5909C39.1641 141.755 37.7956 142.329 36.7867 143.35C35.7778 144.371 35.2109 145.756 35.2109 147.201V177.289H54.2023V147.195C54.2009 145.753 53.6342 144.37 52.6266 143.35C51.6189 142.33 50.2527 141.756 48.8277 141.755Z" fill="#E0E0E0"/>
<path d="M48.8276 141.755H48.6554C47.2285 141.755 45.8601 142.329 44.8512 143.35C43.8422 144.371 43.2754 145.756 43.2754 147.201V177.289H54.2022V147.195C54.2007 145.753 53.634 144.37 52.6264 143.35C51.6188 142.33 50.2526 141.756 48.8276 141.755Z" fill="#F0F0F0"/>
<path d="M185.571 51.479C191.62 51.479 196.525 46.5149 196.525 40.3914C196.525 34.2678 191.62 29.3037 185.571 29.3037C179.521 29.3037 174.617 34.2678 174.617 40.3914C174.617 46.5149 179.521 51.479 185.571 51.479Z" fill="#E0E0E0"/>
<path d="M194.773 41.9053C195.597 36.7664 192.149 31.9242 187.072 31.09C181.995 30.2559 177.212 33.7456 176.388 38.8845C175.564 44.0235 179.011 48.8657 184.088 49.6999C189.165 50.534 193.948 47.0443 194.773 41.9053Z" fill="#F0F0F0"/>
<path d="M185.135 33.9219V40.5113L180.82 38.0389" fill="#F0F0F0"/>
<path d="M185.135 40.9853C185.053 40.9856 184.973 40.963 184.904 40.92L180.6 38.453C180.499 38.3876 180.426 38.2853 180.397 38.1674C180.369 38.0495 180.386 37.9249 180.445 37.8193C180.505 37.7138 180.602 37.6354 180.717 37.6003C180.831 37.5651 180.955 37.576 181.062 37.6307L184.678 39.7055V33.9221C184.69 33.8059 184.744 33.6984 184.83 33.6203C184.916 33.5422 185.028 33.499 185.143 33.499C185.259 33.499 185.37 33.5422 185.456 33.6203C185.542 33.6984 185.596 33.8059 185.609 33.9221V40.5115C185.609 40.5942 185.588 40.6756 185.547 40.7473C185.507 40.819 185.448 40.8786 185.377 40.92C185.304 40.965 185.22 40.9877 185.135 40.9853Z" fill="#E0E0E0"/>
<path d="M135.171 202.894C192.782 202.894 239.484 199.537 239.484 195.395C239.484 191.254 192.782 187.896 135.171 187.896C77.5608 187.896 30.8584 191.254 30.8584 195.395C30.8584 199.537 77.5608 202.894 135.171 202.894Z" fill="#F5F5F5"/>
<path d="M209.77 82.1338H195.244C193.921 82.1338 192.653 82.6657 191.718 83.6124C190.782 84.5591 190.257 85.8432 190.257 87.182V93.2705C190.257 94.6093 190.782 95.8934 191.718 96.8401C192.653 97.7869 193.921 98.3187 195.244 98.3187H201.453L203.12 103.65L204.804 98.3187H209.743C211.066 98.3187 212.334 97.7869 213.27 96.8401C214.205 95.8934 214.73 94.6093 214.73 93.2705V87.182C214.73 85.8479 214.209 84.5679 213.279 83.622C212.35 82.676 211.088 82.141 209.77 82.1338Z" fill="#407BFF"/>
<path d="M196.869 89.8563C196.869 90.0577 196.81 90.2546 196.699 90.422C196.588 90.5895 196.431 90.72 196.248 90.7971C196.064 90.8742 195.861 90.8944 195.666 90.8551C195.471 90.8158 195.292 90.7188 195.151 90.5764C195.01 90.4339 194.915 90.2525 194.876 90.0549C194.837 89.8574 194.857 89.6526 194.933 89.4665C195.009 89.2805 195.138 89.1214 195.304 89.0095C195.469 88.8976 195.664 88.8379 195.863 88.8379C195.995 88.8379 196.125 88.8642 196.248 88.9154C196.37 88.9666 196.48 89.0416 196.574 89.1362C196.667 89.2307 196.741 89.343 196.792 89.4665C196.843 89.5901 196.869 89.7225 196.869 89.8563ZM200.301 88.8379C200.102 88.8379 199.908 88.8976 199.742 89.0095C199.577 89.1214 199.448 89.2805 199.372 89.4665C199.295 89.6526 199.275 89.8574 199.314 90.0549C199.353 90.2525 199.449 90.4339 199.59 90.5764C199.73 90.7188 199.91 90.8158 200.105 90.8551C200.3 90.8944 200.502 90.8742 200.686 90.7971C200.87 90.72 201.027 90.5895 201.138 90.422C201.248 90.2546 201.307 90.0577 201.307 89.8563C201.301 89.59 201.193 89.3365 201.005 89.1502C200.817 88.9639 200.564 88.8596 200.301 88.8597V88.8379ZM204.74 88.8379C204.541 88.8379 204.346 88.8976 204.181 89.0095C204.015 89.1214 203.886 89.2805 203.81 89.4665C203.734 89.6526 203.714 89.8574 203.753 90.0549C203.792 90.2525 203.887 90.4339 204.028 90.5764C204.169 90.7188 204.348 90.8158 204.543 90.8551C204.738 90.8944 204.941 90.8742 205.125 90.7971C205.308 90.72 205.465 90.5895 205.576 90.422C205.687 90.2546 205.746 90.0577 205.746 89.8563C205.74 89.59 205.631 89.3365 205.443 89.1502C205.255 88.9639 205.003 88.8596 204.74 88.8597V88.8379ZM209.178 88.8379C208.979 88.8379 208.785 88.8976 208.619 89.0095C208.454 89.1214 208.325 89.2805 208.249 89.4665C208.172 89.6526 208.152 89.8574 208.191 90.0549C208.23 90.2525 208.326 90.4339 208.467 90.5764C208.607 90.7188 208.787 90.8158 208.982 90.8551C209.177 90.8944 209.379 90.8742 209.563 90.7971C209.747 90.72 209.904 90.5895 210.015 90.422C210.125 90.2546 210.184 90.0577 210.184 89.8563C210.178 89.59 210.07 89.3365 209.882 89.1502C209.694 88.9639 209.441 88.8596 209.178 88.8597V88.8379Z" fill="white"/>
<path d="M60.6582 100.104H46.1591C45.5042 100.104 44.8557 100.235 44.2506 100.489C43.6455 100.742 43.0957 101.114 42.6326 101.583C42.1695 102.052 41.8021 102.608 41.5515 103.221C41.3009 103.833 41.1719 104.49 41.1719 105.153V111.241C41.1719 112.58 41.6973 113.864 42.6326 114.811C43.5679 115.758 44.8364 116.289 46.1591 116.289H52.3677L54.0355 121.615L55.7194 116.289H60.6582C61.9809 116.289 63.2495 115.758 64.1848 114.811C65.1201 113.864 65.6455 112.58 65.6455 111.241V105.153C65.6455 104.49 65.5165 103.833 65.2659 103.221C65.0152 102.608 64.6479 102.052 64.1848 101.583C63.7216 101.114 63.1719 100.742 62.5668 100.489C61.9617 100.235 61.3132 100.104 60.6582 100.104Z" fill="#407BFF"/>
<path d="M47.7572 107.827C47.7572 108.028 47.6982 108.225 47.5877 108.393C47.4771 108.56 47.32 108.691 47.1362 108.768C46.9523 108.845 46.7501 108.865 46.5549 108.826C46.3597 108.787 46.1805 108.69 46.0398 108.547C45.8991 108.405 45.8033 108.223 45.7644 108.026C45.7256 107.828 45.7456 107.623 45.8217 107.437C45.8978 107.251 46.0268 107.092 46.1922 106.98C46.3577 106.868 46.5522 106.809 46.7512 106.809C47.018 106.809 47.2739 106.916 47.4626 107.107C47.6512 107.298 47.7572 107.557 47.7572 107.827ZM51.1897 106.809C50.9907 106.809 50.7962 106.868 50.6307 106.98C50.4653 107.092 50.3363 107.251 50.2602 107.437C50.1841 107.623 50.1641 107.828 50.2029 108.026C50.2418 108.223 50.3376 108.405 50.4783 108.547C50.619 108.69 50.7982 108.787 50.9934 108.826C51.1886 108.865 51.3908 108.845 51.5747 108.768C51.7585 108.691 51.9156 108.56 52.0262 108.393C52.1367 108.225 52.1957 108.028 52.1957 107.827C52.1915 107.56 52.0835 107.306 51.8951 107.119C51.7067 106.933 51.4532 106.829 51.1897 106.83V106.809ZM55.6282 106.809C55.4288 106.806 55.2332 106.864 55.0663 106.975C54.8995 107.086 54.7689 107.244 54.6911 107.43C54.6133 107.616 54.5918 107.821 54.6294 108.019C54.667 108.217 54.7619 108.4 54.9022 108.543C55.0425 108.687 55.2217 108.785 55.4172 108.825C55.6126 108.865 55.8154 108.846 55.9999 108.769C56.1844 108.692 56.3421 108.562 56.4531 108.394C56.5642 108.226 56.6235 108.029 56.6235 107.827C56.6193 107.562 56.5127 107.31 56.3267 107.123C56.1406 106.937 55.8899 106.832 55.6282 106.83V106.809ZM60.0667 106.809C59.8677 106.809 59.6732 106.868 59.5077 106.98C59.3423 107.092 59.2133 107.251 59.1372 107.437C59.0611 107.623 59.0411 107.828 59.08 108.026C59.1188 108.223 59.2146 108.405 59.3553 108.547C59.496 108.69 59.6752 108.787 59.8704 108.826C60.0656 108.865 60.2678 108.845 60.4517 108.768C60.6355 108.691 60.7926 108.56 60.9032 108.393C61.0137 108.225 61.0727 108.028 61.0727 107.827C61.0685 107.56 60.9605 107.306 60.7721 107.119C60.5837 106.933 60.3302 106.829 60.0667 106.83V106.809Z" fill="white"/>
<path d="M222.865 196.158H154.582C141.826 196.158 141.008 180.954 151.494 173.798C153.411 172.508 155.533 171.561 157.767 170.999C178.528 165.471 207.699 128.314 228.245 143.862L228.304 143.906C248.77 159.562 234.464 196.158 222.865 196.158Z" fill="#263238"/>
<path opacity="0.5" d="M222.865 196.158H154.582C141.826 196.158 141.008 180.954 151.494 173.798C153.411 172.508 155.533 171.561 157.767 170.999C178.528 165.471 207.699 128.314 228.245 143.862L228.304 143.906C248.77 159.562 234.464 196.158 222.865 196.158Z" fill="white"/>
<path opacity="0.2" d="M228.192 143.835C226.47 143.72 224.383 144.21 222.134 146.117C216.296 151.072 225.173 174.93 211.212 184.853C203.422 190.391 169.813 192.831 158.596 186.04C150.316 181.024 150.209 177.871 151.494 173.798C153.411 172.507 155.533 171.56 157.767 170.998C178.502 165.444 207.672 128.287 228.192 143.835Z" fill="black"/>
<path d="M175.101 139.337L171.028 136.434L174.073 133.281C174.073 133.281 177.199 134.915 176.903 137.829L175.101 139.337Z" fill="#E4897B"/>
<path d="M169.431 133.232L172.255 131.435L174.074 133.281L171.029 136.434L169.431 133.232Z" fill="#E4897B"/>
<path d="M195.136 131.838C191.279 132.987 189.379 139.854 186.195 146.34L176.925 137.017L173.977 139.664C173.977 139.664 182.466 153.316 186.474 153.316C191.478 153.316 196.669 139.25 196.669 139.25L195.136 131.838Z" fill="#263238"/>
<path opacity="0.1" d="M196.669 139.25C196.669 139.25 195.846 141.477 194.517 144.151C193.253 146.754 191.531 149.787 189.675 151.623C188.626 152.652 187.523 153.305 186.447 153.305C182.439 153.305 173.949 139.653 173.949 139.653L176.897 137.006L186.167 146.329C189.352 139.843 191.246 132.976 195.114 131.827L196.669 139.25Z" fill="white"/>
<path opacity="0.2" d="M194.539 144.162C193.275 146.765 191.553 149.798 189.697 151.634C189.896 145.409 192.925 139.337 192.925 139.337C193.76 140.827 194.308 142.465 194.539 144.162Z" fill="black"/>
<path d="M191.446 169.773C191.446 169.773 158.708 165.014 156.976 172.284C155.152 179.973 181.439 185.158 197.148 185.702C212.858 186.247 217.366 182.435 214.843 162.83H193.323L191.446 169.773Z" fill="#407BFF"/>
<path opacity="0.6" d="M191.446 169.773C191.446 169.773 158.708 165.014 156.976 172.284C155.152 179.973 181.439 185.158 197.148 185.702C212.858 186.247 217.366 182.435 214.843 162.83H193.323L191.446 169.773Z" fill="white"/>
<path d="M173.213 184.934L166.353 184.94L163.061 184.945L162.668 181.433L165.713 181.019L173.154 180.017L173.213 184.934Z" fill="#E4897B"/>
<path d="M163.411 180.992L164.244 185C164.256 185.053 164.257 185.107 164.247 185.16C164.238 185.213 164.217 185.264 164.188 185.309C164.158 185.354 164.119 185.392 164.075 185.421C164.03 185.45 163.98 185.47 163.927 185.479L161.953 185.839C161.953 185.839 159.333 186.514 158.595 186.04C156.443 184.646 154.378 175.835 155.254 175.181C155.572 174.942 156.126 175.306 156.406 175.595C157.288 176.505 159.166 179.048 159.914 179.799C160.78 180.681 162.324 180.709 163.002 180.671C163.097 180.666 163.19 180.696 163.265 180.755C163.34 180.814 163.391 180.898 163.411 180.992Z" fill="#263238"/>
<path opacity="0.2" d="M173.213 184.934L166.353 184.94L165.713 181.019L173.153 180.017L173.213 184.934Z" fill="black"/>
<path d="M183.241 178.737L189.751 180.932L192.877 181.983L192.15 185.436L189.132 184.853L181.762 183.426L183.241 178.737Z" fill="#E4897B"/>
<path d="M191.311 185.616L191.768 181.548C191.775 181.494 191.792 181.443 191.818 181.396C191.844 181.35 191.879 181.309 191.921 181.276C191.963 181.243 192.011 181.219 192.063 181.205C192.114 181.191 192.167 181.187 192.22 181.194L194.205 181.488C194.205 181.488 196.895 181.684 197.433 182.37C199.047 184.38 198.251 193.403 197.218 193.741C196.836 193.866 196.427 193.343 196.25 192.984C195.712 191.835 194.711 188.818 194.237 187.87C193.699 186.754 192.231 186.237 191.58 186.051C191.491 186.023 191.416 185.963 191.366 185.883C191.317 185.804 191.297 185.709 191.311 185.616Z" fill="#263238"/>
<path opacity="0.2" d="M183.241 178.737L189.751 180.932L189.132 184.853L181.762 183.426L183.241 178.737Z" fill="black"/>
<path d="M188.003 185.463L186.146 185.643L187.255 179.141L189.385 180.279L188.003 185.463Z" fill="#407BFF"/>
<path opacity="0.6" d="M188.003 185.463L186.146 185.643L187.255 179.141L189.385 180.279L188.003 185.463Z" fill="white"/>
<path d="M194.216 187.821C194.265 188.116 194.221 188.418 194.093 188.687C194.041 188.768 193.968 188.833 193.883 188.876C193.798 188.919 193.703 188.938 193.609 188.932C193.551 188.935 193.494 188.922 193.443 188.895C193.392 188.868 193.349 188.829 193.318 188.78C193.038 188.3 193.695 186.825 193.775 186.661C193.78 186.643 193.792 186.627 193.808 186.617C193.824 186.607 193.843 186.603 193.861 186.607C193.882 186.609 193.901 186.617 193.917 186.631C193.932 186.644 193.943 186.663 193.947 186.683C194.075 187.052 194.165 187.434 194.216 187.821ZM193.442 188.529C193.445 188.577 193.46 188.624 193.485 188.665C193.495 188.686 193.511 188.703 193.532 188.714C193.552 188.725 193.575 188.729 193.598 188.725C193.663 188.733 193.729 188.722 193.788 188.693C193.847 188.664 193.897 188.618 193.931 188.562C194.088 188.044 194.059 187.487 193.851 186.988C193.624 187.473 193.486 187.995 193.442 188.529Z" fill="#407BFF"/>
<path d="M193.963 186.694V186.737C193.786 187.211 192.979 188.148 192.522 188.082C192.447 188.069 192.378 188.031 192.328 187.973C192.277 187.916 192.247 187.843 192.242 187.767C192.221 187.69 192.217 187.61 192.23 187.532C192.243 187.454 192.273 187.38 192.317 187.315C192.651 186.77 193.807 186.596 193.872 186.601C193.89 186.598 193.908 186.6 193.925 186.608C193.941 186.616 193.955 186.629 193.963 186.645C193.967 186.661 193.967 186.678 193.963 186.694ZM192.414 187.69V187.734C192.446 187.87 192.5 187.875 192.527 187.886C192.796 187.924 193.415 187.315 193.684 186.846C193.225 186.903 192.797 187.111 192.468 187.44C192.422 187.515 192.401 187.603 192.409 187.69H192.414Z" fill="#407BFF"/>
<path d="M166.977 180.512C166.977 180.512 197.433 168.532 206.762 170.536C216.091 172.54 216.134 177.479 211.405 182.086C206.676 186.693 199.612 184.918 199.612 184.918C199.612 184.918 205.164 181.552 204.776 179.472C204.389 177.392 200.86 182.146 200.86 182.146C200.86 182.146 182.455 186.704 167.256 185.501L166.977 180.512Z" fill="#407BFF"/>
<path d="M160.124 179.864C159.947 179.627 159.849 179.339 159.844 179.042C159.852 178.946 159.886 178.855 159.94 178.776C159.995 178.698 160.069 178.636 160.156 178.596C160.206 178.567 160.262 178.553 160.32 178.553C160.377 178.553 160.434 178.567 160.484 178.596C160.947 178.895 161.022 180.513 161.022 180.698C161.024 180.716 161.02 180.735 161.01 180.751C161.001 180.767 160.986 180.779 160.968 180.785C160.951 180.796 160.932 180.802 160.912 180.802C160.892 180.802 160.872 180.796 160.855 180.785C160.58 180.505 160.335 180.196 160.124 179.864ZM160.489 178.873C160.462 178.834 160.427 178.801 160.387 178.775C160.369 178.762 160.347 178.756 160.325 178.756C160.303 178.756 160.282 178.762 160.263 178.775C160.201 178.798 160.147 178.838 160.107 178.892C160.067 178.945 160.043 179.008 160.037 179.075C160.134 179.608 160.414 180.088 160.828 180.431C160.807 179.895 160.693 179.368 160.489 178.873Z" fill="#407BFF"/>
<path d="M160.855 180.747V180.698C160.801 180.197 161.086 178.988 161.528 178.83C161.6 178.807 161.679 178.81 161.75 178.837C161.821 178.865 161.881 178.916 161.92 178.983C162.022 179.104 162.072 179.26 162.06 179.418C162.006 180.055 161.06 180.747 160.984 180.78C160.969 180.79 160.951 180.795 160.933 180.795C160.915 180.795 160.897 180.79 160.882 180.78C160.871 180.771 160.861 180.76 160.855 180.747ZM161.78 179.141V179.102C161.694 178.999 161.641 179.021 161.614 179.026C161.355 179.113 161.076 179.941 161.076 180.486C161.339 180.262 161.85 179.794 161.883 179.396C161.888 179.308 161.866 179.22 161.818 179.146L161.78 179.141Z" fill="#407BFF"/>
<path opacity="0.7" d="M166.977 180.512C166.977 180.512 197.433 168.532 206.762 170.536C216.091 172.54 216.134 177.479 211.405 182.086C206.676 186.693 199.612 184.918 199.612 184.918C199.612 184.918 205.164 181.552 204.776 179.472C204.389 177.392 200.86 182.146 200.86 182.146C200.86 182.146 182.455 186.704 167.256 185.501L166.977 180.512Z" fill="white"/>
<path d="M166.605 180.42L168.316 179.625L169.301 186.111L166.923 185.719L166.605 180.42Z" fill="#407BFF"/>
<path opacity="0.6" d="M166.605 180.42L168.316 179.625L169.301 186.111L166.923 185.719L166.605 180.42Z" fill="white"/>
<path d="M217.006 132.878C213.719 151.394 214.913 163.375 214.913 163.375C214.913 163.375 199.618 163.162 193.334 162.803C189.982 140.361 195.136 131.833 195.136 131.833C196.78 131.499 198.441 131.268 200.113 131.141C200.462 131.114 200.823 131.097 201.189 131.081C204.153 131.079 207.115 131.248 210.06 131.588C210.598 131.647 211.185 131.724 211.734 131.805C214.536 132.236 217.006 132.878 217.006 132.878Z" fill="#263238"/>
<path opacity="0.1" d="M217.005 132.878C216.597 135.176 216.258 137.376 215.978 139.457C215.537 142.724 215.241 145.752 215.047 148.442C214.988 149.254 214.934 150.043 214.896 150.795C214.74 153.551 214.697 155.909 214.703 157.815C214.703 161.398 214.913 163.375 214.913 163.375C214.913 163.375 199.617 163.162 193.333 162.803C189.976 140.361 195.141 131.833 195.141 131.833C196.783 131.499 198.443 131.268 200.112 131.141C200.462 131.114 200.822 131.097 201.188 131.081C204.153 131.076 207.115 131.246 210.06 131.588C210.598 131.648 211.184 131.724 211.733 131.805C214.536 132.23 217.005 132.878 217.005 132.878Z" fill="white"/>
<path opacity="0.2" d="M203.346 153.317C207.265 152.845 211.132 152.003 214.897 150.801C214.741 153.556 214.697 155.914 214.703 157.82C207.402 158.501 204.422 157.08 204.422 157.08L203.346 153.317Z" fill="black"/>
<path opacity="0.2" d="M215.978 139.462C215.537 142.729 215.241 145.757 215.048 148.448C212.955 144.134 214.51 138.961 214.51 138.961L215.978 139.462Z" fill="black"/>
<path d="M204.175 160.919H193.049C192.833 160.916 192.626 160.83 192.469 160.68C192.311 160.53 192.215 160.326 192.199 160.108L190.65 145.159C190.639 145.058 190.649 144.957 190.68 144.861C190.711 144.765 190.762 144.677 190.829 144.602C190.896 144.528 190.978 144.468 191.07 144.428C191.161 144.388 191.26 144.368 191.36 144.369H202.486C202.697 144.373 202.9 144.456 203.056 144.602C203.212 144.747 203.309 144.945 203.33 145.159L204.885 160.108C204.899 160.21 204.891 160.314 204.862 160.412C204.832 160.511 204.782 160.602 204.714 160.679C204.647 160.756 204.564 160.817 204.471 160.859C204.378 160.9 204.277 160.921 204.175 160.919Z" fill="#263238"/>
<path opacity="0.6" d="M204.175 160.919H193.049C192.833 160.916 192.626 160.83 192.469 160.68C192.311 160.53 192.215 160.326 192.199 160.108L190.65 145.159C190.639 145.058 190.649 144.957 190.68 144.861C190.711 144.765 190.762 144.677 190.829 144.602C190.896 144.528 190.978 144.468 191.07 144.428C191.161 144.388 191.26 144.368 191.36 144.369H202.486C202.697 144.373 202.9 144.456 203.056 144.602C203.212 144.747 203.309 144.945 203.33 145.159L204.885 160.108C204.899 160.21 204.891 160.314 204.862 160.412C204.832 160.511 204.782 160.602 204.714 160.679C204.647 160.756 204.564 160.817 204.471 160.859C204.378 160.9 204.277 160.921 204.175 160.919Z" fill="white"/>
<path opacity="0.2" d="M203.712 160.919H193.049C192.833 160.916 192.626 160.83 192.469 160.68C192.311 160.53 192.215 160.326 192.199 160.108L190.65 145.159C190.639 145.058 190.649 144.957 190.68 144.861C190.711 144.765 190.762 144.677 190.829 144.602C190.896 144.528 190.978 144.468 191.07 144.428C191.161 144.388 191.26 144.368 191.36 144.369H202.023C202.235 144.373 202.438 144.456 202.593 144.602C202.749 144.747 202.847 144.945 202.868 145.159L204.422 160.108C204.436 160.21 204.428 160.314 204.399 160.412C204.369 160.511 204.319 160.602 204.252 160.679C204.184 160.756 204.101 160.817 204.008 160.859C203.915 160.9 203.814 160.921 203.712 160.919Z" fill="white"/>
<path d="M197.223 151.432C197.07 151.43 196.918 151.462 196.778 151.525C196.638 151.589 196.512 151.681 196.41 151.797C196.309 151.913 196.232 152.05 196.187 152.198C196.142 152.347 196.128 152.503 196.147 152.657C196.179 152.987 196.33 153.294 196.571 153.519C196.812 153.744 197.127 153.872 197.454 153.877C197.607 153.878 197.759 153.846 197.898 153.783C198.038 153.721 198.163 153.629 198.265 153.513C198.367 153.398 198.443 153.262 198.489 153.114C198.535 152.966 198.549 152.811 198.53 152.657C198.202 152.651 197.887 152.522 197.646 152.296C197.405 152.07 197.255 151.763 197.223 151.432Z" fill="#263238"/>
<path opacity="0.3" d="M199.634 145.578H193.753C193.609 145.576 193.468 145.533 193.346 145.454C193.224 145.375 193.127 145.263 193.065 145.131L192.715 144.391H200.473L200.268 145.131C200.228 145.268 200.144 145.386 200.028 145.467C199.913 145.548 199.774 145.587 199.634 145.578Z" fill="black"/>
<path d="M203.088 152.837L200.517 152.625L200.624 156.089L202.776 157.232L207.737 156.775L208.14 154.438C206.51 152.021 203.088 152.837 203.088 152.837Z" fill="#E4897B"/>
<path d="M217.006 132.878C219.647 133.684 223.392 149.215 222.795 152.646C222.197 156.077 215.682 157.547 207.402 157.357V153.305L217.006 150.468L215.392 144.477C215.392 144.477 214.057 140.072 214.655 136.99C214.982 135.399 215.807 133.958 217.006 132.878Z" fill="#263238"/>
<path opacity="0.1" d="M217.006 132.878C219.647 133.684 223.392 149.215 222.795 152.646C222.197 156.077 215.682 157.547 207.402 157.357V153.305L217.006 150.468L215.392 144.477C215.392 144.477 214.057 140.072 214.655 136.99C214.982 135.399 215.807 133.958 217.006 132.878Z" fill="white"/>
<path d="M208.78 131.413C207.441 132.829 205.337 134.016 201.964 133.891C199.376 133.787 199.016 132.143 199.467 131.239C201.038 130.912 201.749 130.22 201.969 129.338C202.19 128.456 201.883 127.269 201.431 126.169L205.794 122.449L206.531 121.817C206.531 122.03 206.504 122.253 206.494 122.487C206.443 123.351 206.443 124.216 206.494 125.079C206.639 127.514 207.209 130.155 208.78 131.413Z" fill="#E4897B"/>
<path opacity="0.2" d="M206.5 125.08C205.687 126.762 204.262 128.794 201.97 129.338C202.206 128.401 201.884 127.269 201.432 126.169L205.795 122.449C206.026 122.449 206.263 122.449 206.494 122.487C206.445 123.351 206.447 124.216 206.5 125.08Z" fill="black"/>
<path d="M196.504 115.054C195.864 116.535 195.783 119.715 198.01 118.926C200.237 118.136 197.58 112.51 196.504 115.054Z" fill="#263238"/>
<path d="M207.171 118.338C206.977 122.302 207.069 124.638 205.11 126.681C202.162 129.752 197.299 127.944 196.309 123.99C195.426 120.423 195.889 114.536 199.709 112.946C200.556 112.595 201.478 112.467 202.387 112.574C203.297 112.681 204.164 113.019 204.91 113.557C205.655 114.096 206.253 114.817 206.649 115.653C207.044 116.489 207.224 117.412 207.171 118.338Z" fill="#E4897B"/>
<path d="M201.231 119.46C201.231 119.781 201.07 120.048 200.86 120.048C200.65 120.048 200.478 119.786 200.473 119.46C200.467 119.133 200.64 118.877 200.844 118.877C201.048 118.877 201.226 119.138 201.231 119.46Z" fill="#263238"/>
<path d="M197.616 119.47C197.616 119.792 197.455 120.053 197.245 120.053C197.035 120.053 196.863 119.792 196.863 119.47C196.863 119.149 197.025 118.888 197.234 118.888C197.444 118.888 197.616 119.144 197.616 119.47Z" fill="#263238"/>
<path d="M198.767 119.629C198.387 120.586 197.876 121.484 197.25 122.297C197.472 122.445 197.722 122.544 197.984 122.588C198.247 122.633 198.515 122.621 198.773 122.553L198.767 119.629Z" fill="#DE5753"/>
<path d="M202.33 118.278C202.298 118.283 202.265 118.279 202.234 118.266C202.204 118.254 202.178 118.234 202.158 118.207C202.019 118.014 201.837 117.856 201.627 117.746C201.416 117.637 201.184 117.578 200.947 117.576C200.898 117.579 200.849 117.562 200.811 117.53C200.773 117.497 200.748 117.451 200.743 117.401C200.741 117.376 200.743 117.351 200.751 117.327C200.758 117.303 200.77 117.281 200.786 117.262C200.802 117.242 200.822 117.226 200.844 117.215C200.866 117.203 200.89 117.196 200.915 117.194C201.214 117.192 201.509 117.262 201.777 117.397C202.044 117.533 202.276 117.73 202.454 117.973C202.484 118.013 202.498 118.063 202.492 118.113C202.486 118.163 202.461 118.209 202.421 118.24C202.395 118.26 202.363 118.274 202.33 118.278Z" fill="#263238"/>
<path d="M196.045 118.218C196.01 118.228 195.973 118.228 195.938 118.218C195.915 118.207 195.895 118.191 195.879 118.172C195.863 118.153 195.85 118.132 195.842 118.108C195.834 118.084 195.831 118.059 195.832 118.034C195.834 118.009 195.841 117.984 195.852 117.962C195.971 117.685 196.154 117.441 196.387 117.251C196.619 117.062 196.893 116.932 197.186 116.872C197.211 116.869 197.236 116.871 197.26 116.878C197.284 116.885 197.306 116.897 197.326 116.912C197.345 116.928 197.361 116.948 197.373 116.97C197.385 116.992 197.393 117.016 197.396 117.041C197.399 117.066 197.398 117.091 197.393 117.114C197.387 117.138 197.376 117.161 197.362 117.181C197.347 117.2 197.329 117.217 197.308 117.23C197.287 117.242 197.264 117.25 197.24 117.254C197.009 117.298 196.792 117.399 196.609 117.548C196.426 117.697 196.282 117.89 196.191 118.109C196.177 118.137 196.156 118.162 196.131 118.181C196.106 118.2 196.076 118.212 196.045 118.218Z" fill="#263238"/>
<path d="M201.017 115.157C201.017 115.157 202.093 114.373 202.588 115.217C203.083 116.061 203.051 118.311 203.051 118.311L203.266 117.913C203.266 117.913 204.659 122.923 206.677 121.66C208.694 120.396 211.659 115.31 206.946 112.718C206.946 112.718 206.445 111.509 203.33 110.91C200.215 110.311 196.449 112.26 195.798 114.346C195.147 116.432 196.057 117.613 196.057 117.613C196.156 117.159 196.361 116.736 196.654 116.377C196.695 116.59 196.789 116.789 196.925 116.956C197.061 117.123 197.236 117.254 197.434 117.336C197.402 116.91 197.49 116.483 197.687 116.105C197.79 116.476 197.973 116.818 198.225 117.107C198.451 114.961 199.892 114.526 200.344 114.542C200.506 114.56 200.658 114.629 200.779 114.74C200.9 114.85 200.983 114.996 201.017 115.157Z" fill="#263238"/>
<path d="M208.726 121.622C208.582 122.093 208.347 122.532 208.035 122.911C207.723 123.291 207.339 123.604 206.907 123.833C205.745 124.437 204.895 123.441 204.992 122.199C205.078 121.072 205.783 119.4 207.058 119.318C207.337 119.305 207.614 119.363 207.866 119.485C208.118 119.607 208.336 119.79 208.501 120.018C208.666 120.246 208.773 120.511 208.812 120.791C208.851 121.071 208.822 121.356 208.726 121.622Z" fill="#E4897B"/>
<path d="M198.896 123.881C199.232 124.237 199.542 124.617 199.822 125.019L200.053 124.905C201.092 124.36 201.404 123.778 201.43 123.271C201.437 123.027 201.388 122.785 201.285 122.563C201.23 122.437 201.158 122.32 201.07 122.215C200.574 122.833 199.952 123.334 199.246 123.685C199.036 123.816 198.896 123.881 198.896 123.881Z" fill="#263238"/>
<path d="M199.246 123.696L199.531 124.023C200.505 123.522 201.145 123.032 201.285 122.574C201.23 122.448 201.158 122.331 201.07 122.226C200.574 122.844 199.952 123.345 199.246 123.696Z" fill="white"/>
<path d="M200.054 124.905C201.092 124.361 201.404 123.778 201.431 123.271C201.04 123.482 200.688 123.76 200.393 124.094C200.198 124.321 200.079 124.605 200.054 124.905Z" fill="#A24E3F"/>
<path d="M105.263 136.788L105.542 139.81C105.542 139.81 123.017 142.501 125.814 145.256C128.612 148.012 138.538 191.595 138.538 191.595L134.535 192.139C134.535 192.139 120.644 160.009 119.902 155.358C119.902 155.358 107.667 155.821 99.3177 155.821C90.968 155.821 89.9727 136.761 89.9727 136.761L105.263 136.788Z" fill="#407BFF"/>
<path opacity="0.3" d="M138.539 191.6L134.536 192.144C134.536 192.144 128.855 179.003 124.567 168.313C122.141 162.285 120.166 157.035 119.903 155.358C119.903 155.358 111.434 155.674 103.763 155.783C102.213 155.783 100.701 155.815 99.2972 155.815C90.9475 155.815 89.9521 136.755 89.9521 136.755H105.242L105.522 139.777C105.522 139.777 123.001 142.462 125.794 145.223C128.586 147.984 138.539 191.6 138.539 191.6Z" fill="white"/>
<path d="M141.626 195.504C138.936 195.504 138.576 195.461 137.059 195.406C135.762 195.363 135.445 195.526 134.412 195.504C133.54 195.504 133.572 194.638 133.841 193.669C133.976 193.179 134.18 192.15 134.379 191.365L138.328 191.071C138.866 192.16 140.136 193.68 141.653 193.887C143.17 194.094 142.702 195.504 141.626 195.504Z" fill="#263238"/>
<path opacity="0.2" d="M124.567 168.335C122.14 162.307 120.166 157.057 119.902 155.379C119.902 155.379 111.434 155.695 103.762 155.804L102.934 140.997C102.934 140.997 113.737 142.565 121 148.899C121.92 149.683 123.711 161.811 124.567 168.335Z" fill="black"/>
<path d="M120.801 158.652H89.5376V156.708C89.5376 156.06 89.7921 155.438 90.2451 154.979C90.6981 154.521 91.3126 154.263 91.9532 154.263H118.385C119.026 154.263 119.64 154.521 120.093 154.979C120.546 155.438 120.801 156.06 120.801 156.708V158.652Z" fill="#263238"/>
<path opacity="0.2" d="M120.801 158.652H89.5376V156.708C89.5376 156.06 89.7921 155.438 90.2451 154.979C90.6981 154.521 91.3126 154.263 91.9532 154.263H118.385C119.026 154.263 119.64 154.521 120.093 154.979C120.546 155.438 120.801 156.06 120.801 156.708V158.652Z" fill="white"/>
<path d="M119.714 187.107L107.663 186.045V170.023H103.429V186.04L91.3347 187.129C90.8205 187.18 90.3435 187.423 89.9965 187.811C89.6495 188.198 89.4572 188.702 89.457 189.225V190.859H121.597V189.225C121.602 188.698 121.412 188.187 121.063 187.795C120.714 187.403 120.233 187.157 119.714 187.107Z" fill="#263238"/>
<path d="M93.352 192.847C93.352 193.401 93.1895 193.944 92.885 194.405C92.5806 194.866 92.1478 195.225 91.6416 195.438C91.1353 195.65 90.5782 195.706 90.0407 195.597C89.5032 195.489 89.0096 195.222 88.6221 194.83C88.2346 194.437 87.9707 193.938 87.8638 193.394C87.7569 192.85 87.8117 192.286 88.0215 191.773C88.2312 191.261 88.5863 190.823 89.0419 190.515C89.4976 190.206 90.0333 190.042 90.5812 190.042C91.3161 190.042 92.0208 190.337 92.5404 190.863C93.06 191.389 93.352 192.103 93.352 192.847Z" fill="#263238"/>
<path d="M120.462 195.651C121.992 195.651 123.233 194.396 123.233 192.847C123.233 191.298 121.992 190.042 120.462 190.042C118.932 190.042 117.691 191.298 117.691 192.847C117.691 194.396 118.932 195.651 120.462 195.651Z" fill="#263238"/>
<path d="M102.697 157.607H108.395V171.271C108.395 171.807 108.184 172.321 107.81 172.7C107.436 173.078 106.928 173.291 106.399 173.291H104.699C104.169 173.291 103.662 173.078 103.287 172.7C102.913 172.321 102.703 171.807 102.703 171.271V157.607H102.697Z" fill="#263238"/>
<path opacity="0.2" d="M102.697 157.607H108.395V171.271C108.395 171.807 108.184 172.321 107.81 172.7C107.436 173.078 106.928 173.291 106.399 173.291H104.699C104.169 173.291 103.662 173.078 103.287 172.7C102.913 172.321 102.703 171.807 102.703 171.271V157.607H102.697Z" fill="white"/>
<path d="M89.3175 159.159H121.016C121.554 159.159 121.99 158.718 121.99 158.173V157.95C121.99 157.406 121.554 156.965 121.016 156.965H89.3175C88.7797 156.965 88.3437 157.406 88.3437 157.95V158.173C88.3437 158.718 88.7797 159.159 89.3175 159.159Z" fill="#263238"/>
<path opacity="0.2" d="M93.352 192.847C93.352 193.401 93.1895 193.944 92.885 194.405C92.5806 194.866 92.1478 195.225 91.6416 195.438C91.1353 195.65 90.5782 195.706 90.0407 195.597C89.5032 195.489 89.0096 195.222 88.6221 194.83C88.2346 194.437 87.9707 193.938 87.8638 193.394C87.7569 192.85 87.8117 192.286 88.0215 191.773C88.2312 191.261 88.5863 190.823 89.0419 190.515C89.4976 190.206 90.0333 190.042 90.5812 190.042C91.3161 190.042 92.0208 190.337 92.5404 190.863C93.06 191.389 93.352 192.103 93.352 192.847Z" fill="white"/>
<path opacity="0.2" d="M120.462 195.651C121.992 195.651 123.233 194.396 123.233 192.847C123.233 191.298 121.992 190.042 120.462 190.042C118.932 190.042 117.691 191.298 117.691 192.847C117.691 194.396 118.932 195.651 120.462 195.651Z" fill="white"/>
<path d="M123.459 131.712H113.802C110.972 131.712 108.927 129.137 109.239 125.967L109.648 121.73C109.96 118.555 112.5 115.979 115.33 115.979H124.987C127.817 115.979 129.861 118.555 129.554 121.73L129.14 125.967C128.833 129.137 126.289 131.712 123.459 131.712Z" fill="#263238"/>
<path opacity="0.2" d="M123.459 131.712H113.802C110.972 131.712 108.927 129.137 109.239 125.967L109.648 121.73C109.96 118.555 112.5 115.979 115.33 115.979H124.987C127.817 115.979 129.861 118.555 129.554 121.73L129.14 125.967C128.833 129.137 126.289 131.712 123.459 131.712Z" fill="white"/>
<path d="M122.57 129.649H116.878C115.205 129.649 113.995 128.129 114.188 126.25L114.436 123.751C114.613 121.872 116.12 120.353 117.793 120.353H123.496C125.169 120.353 126.379 121.872 126.186 123.751L125.938 126.25C125.745 128.129 124.244 129.649 122.57 129.649Z" fill="#263238"/>
<path d="M118.041 125.912C118.041 125.912 116.739 152.406 111.101 156.953H117.132C117.132 156.953 122.512 147.93 122.904 125.912H118.041Z" fill="#263238"/>
<path d="M122.894 114.874L123.932 114.329C124.127 114.228 124.343 114.176 124.562 114.176C124.781 114.176 124.997 114.228 125.191 114.329L127.053 115.255C127.419 115.437 127.737 115.706 127.98 116.039C128.222 116.371 128.382 116.758 128.446 117.166L128.532 117.684C126.87 118.74 124.309 118.642 124.309 118.642L123.572 118.702C123.422 118.718 123.27 118.703 123.125 118.659C122.98 118.615 122.846 118.542 122.729 118.445C122.613 118.348 122.516 118.228 122.446 118.092C122.375 117.957 122.332 117.809 122.318 117.657L122.189 116.186C122.165 115.921 122.219 115.655 122.344 115.421C122.47 115.188 122.661 114.997 122.894 114.874Z" fill="#B97964"/>
<path opacity="0.2" d="M122.894 114.874L123.932 114.329C124.127 114.228 124.343 114.176 124.562 114.176C124.781 114.176 124.997 114.228 125.191 114.329L127.053 115.255C127.419 115.437 127.737 115.706 127.98 116.039C128.222 116.371 128.382 116.758 128.446 117.166L128.532 117.684C126.87 118.74 124.309 118.642 124.309 118.642L123.572 118.702C123.422 118.718 123.27 118.703 123.125 118.659C122.98 118.615 122.846 118.542 122.729 118.445C122.613 118.348 122.516 118.228 122.446 118.092C122.375 117.957 122.332 117.809 122.318 117.657L122.189 116.186C122.165 115.921 122.219 115.655 122.344 115.421C122.47 115.188 122.661 114.997 122.894 114.874Z" fill="black"/>
<path d="M115.265 116.17L111.499 120.989H107.916L108.384 114.264C111.096 114.792 115.265 116.17 115.265 116.17Z" fill="#407BFF"/>
<path opacity="0.2" d="M111.181 120.989H108.082L110.008 116.17C110.008 116.17 111.111 117.864 111.181 120.989Z" fill="black"/>
<path d="M105.495 138.606L89.7266 137.125C90.2215 135.426 90.6573 133.759 91.0231 132.153C91.4858 130.187 91.8517 128.303 92.1422 126.544C92.4327 124.785 92.6802 123.151 92.8523 121.67L92.9008 121.25C92.9008 121.016 92.9546 120.787 92.9761 120.569C93.1321 119.137 93.2289 117.89 93.2935 116.861C93.428 114.851 93.428 113.691 93.428 113.691C98.8307 112.644 104.406 112.979 109.649 114.666C111.994 121.354 105.495 138.606 105.495 138.606Z" fill="#407BFF"/>
<path d="M105.441 115.734C105.202 116.236 104.836 116.666 104.38 116.979C103.924 117.292 103.394 117.478 102.845 117.518C102.295 117.557 101.745 117.45 101.249 117.205C100.754 116.961 100.331 116.589 100.024 116.126L99.3403 115.097L98.501 113.817C99.9105 112.973 100.465 110.272 100.653 107.952C100.712 107.222 100.734 106.536 100.734 105.953L104.274 110.854C104.026 111.373 103.845 111.922 103.736 112.488C103.691 112.721 103.673 112.959 103.682 113.196C103.687 114.149 104.155 115.031 105.441 115.734Z" fill="#B97964"/>
<path opacity="0.2" d="M104.263 110.882C104.015 111.401 103.835 111.95 103.725 112.515C102.794 113.724 101.347 115.004 99.351 115.086L98.501 113.817C99.9105 112.973 100.465 110.272 100.653 107.952C100.712 107.222 100.734 106.536 100.734 105.953L104.263 110.882Z" fill="black"/>
<path d="M95.7571 102.697C95.7571 102.697 94.0086 102.032 94.5251 100.807C95.0416 99.5818 95.6657 99.5927 95.6657 99.5927C95.4014 99.0917 95.2578 98.5346 95.2466 97.9668C95.2354 97.3989 95.3568 96.8365 95.6011 96.3252C96.4673 94.6915 98.3826 95.3558 98.3826 95.3558C98.3902 94.8426 98.5701 94.3473 98.8928 93.9514C99.2154 93.5555 99.6617 93.2826 100.158 93.1775C100.665 93.0927 101.185 93.1776 101.639 93.4194C102.094 93.6612 102.458 94.0467 102.676 94.5172C102.676 94.5172 103.881 92.9325 105.646 93.3681C107.41 93.8038 107.765 96.2925 107.765 96.2925C108.247 96.1334 108.771 96.1686 109.228 96.3908C109.685 96.6129 110.04 97.0049 110.219 97.4851C110.459 97.9864 110.559 98.5445 110.509 99.0991C110.458 99.6538 110.259 100.184 109.933 100.633C109.933 100.633 111.058 100.088 111.429 101.923C111.8 103.759 109.907 105.371 109.907 105.371C109.907 105.371 110.929 105.496 110.401 106.852C109.874 108.208 108.212 108.23 108.212 108.23C108.212 108.23 108.857 108.562 107.636 109.678C106.415 110.795 102.482 109.199 102.482 109.199L95.7571 102.697Z" fill="#263238"/>
<path d="M100.567 99.7891C96.801 99.9851 95.725 102.087 95.6335 106.025C95.542 110.926 96.7956 114.362 101.439 113.066C107.733 111.307 106.808 99.4569 100.567 99.7891Z" fill="#B97964"/>
<path d="M98.0486 105.681C97.7774 106.264 97.4378 106.813 97.0371 107.314C97.1558 107.466 97.3135 107.582 97.4928 107.649C97.6721 107.716 97.8662 107.732 98.0539 107.696L98.0486 105.681Z" fill="#A24E3F"/>
<path d="M100.335 105.245C100.335 105.561 100.518 105.79 100.723 105.79C100.927 105.79 101.089 105.528 101.083 105.213C101.078 104.897 100.9 104.668 100.691 104.668C100.481 104.668 100.325 104.935 100.335 105.245Z" fill="#263238"/>
<path d="M100.777 104.684L100.099 104.434C100.099 104.434 100.448 105 100.777 104.684Z" fill="#263238"/>
<path d="M96.4884 105.294C96.4884 105.61 96.6713 105.839 96.8811 105.839C97.091 105.839 97.247 105.577 97.2362 105.261C97.2255 104.946 97.0533 104.717 96.8489 104.717C96.6444 104.717 96.483 104.984 96.4884 105.294Z" fill="#263238"/>
<path d="M96.9352 104.728L96.252 104.483C96.252 104.483 96.607 105.044 96.9352 104.728Z" fill="#263238"/>
<path d="M101.895 103.269C101.873 103.269 101.851 103.265 101.83 103.255C101.81 103.246 101.792 103.232 101.777 103.215C101.574 103.031 101.332 102.897 101.071 102.821C100.809 102.746 100.533 102.731 100.265 102.779C100.245 102.783 100.223 102.783 100.202 102.778C100.182 102.774 100.162 102.765 100.144 102.753C100.127 102.741 100.112 102.725 100.1 102.707C100.089 102.689 100.081 102.669 100.077 102.648C100.071 102.606 100.081 102.564 100.105 102.529C100.129 102.495 100.165 102.471 100.206 102.463C100.529 102.403 100.86 102.422 101.174 102.516C101.489 102.611 101.776 102.779 102.014 103.008C102.043 103.038 102.06 103.079 102.06 103.122C102.06 103.165 102.043 103.206 102.014 103.236C101.98 103.262 101.938 103.274 101.895 103.269Z" fill="#263238"/>
<path d="M96.0149 103.155C95.9904 103.154 95.9662 103.149 95.944 103.139C95.9217 103.128 95.9019 103.113 95.8858 103.095C95.8601 103.06 95.8491 103.016 95.8551 102.973C95.8612 102.931 95.8838 102.892 95.9181 102.866C96.1389 102.678 96.3986 102.543 96.678 102.47C96.9573 102.398 97.2492 102.39 97.5321 102.447C97.5527 102.453 97.5719 102.463 97.5886 102.477C97.6052 102.491 97.6189 102.508 97.6289 102.527C97.639 102.546 97.6451 102.567 97.6469 102.589C97.6488 102.611 97.6463 102.633 97.6397 102.653C97.6261 102.693 97.5978 102.727 97.5607 102.746C97.5236 102.765 97.4806 102.769 97.4406 102.757C97.2042 102.714 96.9612 102.725 96.7294 102.789C96.4977 102.853 96.283 102.969 96.101 103.127C96.0753 103.144 96.0455 103.154 96.0149 103.155Z" fill="#263238"/>
<path d="M105.005 105.981C105.005 105.981 103.084 102.947 103.23 100.535C103.23 100.535 95.6224 97.8502 95.6493 105.518C95.6493 105.518 94.5733 98.7651 101.029 98.2695C107.485 97.774 107.948 107.342 104.758 110.37C104.752 110.359 106.194 107.876 105.005 105.981Z" fill="#263238"/>
<path d="M104.436 106.819C104.44 106.599 104.488 106.382 104.576 106.181C104.664 105.979 104.79 105.798 104.948 105.646C105.105 105.494 105.291 105.375 105.494 105.296C105.697 105.217 105.913 105.179 106.13 105.185C107.303 105.256 107.981 107.647 105.113 108.382C104.705 108.496 104.446 108.099 104.436 106.819Z" fill="#B97964"/>
<path d="M98.9586 109.913C98.8511 109.921 98.7432 109.921 98.6358 109.913C98.6149 109.909 98.595 109.901 98.5773 109.889C98.5595 109.877 98.5442 109.862 98.5322 109.845C98.5202 109.827 98.5118 109.807 98.5074 109.786C98.503 109.765 98.5028 109.743 98.5067 109.722C98.5099 109.701 98.5172 109.681 98.5283 109.663C98.5393 109.645 98.5537 109.63 98.5708 109.618C98.5879 109.606 98.6072 109.597 98.6276 109.592C98.648 109.588 98.669 109.588 98.6896 109.592C99.0948 109.664 99.5122 109.595 99.8744 109.398C100.237 109.2 100.522 108.885 100.686 108.502C100.693 108.482 100.705 108.464 100.72 108.449C100.734 108.433 100.752 108.421 100.772 108.412C100.791 108.403 100.812 108.399 100.833 108.398C100.854 108.398 100.876 108.402 100.895 108.41C100.915 108.418 100.933 108.429 100.949 108.444C100.964 108.459 100.976 108.477 100.985 108.497C100.993 108.517 100.998 108.538 100.998 108.559C100.998 108.581 100.995 108.602 100.987 108.622C100.822 109.023 100.538 109.362 100.175 109.593C99.8119 109.824 99.3869 109.936 98.9586 109.913Z" fill="#263238"/>
<path d="M106.387 104.592C105.489 99.8708 98.5917 95.9063 96.0039 101.396C96.4378 100.02 97.2769 98.8113 98.4088 97.9321C98.4088 97.9321 105.403 95.9117 106.635 103.977L106.387 104.592Z" fill="#407BFF"/>
<path d="M102.713 195.504C100.023 195.504 99.6627 195.461 98.1456 195.406C96.849 195.363 96.5316 195.526 95.4986 195.504C94.627 195.504 94.6593 194.638 94.9283 193.669C95.0628 193.179 95.2673 192.15 95.4663 191.365L99.4152 191.071C99.9532 192.16 101.223 193.68 102.74 193.887C104.257 194.094 103.784 195.504 102.713 195.504Z" fill="#263238"/>
<path d="M89.9788 136.787C89.9788 136.787 84.5988 144.885 87.5148 151.54C90.4307 158.195 105.177 155.189 105.177 155.189L95.461 191.381L100.109 192.16C100.109 192.16 116.588 156.289 117.008 150.173C117.428 144.057 99.6359 140.131 99.6359 140.131L89.9788 136.787Z" fill="#407BFF"/>
<path opacity="0.3" d="M89.9788 136.787C89.9788 136.787 84.5988 144.885 87.5148 151.54C90.4307 158.195 105.177 155.189 105.177 155.189L95.461 191.381L100.109 192.16C100.109 192.16 116.588 156.289 117.008 150.173C117.428 144.057 99.6359 140.131 99.6359 140.131L89.9788 136.787Z" fill="white"/>
<path opacity="0.2" d="M106.388 118.174C106.388 118.174 98.8561 123.544 92.9004 121.235C92.9004 121.001 92.9542 120.772 92.9757 120.554C93.1317 119.122 93.2286 117.875 93.2931 116.845C95.2232 115.953 97.2269 115.233 99.2811 114.694C101.396 116.325 103.813 117.508 106.388 118.174Z" fill="black"/>
<path d="M95.8962 113.703C99.2103 115.337 102.632 117.368 106.242 118.114C108.319 117.978 110.643 117.123 112.73 116.546L118.987 114.629C119.255 114.544 119.545 114.562 119.8 114.682C120.055 114.801 120.257 115.012 120.367 115.274C120.476 115.536 120.485 115.83 120.393 116.098C120.3 116.366 120.111 116.59 119.864 116.726C117.911 117.815 115.942 118.817 113.903 119.732C111.385 120.777 109.061 121.997 106.22 122.259C105.201 122.246 104.188 122.096 103.208 121.812C99.9002 120.83 96.7157 119.465 93.7173 117.744C93.2402 117.428 92.8976 116.942 92.7574 116.383C92.6172 115.823 92.6895 115.231 92.96 114.723C93.2306 114.215 93.6797 113.828 94.2184 113.64C94.7571 113.451 95.3463 113.473 95.8693 113.703H95.8962Z" fill="#B97864"/>
<path d="M94.1154 113.098C91.2156 113.795 91.1187 118.833 93.7818 121.196L100.238 115.68C100.238 115.68 97.5532 112.271 94.1154 113.098Z" fill="#407BFF"/>
<path d="M119.155 114.655L122.732 114.568L121.118 118.233C121.118 118.233 117.89 118.119 118.046 116.453L119.155 114.655Z" fill="#B97964"/>
<path d="M125.804 116.36L123.351 119.034L121.107 118.233L122.732 114.568L125.804 116.36Z" fill="#B97964"/>
<path d="M173.842 158.75C176.344 163.989 178.754 169.228 180.384 174.837C181.132 178.649 181.272 182.526 181.552 186.311C181.746 189.443 181.859 192.568 181.902 195.711L179.131 196.005C178.254 191.588 177.431 186.66 176.667 182.205C176.301 180.19 176.021 178.208 175.521 176.269C173.616 171.275 170.975 166.135 168.785 161.222L173.842 158.75Z" fill="#DC897C"/>
<path d="M177.974 165.607L173.589 167.731L170.867 169.065L169.215 165.046L167.488 160.836L168.946 153.163C173.422 155.145 177.974 165.607 177.974 165.607Z" fill="#407BFF"/>
<path opacity="0.2" d="M173.59 167.73L170.867 169.065L169.216 165.046C169.555 162.769 169.84 160.836 169.84 160.836C169.84 160.836 173.025 163.728 173.59 167.73Z" fill="black"/>
<path d="M160.457 139.249C160.506 139.575 160.715 139.793 160.925 139.793C161.135 139.793 161.264 139.472 161.216 139.145C161.167 138.818 160.952 138.601 160.742 138.601C160.533 138.601 160.376 138.927 160.457 139.249Z" fill="#263238"/>
<path d="M160.656 139.815C161.19 140.748 161.847 141.602 162.609 142.353C162.416 142.548 162.183 142.698 161.926 142.792C161.67 142.886 161.396 142.922 161.124 142.898L160.656 139.815Z" fill="#DE5753"/>
<path d="M158.977 137.632C158.929 137.63 158.883 137.611 158.848 137.577C158.813 137.541 158.794 137.492 158.794 137.441C158.794 137.39 158.813 137.342 158.848 137.305C159.059 137.086 159.319 136.923 159.605 136.828C159.892 136.733 160.197 136.71 160.495 136.761C160.519 136.766 160.542 136.776 160.563 136.79C160.583 136.804 160.601 136.823 160.615 136.844C160.628 136.865 160.637 136.889 160.642 136.914C160.646 136.939 160.645 136.965 160.64 136.989C160.635 137.014 160.625 137.038 160.611 137.058C160.596 137.079 160.578 137.097 160.557 137.111C160.536 137.124 160.513 137.134 160.488 137.138C160.463 137.142 160.438 137.142 160.414 137.136C160.177 137.102 159.936 137.126 159.711 137.205C159.485 137.285 159.282 137.418 159.117 137.594C159.098 137.609 159.075 137.62 159.051 137.627C159.027 137.633 159.002 137.635 158.977 137.632Z" fill="#263238"/>
<path d="M161.458 144.172C161.355 145.486 160.801 146.723 159.892 147.668C159.292 148.292 158.554 148.764 157.74 149.046C156.961 149.32 156.126 149.393 155.312 149.259C154.498 149.125 153.729 148.788 153.076 148.278C150.773 146.546 150.472 144.188 149.622 140.24C149.412 139.325 149.438 138.37 149.695 137.468C149.953 136.565 150.434 135.744 151.094 135.083C151.753 134.422 152.568 133.942 153.462 133.689C154.356 133.437 155.299 133.42 156.201 133.64C160.312 134.625 161.754 140.458 161.458 144.172Z" fill="#E4897B"/>
<path d="M151.101 146.683C152.715 147.712 158.816 144.82 157.81 139.957C157.81 139.957 160.215 137.294 160.097 134.228C159.978 131.162 157.945 129.871 155.728 130.449C153.759 130.933 153.765 132.017 153.765 132.017C153.765 132.017 144.532 132.676 146.319 136.548C142.391 140.502 149.116 145.403 151.101 146.683Z" fill="#263238"/>
<path d="M156.153 140.714C156.371 141.695 156.902 142.575 157.665 143.219C158.671 144.058 159.488 143.317 159.472 142.13C159.472 141.041 158.934 139.314 157.767 138.939C156.599 138.563 155.927 139.532 156.153 140.714Z" fill="#E4897B"/>
<path opacity="0.2" d="M161.178 145.544C160.909 146.339 160.47 147.065 159.892 147.668C159.291 148.292 158.554 148.764 157.74 149.046C157.193 148.765 156.668 148.443 156.169 148.082L156.987 146.05C156.987 146.05 159.494 147.292 161.178 145.544Z" fill="black"/>
<path d="M152.413 151.666L151.725 146.89C151.725 146.89 154.797 144.712 158.014 146.176L162.856 152.085L152.413 151.666Z" fill="#E4897B"/>
<path d="M163.416 151.497L162.291 149.792C162.291 149.792 154.135 146.737 150.579 150.652C150.579 150.652 158.536 154.911 163.416 151.497Z" fill="#407BFF"/>
<path opacity="0.2" d="M163.416 151.497L162.291 149.792C162.291 149.792 154.135 146.737 150.579 150.652C150.579 150.652 158.536 154.911 163.416 151.497Z" fill="black"/>
<path d="M132.099 197.802L129.027 195.798L130.206 194.018L133.407 189.182L136.484 191.186L132.944 196.528L132.099 197.802Z" fill="#E4897B"/>
<path d="M129.252 195.543L133.556 195.499C133.626 195.501 133.694 195.525 133.748 195.57C133.803 195.614 133.841 195.675 133.858 195.744L134.579 198.908C134.605 199.044 134.579 199.185 134.506 199.303C134.433 199.42 134.319 199.505 134.186 199.54H134.073C132.685 199.54 131.679 199.453 129.941 199.469C128.865 199.469 125.637 199.627 124.163 199.638C122.689 199.649 122.474 198.178 123.087 198.037C125.777 197.411 127.832 196.561 128.693 195.76C128.847 195.621 129.046 195.544 129.252 195.543Z" fill="#263238"/>
<path d="M130.082 192.814L135.71 194.349L166.257 170.889L150.585 167.414C149.466 167.172 148.3 167.28 147.243 167.725C146.186 168.169 145.287 168.929 144.667 169.903L130.082 192.814Z" fill="#263238"/>
<path opacity="0.2" d="M130.082 192.814L135.71 194.349L166.257 170.889L150.585 167.414C149.466 167.172 148.3 167.28 147.243 167.725C146.186 168.169 145.287 168.929 144.667 169.903L130.082 192.814Z" fill="black"/>
<path d="M113.382 197.916L110.208 196.081L111.295 194.24L114.238 189.241L117.412 191.076L114.157 196.599L113.382 197.916Z" fill="#E4897B"/>
<path d="M110.332 195.466H114.636C114.706 195.467 114.774 195.491 114.828 195.536C114.883 195.58 114.921 195.642 114.937 195.711L115.631 198.886C115.655 199.023 115.627 199.164 115.552 199.28C115.477 199.397 115.361 199.48 115.228 199.512H115.115C113.732 199.512 112.72 199.403 110.983 199.403C109.907 199.403 106.679 199.518 105.205 199.518C103.731 199.518 103.531 198.036 104.129 197.884C106.819 197.285 108.89 196.457 109.761 195.667C109.922 195.533 110.124 195.462 110.332 195.466Z" fill="#263238"/>
<path d="M173.628 183.207L152.269 183.262C151.731 181.345 151.053 174.674 148.966 166.423C148.401 164.185 147.728 161.832 146.938 159.42C146.281 157.238 145.483 155.102 144.549 153.027C146.481 151.844 148.605 151.016 150.822 150.581C160.275 148.948 168.947 153.163 168.947 153.163C168.947 153.163 172.697 163.728 173.628 183.207Z" fill="#407BFF"/>
<path opacity="0.2" d="M148.966 166.424C148.401 164.186 147.728 161.833 146.938 159.42L148.428 158.811C148.428 158.811 150.773 164.164 148.966 166.424Z" fill="black"/>
<path d="M139.62 170.126L142.1 171.314L143.047 167.088C143.047 167.088 141.067 166.385 139.582 167.409L139.62 170.126Z" fill="#E4897B"/>
<path d="M145.656 172.746L145.769 168.896L143.046 167.088L142.1 171.314L145.656 172.746Z" fill="#E4897B"/>
<path d="M147.351 159.644C143.225 161.904 138.512 164.001 134.923 166.958C134.843 167.028 134.87 167.061 134.961 166.745C134.978 166.544 134.953 166.342 134.886 166.152C134.826 165.945 134.694 165.766 134.515 165.651C134.445 165.623 134.488 165.689 134.585 165.754C134.719 165.839 134.861 165.91 135.01 165.966C136.667 166.604 138.964 166.816 140.82 167.056L141.1 169.86C140.513 170.029 139.965 170.143 139.389 170.252C137.237 170.628 135.004 170.895 132.739 170.138C131.766 169.842 130.945 169.173 130.449 168.275C129.954 167.376 129.824 166.318 130.087 165.324C131.195 161.343 141.223 156.376 144.903 154.53L147.351 159.649V159.644Z" fill="#DC897C"/>
<path d="M151.262 178.66L150.304 181.144C150.304 181.144 138.861 166.832 132.55 166.015C126.24 165.198 111.568 192.395 111.568 192.395L117.131 194.099L132.787 179.722C139.243 191.126 146.963 199.49 156.142 199.49H165.105C175.128 199.49 175.241 188.174 173.261 178.579L151.262 178.66Z" fill="#263238"/>
<path d="M144.549 153.026C140.96 154.355 136.742 158.385 136.742 158.385C136.742 158.385 140.293 164.615 140.648 164.375C141.003 164.136 148.288 162.023 148.288 162.023C148.288 162.023 149.773 160.073 148.632 156.773C148.335 155.841 147.802 155.005 147.085 154.347C146.369 153.689 145.494 153.234 144.549 153.026Z" fill="#407BFF"/>
<path d="M180.584 193.832L184.485 194.028L182.424 197.884C182.424 197.884 178.954 197.497 179.228 195.705L180.584 193.832Z" fill="#E4897B"/>
<path d="M187.68 196.228L184.802 198.935L182.424 197.884L184.484 194.028L187.68 196.228Z" fill="#E4897B"/>
<path d="M59.7005 154.781C62.3152 157.449 64.8922 160.439 68.0234 162.459C68.0234 162.459 68.217 162.563 68.2332 162.579C68.1489 162.547 68.0594 162.533 67.9696 162.535C67.8889 162.535 68.018 162.535 68.1579 162.535C71.7302 161.512 75.0496 159.154 78.3368 157.34C78.5913 157.185 78.8932 157.13 79.1851 157.186C79.477 157.241 79.7386 157.403 79.92 157.641C80.1014 157.88 80.19 158.177 80.1689 158.477C80.1478 158.777 80.0185 159.058 79.8056 159.268C77.2447 161.67 70.3421 168.09 66.716 166.745C64.4995 165.923 62.6487 164.376 60.9056 162.889C59.2029 161.396 57.5981 159.791 56.1013 158.086C54.0515 155.619 57.4732 152.477 59.7005 154.786V154.781Z" fill="#E9B376"/>
<path d="M64.1976 158.549C63.7403 162.012 60.9696 165.41 60.9696 165.41L60.3886 165.007L57.5587 163.107C57.5587 163.107 57.5049 162.943 57.4242 162.655C57.3435 162.366 57.2413 162.028 57.1175 161.566C56.4665 159.257 55.2937 154.938 55.1484 153.146C58.6616 153.065 60.2433 154.758 64.1976 158.549Z" fill="#407BFF"/>
<path opacity="0.7" d="M64.1976 158.549C63.7403 162.012 60.9696 165.41 60.9696 165.41L60.3886 165.007L57.5587 163.107C57.5587 163.107 57.5049 162.943 57.4242 162.655C57.3435 162.366 57.2413 162.028 57.1175 161.566C56.4665 159.257 55.2937 154.938 55.1484 153.146C58.6616 153.065 60.2433 154.758 64.1976 158.549Z" fill="white"/>
<path opacity="0.2" d="M60.3882 165.007L57.5583 163.107C57.5583 163.107 57.5045 162.943 57.4238 162.655C57.5288 161.778 57.6869 160.909 57.8973 160.052C58.6428 160.645 59.2518 161.396 59.682 162.252C60.1121 163.108 60.3531 164.048 60.3882 165.007Z" fill="black"/>
<path d="M56.9458 175.627L59.3614 179.907C65.8174 178.383 86.5735 175.18 89.1182 182.385C92.287 191.333 69.4059 198.472 56.7468 198.908C44.0876 199.343 33.0425 196.294 41.0479 177.609L56.9458 175.627Z" fill="#263238"/>
<path opacity="0.2" d="M56.9458 175.627L59.3614 179.907C65.8174 178.383 86.5735 175.18 89.1182 182.385C92.287 191.333 69.4059 198.472 56.7468 198.908C44.0876 199.343 33.0425 196.294 41.0479 177.609L56.9458 175.627Z" fill="black"/>
<path d="M85.4543 195.036C85.4397 195.045 85.423 195.05 85.4058 195.05C85.3887 195.05 85.3719 195.045 85.3574 195.036C85.3498 195.024 85.3457 195.009 85.3457 194.995C85.3457 194.981 85.3498 194.966 85.3574 194.954C85.4005 194.813 85.8201 193.582 86.2451 193.451C86.2897 193.44 86.3364 193.441 86.3807 193.453C86.4249 193.466 86.4653 193.489 86.498 193.522C86.5563 193.572 86.6009 193.636 86.6273 193.709C86.6537 193.781 86.6611 193.86 86.6486 193.936C86.5792 194.167 86.44 194.371 86.2505 194.519C86.0034 194.718 85.7366 194.892 85.4543 195.036ZM85.5619 194.802C85.9572 194.628 86.2766 194.314 86.4603 193.919C86.4723 193.868 86.469 193.814 86.4508 193.765C86.4326 193.715 86.4004 193.673 86.3581 193.642C86.3461 193.627 86.33 193.616 86.3119 193.61C86.2937 193.604 86.2742 193.604 86.2559 193.609C86.22 193.622 86.1871 193.643 86.159 193.669C85.8936 194.007 85.6913 194.391 85.5619 194.802Z" fill="#263238"/>
<path d="M85.4267 195.052C85.4161 195.061 85.4028 195.066 85.389 195.066C85.3753 195.066 85.362 195.061 85.3514 195.052C85.3083 195.019 84.7273 194.273 84.8134 193.767C84.8237 193.704 84.8467 193.644 84.8809 193.59C84.9152 193.537 84.96 193.491 85.0124 193.456C85.0579 193.415 85.1155 193.389 85.1766 193.383C85.2376 193.377 85.2989 193.391 85.3514 193.424C85.658 193.647 85.6204 194.643 85.4697 195.025V195.063L85.4267 195.052ZM85.0985 193.592C85.0447 193.636 85.0084 193.698 84.9963 193.767C85.0125 194.144 85.1504 194.506 85.389 194.796C85.4805 194.371 85.4536 193.669 85.2707 193.543C85.2707 193.543 85.2169 193.5 85.1254 193.543V193.571L85.0985 193.592Z" fill="#263238"/>
<path d="M63.1977 197.138C63.206 197.124 63.218 197.113 63.2324 197.106C63.2467 197.1 63.2627 197.097 63.2784 197.1C63.2929 197.101 63.3066 197.106 63.3173 197.116C63.328 197.126 63.3352 197.139 63.3376 197.154C63.3698 197.301 63.5904 198.586 63.2838 198.908C63.2492 198.939 63.2072 198.96 63.1619 198.97C63.1165 198.979 63.0695 198.977 63.0255 198.962C62.9498 198.949 62.879 198.916 62.821 198.865C62.7631 198.814 62.7203 198.748 62.6973 198.673C62.6442 198.44 62.6688 198.195 62.7673 197.976C62.8815 197.682 63.0258 197.401 63.1977 197.138ZM63.1977 197.399C62.9358 197.744 62.8041 198.173 62.8265 198.608C62.8412 198.66 62.8712 198.707 62.9124 198.742C62.9537 198.777 63.0043 198.799 63.0578 198.804C63.0729 198.814 63.0907 198.82 63.1089 198.82C63.1271 198.82 63.1449 198.814 63.16 198.804C63.1842 198.775 63.2025 198.742 63.2138 198.706C63.2945 198.274 63.2945 197.831 63.2138 197.399H63.1977Z" fill="#263238"/>
<path d="M71.483 190.652L66.2751 192.531L63.7734 193.435L64.4137 196.207L66.8347 195.684L72.7527 194.405L71.483 190.652Z" fill="#EBB376"/>
<path d="M65.0958 196.337L64.6547 193.07C64.6488 193.027 64.6344 192.985 64.6125 192.948C64.5905 192.911 64.5614 192.878 64.5268 192.852C64.4922 192.826 64.4529 192.808 64.4111 192.797C64.3693 192.787 64.3259 192.785 64.2834 192.792L62.6694 193.065C62.6694 193.065 60.5174 193.266 60.0709 193.832C58.812 195.466 59.5975 202.731 60.4367 202.987C60.7434 203.079 61.0662 202.655 61.2007 202.361C61.6257 201.424 62.3735 198.979 62.7394 198.205C63.159 197.296 64.3534 196.855 64.8483 196.697C64.9262 196.679 64.9947 196.632 65.0404 196.565C65.0861 196.499 65.1059 196.418 65.0958 196.337Z" fill="#407BFF"/>
<path d="M63.208 197.138C63.2198 197.13 63.2339 197.125 63.2484 197.125C63.2628 197.125 63.2769 197.13 63.2887 197.138C63.3372 197.138 64.2087 197.519 64.3647 198.004C64.3837 198.065 64.3906 198.129 64.3851 198.192C64.3795 198.256 64.3617 198.318 64.3325 198.374C64.3153 198.434 64.2781 198.487 64.2271 198.523C64.1761 198.558 64.1145 198.575 64.0527 198.57C63.6815 198.527 63.2349 197.634 63.1865 197.231V197.138C63.1936 197.136 63.2009 197.136 63.208 197.138ZM64.198 198.254C64.2194 198.187 64.2194 198.115 64.198 198.047C64.0957 197.737 63.6115 197.465 63.3641 197.339C63.4824 197.759 63.8429 198.358 64.0635 198.38C64.0635 198.38 64.128 198.38 64.1764 198.287V198.254H64.198Z" fill="#263238"/>
<path opacity="0.2" d="M71.4823 190.652L66.2744 192.531L66.8339 195.684L72.7519 194.405L71.4823 190.652Z" fill="black"/>
<path d="M67.7598 196.158L69.2554 196.267L68.2548 191.05L66.5547 191.997L67.7598 196.158Z" fill="#407BFF"/>
<path opacity="0.6" d="M67.7598 196.158L69.2554 196.267L68.2548 191.05L66.5547 191.997L67.7598 196.158Z" fill="white"/>
<path opacity="0.2" d="M46.0293 175.899L53.8303 184.656C53.8303 184.656 62.4383 184.46 72.9293 189.645C72.9293 189.645 84.1681 184.945 85.2011 181.04C86.5568 175.927 59.3771 179.924 59.3771 179.924L46.0293 175.899Z" fill="black"/>
<path d="M56.8652 179.401L40.9565 177.533C41.2612 175.871 41.441 174.187 41.4945 172.496C41.5582 170.087 41.4648 167.677 41.2147 165.28C40.9942 162.988 40.6767 160.352 40.1387 157.259C40.0311 156.706 40.0471 156.135 40.1855 155.589C40.324 155.043 40.5814 154.535 40.9389 154.103C41.2963 153.67 41.7448 153.324 42.2515 153.09C42.7582 152.856 43.3102 152.74 43.8671 152.75C44.5073 152.75 45.1798 152.782 45.8684 152.826C48.3046 152.936 50.7299 153.222 53.1261 153.681C53.9008 153.839 54.7024 154.035 55.4717 154.225C58.2317 154.95 59.9425 158.468 59.7058 161.305C59.6127 163.51 59.3718 165.706 58.9849 167.878C58.4953 171.08 57.9196 174.206 56.8652 179.401Z" fill="#407BFF"/>
<path opacity="0.7" d="M56.8652 179.401L40.9565 177.533C41.2612 175.871 41.441 174.187 41.4945 172.496C41.5582 170.087 41.4648 167.677 41.2147 165.28C40.9942 162.988 40.6767 160.352 40.1387 157.259C40.0311 156.706 40.0471 156.135 40.1855 155.589C40.324 155.043 40.5814 154.535 40.9389 154.103C41.2963 153.67 41.7448 153.324 42.2515 153.09C42.7582 152.856 43.3102 152.74 43.8671 152.75C44.5073 152.75 45.1798 152.782 45.8684 152.826C48.3046 152.936 50.7299 153.222 53.1261 153.681C53.9008 153.839 54.7024 154.035 55.4717 154.225C58.2317 154.95 59.9425 158.468 59.7058 161.305C59.6127 163.51 59.3718 165.706 58.9849 167.878C58.4953 171.08 57.9196 174.206 56.8652 179.401Z" fill="white"/>
<path opacity="0.2" d="M41.5053 172.501C41.5691 170.092 41.4756 167.682 41.2256 165.285C43.2162 162.906 45.0992 160.929 45.0992 160.929C45.0992 160.929 48.2196 169.059 41.5053 172.501Z" fill="black"/>
<path d="M44.0178 160.047C44.2007 163.494 44.1684 168.858 44.7871 172.153L44.6257 171.75C44.5181 171.592 44.5827 171.75 44.6957 171.837C44.8412 171.983 44.9958 172.12 45.1584 172.246C47.3104 173.879 49.8928 175.137 52.3191 176.439L55.3804 178.035C55.6457 178.169 55.8529 178.398 55.9626 178.677C56.0722 178.957 56.0767 179.267 55.9751 179.549C55.8734 179.832 55.6729 180.066 55.4114 180.209C55.15 180.351 54.846 180.391 54.5572 180.322C53.3898 180.039 52.2707 179.701 51.1355 179.352C47.9075 178.263 44.5935 177.218 41.8174 175.088C41.2752 174.662 40.8539 174.099 40.5961 173.455C39.3533 168.989 39.2565 164.676 39.165 160.123C39.278 156.948 43.8187 156.888 44.007 160.063L44.0178 160.047Z" fill="#E9B376"/>
<path d="M59.674 177.838L58.7056 177.124C58.5262 176.993 58.3182 176.907 58.0991 176.874C57.8801 176.841 57.6563 176.861 57.4467 176.934L55.4561 177.609C55.0637 177.744 54.7087 177.971 54.4205 178.272C54.1323 178.573 53.9193 178.94 53.7991 179.341L53.6484 179.847C55.1764 181.133 57.7641 181.389 57.7641 181.389L58.4904 181.541C58.6392 181.577 58.7936 181.583 58.9447 181.559C59.0958 181.534 59.2406 181.48 59.3707 181.398C59.5008 181.317 59.6136 181.21 59.7026 181.084C59.7916 180.958 59.8551 180.815 59.8892 180.664L60.212 179.205C60.2639 178.949 60.2406 178.683 60.145 178.44C60.0494 178.197 59.8857 177.988 59.674 177.838Z" fill="#EBB376"/>
<path d="M42.5653 152.973C39.4557 154.1 38.5626 156.845 38.498 162.568C40.112 164.055 45.0132 164.137 45.0132 164.137C45.0132 164.137 45.8633 155.456 42.5653 152.973Z" fill="#407BFF"/>
<path d="M80.2362 180.991V182.287C80.2362 182.62 79.8488 182.756 79.5206 182.756H53.9333C53.5998 182.756 53.207 182.62 53.207 182.287V180.991H80.2362Z" fill="#263238"/>
<path opacity="0.4" d="M80.2362 180.991V182.287C80.2362 182.62 79.8488 182.756 79.5206 182.756H53.9333C53.5998 182.756 53.207 182.62 53.207 182.287V180.991H80.2362Z" fill="white"/>
<path opacity="0.2" d="M80.2359 180.991V182.287C80.2359 182.62 79.8485 182.756 79.5204 182.756H62.6272C62.299 182.756 61.9062 182.62 61.9062 182.287V180.991H80.2359Z" fill="black"/>
<path d="M84.5231 167.518L81.4726 181.519C81.4162 181.743 81.2888 181.942 81.11 182.086C80.9312 182.229 80.7109 182.31 80.4827 182.314H63.8047C63.7009 182.312 63.5991 182.284 63.5074 182.235C63.4157 182.186 63.3366 182.116 63.2761 182.03C63.2157 181.945 63.1756 181.846 63.159 181.743C63.1424 181.639 63.1498 181.533 63.1806 181.432L66.2257 167.54C66.2879 167.328 66.4202 167.144 66.6005 167.019C66.7807 166.894 66.9979 166.836 67.2156 166.854H83.8936C84.3401 166.854 84.5984 167.061 84.5231 167.518Z" fill="#263238"/>
<path opacity="0.4" d="M84.5237 167.518L81.4732 181.519C81.4168 181.743 81.2894 181.942 81.1106 182.086C80.9318 182.229 80.7115 182.31 80.4833 182.314H64.3863C64.2825 182.311 64.1807 182.284 64.0889 182.235C63.9971 182.186 63.9177 182.116 63.8569 182.03C63.796 181.945 63.7554 181.847 63.738 181.743C63.7207 181.639 63.7271 181.533 63.7569 181.432L66.8073 167.54C66.8695 167.328 67.0019 167.144 67.1821 167.019C67.3623 166.894 67.5795 166.836 67.7972 166.854H83.8942C84.3407 166.854 84.599 167.061 84.5237 167.518Z" fill="white"/>
<path opacity="0.2" d="M76.3085 174.63C76.2553 175.198 76.0051 175.729 75.6023 176.127C75.1995 176.526 74.6701 176.768 74.1081 176.809C73.1774 176.809 72.6232 175.834 72.8922 174.63C73.1612 173.427 74.0812 172.496 74.9904 172.452C74.7268 173.65 75.2971 174.63 76.2225 174.63H76.3085Z" fill="black"/>
<path d="M78.9502 159.715L82.5332 159.807L80.9192 156.137C80.9192 156.137 77.7235 156.251 77.8473 157.918L78.9502 159.715Z" fill="#EBB376"/>
<path d="M85.6049 158.021L83.1517 155.342L80.9082 156.137L82.533 159.807L85.6049 158.021Z" fill="#EBB376"/>
<path d="M45.0826 152.787C44.7168 152.76 45.8358 157.307 51.2696 158.429C56.7034 159.551 56.2838 154.492 55.8587 153.223C55.8587 153.223 48.7141 153.027 45.0826 152.787Z" fill="#EBB376"/>
<path d="M46.5727 135.007C46.5727 135.007 49.6877 131.511 55.3851 133.313C61.0825 135.116 60.8404 145.408 57.946 149.144C53.413 148.983 48.8783 149.411 44.453 150.418C44.453 150.418 41.7092 142.952 43.0703 138.563C44.4314 134.174 46.5727 135.007 46.5727 135.007Z" fill="#263238"/>
<path d="M47.7186 145.272C48.079 147.701 48.3588 152.101 46.6426 153.496C46.6426 153.496 48.8807 153.419 53.2223 156.894C54.7987 155.086 53.8679 154.34 53.8679 154.34C51.3017 153.408 51.4469 151.448 51.9688 149.656L47.7186 145.272Z" fill="#EBB376"/>
<path opacity="0.2" d="M49.4622 147.063L51.9961 149.656C51.8683 150.075 51.7765 150.505 51.7218 150.941C50.7372 150.68 49.4191 149.411 49.3599 148.338C49.3182 147.91 49.3528 147.479 49.4622 147.063Z" fill="black"/>
<path d="M46.2713 140.317C46.5403 144.2 46.5779 145.844 48.5094 147.941C51.4199 151.056 56.0414 150.119 56.8753 146.307C57.6554 142.865 57.0797 137.093 53.3567 135.388C52.5714 134.995 51.6966 134.821 50.8226 134.884C49.9485 134.947 49.107 135.245 48.3848 135.747C47.6626 136.25 47.0859 136.938 46.7144 137.741C46.3429 138.545 46.1899 139.434 46.2713 140.317Z" fill="#EBB376"/>
<path d="M50.9956 141.509C50.9956 141.842 51.1732 142.108 51.383 142.119C51.5928 142.13 51.7434 141.869 51.7381 141.542C51.7327 141.215 51.5551 140.943 51.3507 140.938C51.1463 140.932 50.9849 141.183 50.9956 141.509Z" fill="#263238"/>
<path d="M55.0088 141.552C55.0088 141.879 55.1917 142.151 55.3961 142.162C55.6006 142.173 55.7566 141.912 55.7512 141.585C55.7458 141.258 55.5683 140.986 55.3639 140.981C55.1594 140.975 55.0088 141.226 55.0088 141.552Z" fill="#263238"/>
<path d="M55.2559 140.992L56.0037 140.796C56.0037 140.796 55.6325 141.395 55.2559 140.992Z" fill="#263238"/>
<path d="M53.793 142.223C54.0938 142.981 54.4879 143.698 54.9658 144.357C54.8047 144.468 54.6208 144.541 54.428 144.571C54.2352 144.6 54.0384 144.585 53.8521 144.526L53.793 142.223Z" fill="#D58745"/>
<path d="M50.3494 139.44C50.3737 139.444 50.3985 139.442 50.4218 139.434C50.4452 139.427 50.4665 139.414 50.4839 139.396C50.6519 139.239 50.856 139.127 51.0778 139.069C51.2995 139.012 51.5319 139.012 51.7536 139.069C51.7762 139.077 51.8001 139.079 51.8237 139.077C51.8474 139.075 51.8703 139.067 51.891 139.056C51.9117 139.044 51.9298 139.028 51.9441 139.009C51.9584 138.99 51.9687 138.968 51.9742 138.944C51.9876 138.894 51.9811 138.84 51.956 138.794C51.9309 138.748 51.8892 138.714 51.8397 138.699C51.5589 138.623 51.2637 138.62 50.9815 138.69C50.6992 138.761 50.4392 138.902 50.2257 139.102C50.1912 139.138 50.1719 139.186 50.1719 139.236C50.1719 139.285 50.1912 139.333 50.2257 139.369C50.2566 139.408 50.3008 139.433 50.3494 139.44Z" fill="#263238"/>
<path d="M56.5694 139.472C56.6127 139.489 56.6606 139.489 56.7039 139.472C56.7247 139.459 56.7427 139.442 56.7568 139.421C56.7709 139.401 56.7807 139.378 56.7858 139.353C56.7908 139.329 56.7909 139.304 56.7861 139.279C56.7812 139.255 56.7716 139.232 56.7577 139.211C56.6098 138.942 56.4029 138.712 56.1528 138.537C55.9028 138.362 55.6164 138.248 55.3158 138.203C55.2919 138.202 55.2679 138.205 55.2453 138.214C55.2228 138.222 55.2023 138.235 55.1851 138.252C55.1678 138.269 55.1543 138.29 55.1453 138.312C55.1363 138.335 55.1321 138.359 55.1329 138.383C55.1338 138.434 55.1527 138.483 55.1863 138.521C55.2199 138.559 55.2659 138.584 55.3158 138.59C55.5536 138.627 55.7798 138.719 55.9767 138.858C56.1737 138.998 56.336 139.182 56.451 139.396C56.4648 139.416 56.4824 139.433 56.5027 139.446C56.523 139.459 56.5457 139.468 56.5694 139.472Z" fill="#263238"/>
<path d="M51.2432 140.948L51.991 140.758C51.991 140.758 51.6359 141.351 51.2432 140.948Z" fill="#263238"/>
<path d="M47.0677 142.647C47.0677 142.647 50.0267 140.295 49.3542 136.613C49.3542 136.613 54.6481 134.495 56.7355 139.881C56.7355 139.881 57.1767 135.263 52.2002 134.359C47.2237 133.455 41.3326 140.284 46.9708 145.463L47.0677 142.647Z" fill="#263238"/>
<path d="M45.0508 143.453C45.2428 143.813 45.5032 144.132 45.8171 144.39C46.1311 144.647 46.4923 144.84 46.88 144.956C47.8861 145.234 48.338 144.232 48.0152 143.197C47.7193 142.266 46.8424 141.019 45.8632 141.177C44.884 141.335 44.5505 142.533 45.0508 143.453Z" fill="#EBB376"/>
<path d="M57.3166 142.168C57.2924 142.168 57.2688 142.16 57.2495 142.145C57.2301 142.13 57.2159 142.11 57.209 142.086C55.3098 135.317 49.0421 136.711 48.9776 136.722C48.9638 136.725 48.9495 136.726 48.9356 136.723C48.9216 136.721 48.9083 136.716 48.8963 136.708C48.8843 136.701 48.8739 136.691 48.8657 136.679C48.8575 136.668 48.8516 136.654 48.8485 136.64C48.8453 136.627 48.8448 136.612 48.8472 136.598C48.8495 136.584 48.8546 136.57 48.8621 136.558C48.8696 136.546 48.8793 136.536 48.8909 136.527C48.9024 136.519 48.9154 136.513 48.9292 136.51C48.9937 136.51 55.4659 135.056 57.4188 142.026C57.4229 142.04 57.4242 142.055 57.4226 142.069C57.421 142.084 57.4165 142.098 57.4095 142.111C57.4025 142.123 57.393 142.134 57.3817 142.143C57.3703 142.152 57.3574 142.159 57.3435 142.163L57.3166 142.168Z" fill="#263238"/>
<path d="M54.0407 145.654C53.8529 146.099 53.6982 146.557 53.578 147.026H53.3251C52.1899 146.901 51.7111 146.481 51.5067 146.018C51.415 145.798 51.3763 145.56 51.3937 145.321C51.402 145.186 51.4273 145.053 51.469 144.924C52.1384 145.316 52.8834 145.557 53.6533 145.632C53.89 145.643 54.0407 145.654 54.0407 145.654Z" fill="#263238"/>
<path d="M53.6532 145.609L53.5079 146.007C52.4319 145.893 51.6948 145.664 51.3936 145.299C51.4018 145.164 51.4271 145.03 51.4689 144.901C52.1382 145.294 52.8833 145.535 53.6532 145.609Z" fill="white"/>
<path d="M53.3243 147.004C52.1891 146.878 51.7103 146.459 51.5059 145.996C51.9371 146.053 52.3556 146.183 52.7433 146.383C52.9957 146.524 53.1988 146.741 53.3243 147.004Z" fill="#DE5753"/>
<path d="M53.1419 163.799C53.1248 163.8 53.1077 163.797 53.0919 163.791C53.076 163.784 53.0619 163.774 53.0505 163.761C50.1918 160.658 48.0363 156.962 46.7343 152.929C46.7261 152.896 46.7311 152.861 46.7482 152.831C46.7653 152.802 46.7932 152.78 46.8258 152.771C46.8417 152.767 46.8582 152.767 46.8745 152.769C46.8907 152.771 46.9062 152.777 46.9203 152.786C46.9343 152.794 46.9465 152.806 46.9561 152.819C46.9658 152.833 46.9727 152.848 46.9764 152.864C48.2436 156.786 50.3278 160.387 53.0881 163.423C53.4109 162.334 54.7505 157.161 52.733 153.196C52.7232 153.167 52.7241 153.135 52.7355 153.106C52.7469 153.077 52.7682 153.053 52.7955 153.039C52.8227 153.024 52.8541 153.02 52.8841 153.027C52.9141 153.034 52.9407 153.051 52.959 153.076C55.267 157.613 53.2818 163.652 53.2603 163.712C53.2532 163.733 53.2412 163.752 53.2252 163.767C53.2093 163.782 53.1899 163.793 53.1688 163.799H53.1419Z" fill="#263238"/>
<path d="M53.3087 163.57L53.7175 164.115C53.7542 164.161 53.7742 164.219 53.7742 164.278C53.7742 164.338 53.7542 164.395 53.7175 164.442L53.3033 164.986C53.2785 165.016 53.2477 165.04 53.2128 165.056C53.178 165.073 53.14 165.081 53.1015 165.081C53.0631 165.081 53.0251 165.073 52.9903 165.056C52.9554 165.04 52.9245 165.016 52.8998 164.986L52.5124 164.54C52.4784 164.494 52.46 164.439 52.46 164.382C52.46 164.325 52.4784 164.269 52.5124 164.224L52.8567 163.592C52.8793 163.553 52.9112 163.52 52.9497 163.496C52.9881 163.472 53.0319 163.459 53.0768 163.456C53.1218 163.454 53.1666 163.463 53.2071 163.483C53.2476 163.503 53.2825 163.533 53.3087 163.57Z" fill="white"/>
<path opacity="0.7" d="M42.5653 152.973C39.4557 154.1 38.5626 156.845 38.498 162.568C40.112 164.055 45.0132 164.137 45.0132 164.137C45.0132 164.137 45.8633 155.456 42.5653 152.973Z" fill="white"/>
<path d="M75.0977 196.654L80.553 197.563L83.173 197.999L83.937 195.26L81.5698 194.53L75.7809 192.749L75.0977 196.654Z" fill="#EBB376"/>
<path d="M83.4048 194.812L82.2266 197.884C82.2111 197.925 82.2039 197.969 82.2052 198.013C82.2066 198.057 82.2166 198.1 82.2346 198.14C82.2526 198.18 82.2783 198.216 82.3102 198.246C82.3421 198.276 82.3795 198.299 82.4203 198.314L83.9428 198.859C83.9428 198.859 85.9388 199.741 86.5844 199.458C88.4728 198.635 91.2542 191.899 90.6409 191.289C90.415 191.055 89.9308 191.289 89.6725 191.463C88.8548 192.073 87.0309 193.843 86.3423 194.344C85.5353 194.932 84.3033 194.747 83.7707 194.633C83.6985 194.613 83.622 194.621 83.5549 194.654C83.4877 194.687 83.4345 194.743 83.4048 194.812Z" fill="#407BFF"/>
<path opacity="0.2" d="M75.0977 196.654L80.553 197.563L81.5698 194.53L75.7809 192.749L75.0977 196.654Z" fill="black"/>
<path d="M80.6286 193.957C80.6286 193.957 58.3877 181.301 50.705 181.661C43.0224 182.02 41.9249 188.871 45.0883 193.157C48.2518 197.443 54.1052 198.488 54.1052 198.488C54.1052 198.488 50.1294 192.781 50.705 191.191C51.2807 189.601 53.5295 191.823 53.5295 191.823C53.5295 191.823 67.5175 196.397 79.7678 197.448L80.6286 193.957Z" fill="#263238"/>
<path d="M80.9896 193.609L79.7307 192.754L78.1113 197.78H80.0535L80.9896 193.609Z" fill="#407BFF"/>
<path opacity="0.6" d="M80.9896 193.609L79.7307 192.754L78.1113 197.78H80.0535L80.9896 193.609Z" fill="white"/>
</svg>
