<svg width="84" height="84" viewBox="0 0 84 84" fill="none" xmlns="http://www.w3.org/2000/svg">
<rect width="84" height="84" rx="8" fill="#EBE9FF"/>
<g clip-path="url(#clip0_5384_404)">
<path d="M21.584 15V21.75H14.834V26.25H21.584V33H26.084V26.25H32.834V21.75H26.084V15H21.584ZM35.084 21.75V28.5H28.334V35.25H21.584V57.75C21.584 60.225 23.5865 62.25 26.084 62.25H57.584C60.0815 62.25 62.084 60.2475 62.084 57.75V55.5H41.834C39.359 55.5 37.334 53.4975 37.334 51V33C37.334 30.525 39.3365 28.5 41.834 28.5H62.084V26.25C62.084 23.775 60.0815 21.75 57.584 21.75H35.084ZM41.834 33V51H64.334V33H41.834ZM50.834 38.625C52.7015 38.625 54.209 40.1325 54.209 42C54.209 43.8675 52.7015 45.375 50.834 45.375C48.9665 45.375 47.459 43.8675 47.459 42C47.459 40.1325 48.9665 38.625 50.834 38.625Z" fill="#3020E2"/>
</g>
<defs>
<clipPath id="clip0_5384_404">
<rect width="54" height="54" fill="white" transform="translate(14.834 15)"/>
</clipPath>
</defs>
</svg>
