<svg width="84" height="84" viewBox="0 0 84 84" fill="none" xmlns="http://www.w3.org/2000/svg">
<rect width="84" height="84" rx="8" fill="#EBE9FF"/>
<path d="M61.6223 52.3998C62.4973 50.2748 62.9723 47.9998 62.9723 45.4998C62.9723 43.6998 62.6973 41.9748 62.2223 40.3748C60.5973 40.7498 58.8973 40.9498 57.1223 40.9498C49.4723 40.9498 42.6973 37.1748 38.5723 31.3498C36.3473 36.7498 32.0973 41.1498 26.7473 43.5498C26.6473 44.1748 26.6473 44.8498 26.6473 45.4998C26.6473 50.3201 28.5621 54.943 31.9706 58.3515C35.3791 61.7599 40.002 63.6748 44.8223 63.6748C47.4473 63.6748 49.9723 63.0998 52.2473 62.0748C53.6723 64.7998 54.3223 66.1498 54.2723 66.1498C50.1723 67.5248 46.9973 68.1998 44.8223 68.1998C38.7723 68.1998 32.9973 65.8248 28.7473 61.5498C26.1473 58.9498 24.2223 55.7748 23.1473 52.3248H19.8223V40.9498H22.5473C24.6473 30.5998 33.8223 22.7998 44.8223 22.7998C50.8223 22.7998 56.5973 25.1748 60.8723 29.4498C64.0473 32.5998 66.1723 36.6248 67.0473 40.9498H69.8223V52.1748V52.2248V52.3248H69.6723L60.7723 60.4998L47.5223 58.9998V54.8248H59.5973L61.6223 52.3998ZM37.9973 44.9248C38.7473 44.9248 39.4723 45.2248 39.9973 45.7748C40.5223 46.2998 40.8223 47.0248 40.8223 47.7748C40.8223 48.5248 40.5223 49.2498 39.9973 49.7748C39.4723 50.2998 38.7473 50.5998 37.9973 50.5998C36.4223 50.5998 35.1473 49.3498 35.1473 47.7748C35.1473 46.1998 36.4223 44.9248 37.9973 44.9248ZM51.6223 44.9248C53.1973 44.9248 54.4473 46.1998 54.4473 47.7748C54.4473 49.3498 53.1973 50.5998 51.6223 50.5998C50.0473 50.5998 48.7723 49.3498 48.7723 47.7748C48.7723 47.0189 49.0725 46.294 49.607 45.7596C50.1415 45.2251 50.8664 44.9248 51.6223 44.9248Z" fill="#130CB7"/>
</svg>
