<svg width="84" height="84" viewBox="0 0 84 84" fill="none" xmlns="http://www.w3.org/2000/svg">
<rect width="84" height="84" rx="8" fill="#EBE9FF"/>
<path d="M26.4684 27.25C24.5934 25.9167 24.1351 23.3333 25.4476 21.4375C26.7809 19.5625 29.3643 19.1042 31.2601 20.4167C33.1351 21.75 33.5934 24.3333 32.2809 26.2292C30.9476 28.1042 28.3643 28.5625 26.4684 27.25ZM48.6559 55.0833H33.9268C30.8434 55.0833 28.2184 52.8333 27.7601 49.7917L23.6559 30.0833H19.4893L23.6559 50.4167C24.4268 55.5 28.8018 59.25 33.9476 59.25H48.6559M49.1351 46.75H38.9684L36.8226 38.2083C40.1143 40.0625 43.6559 41.4167 47.5518 40.75V36.3333C44.1559 36.9583 40.3851 35.75 37.7809 33.7083L34.3643 31.0625C33.8851 30.6875 33.3434 30.4375 32.7809 30.2708C32.1143 30.0833 31.4059 30.0208 30.7184 30.1458H30.6768C28.1143 30.6042 26.4059 33.0417 26.8434 35.5833L29.6559 47.9167C30.2393 50.9167 32.8018 53 35.8018 53H50.0726L58.0309 59.25L61.1559 56.125" fill="#130CB7"/>
</svg>
