<svg width="85" height="84" viewBox="0 0 85 84" fill="none" xmlns="http://www.w3.org/2000/svg">
<rect x="0.5" width="84" height="84" rx="8" fill="#EBE9FF"/>
<path d="M27.6203 18.2891C23.3703 18.2891 19.115 21.4766 19.115 27.8516L27.6203 44.8516L36.1203 27.8516C36.1203 21.4766 31.8703 18.2891 27.6203 18.2891ZM65.1133 23.4688C64.1969 23.5073 63.307 23.6813 62.5633 23.8406L63.068 26.1781C63.8117 26.0121 64.582 25.9072 65.2328 25.8594L65.1133 23.4688ZM27.6203 23.6016C29.9711 23.6016 31.8703 25.5048 31.8703 27.8516C31.8703 30.2023 29.9711 32.1016 27.6203 32.1016C25.2735 32.1016 23.3703 30.2023 23.3703 27.8516C23.3703 25.5048 25.2735 23.6016 27.6203 23.6016ZM67.7562 23.6281L67.3578 25.9789C68.0086 26.1157 68.6594 26.287 69.2305 26.6297L70.3859 24.5312C69.5758 24.0996 68.6727 23.7118 67.7562 23.6281ZM60.1195 24.518C59.3094 24.8341 58.4992 25.117 57.8086 25.3945L58.7516 27.5859C59.482 27.2752 60.2523 27.0042 60.9031 26.7758L60.1195 24.518ZM72.5641 26.2977L70.7445 27.8516C71.2227 28.3988 71.5945 29.0734 71.8867 29.618L74.025 28.5422C73.5734 27.6723 73.175 27.0135 72.5641 26.2977ZM55.5906 26.4172C54.7805 26.8302 54.1164 27.1981 53.3992 27.5594L54.568 29.6578C55.2586 29.2594 56.0156 28.8742 56.6266 28.5688L55.5906 26.4172ZM51.3008 28.7945C50.5969 29.2063 49.9062 29.618 49.2289 30.0695L50.5305 32.0617C51.1813 31.6367 51.8586 31.2383 52.5227 30.8398L51.3008 28.7945ZM74.8484 31.1719C74.0648 31.3047 73.268 31.3977 72.4844 31.4906C72.5375 32.1547 72.4977 32.8719 72.3648 33.4297L74.6891 33.9742C74.8219 33.018 74.9414 32.0352 74.8484 31.1719ZM47.2102 31.3977C46.5461 31.8492 45.8953 32.3141 45.2313 32.7656L46.6125 34.718C47.25 34.2531 47.9008 33.8148 48.5516 33.3633L47.2102 31.3977ZM43.2789 34.2C42.6148 34.6781 41.9242 35.2094 41.3531 35.6477L42.8008 37.5469C43.5312 37.0156 44.0359 36.6172 44.7 36.1258L43.2789 34.2ZM71.568 35.2625C71.1695 35.8734 70.7047 36.4844 70.2398 36.9492L71.9797 38.6094C72.5508 37.932 73.1617 37.2414 73.5867 36.5508L71.568 35.2625ZM39.4539 37.1352C38.8031 37.6398 38.1523 38.1578 37.5813 38.6359L39.0953 40.482C39.7195 39.9641 40.357 39.4328 40.9414 39.0078L39.4539 37.1352ZM68.593 38.4766C67.982 38.968 67.3445 39.4461 66.7602 39.8445L68.1281 41.8102C68.832 41.332 69.5227 40.8141 70.1203 40.3359L68.593 38.4766ZM35.7352 40.1898C35.1109 40.6945 34.5133 41.2258 33.9023 41.7438L35.4563 43.5633C36.0539 43.0453 36.6516 42.5273 37.2625 42.0227L35.7352 40.1898ZM64.8078 41.1195C64.1305 41.518 63.4266 41.9297 62.7891 42.275L63.9313 44.3867C64.6484 43.9484 65.4586 43.5633 66.0563 43.1648L64.8078 41.1195ZM32.0828 43.3242C31.4852 43.8555 30.9008 44.3867 30.3031 44.9313L31.9102 46.7109C32.4945 46.1797 33.0922 45.6484 33.6766 45.1172L32.0828 43.3242ZM60.7039 43.3773C60 43.7227 59.2961 44.0813 58.5922 44.4266L59.6148 46.5781C60.4383 46.1797 61.0492 45.8477 61.793 45.5023L60.7039 43.3773ZM56.4539 45.4227C55.7234 45.7547 55.0195 46.0734 54.2758 46.3789L55.2453 48.5703C55.9758 48.2516 56.7063 47.9195 57.4367 47.5875L56.4539 45.4227ZM28.55 46.5781C27.8727 47.1758 27.4012 47.6406 26.7836 48.2383L28.4703 49.9648C29.0945 49.3672 29.5992 48.8492 30.1836 48.3445L28.55 46.5781ZM52.0977 47.3484C51.3672 47.6539 50.6367 47.9727 49.9062 48.2781L50.8359 50.4961C51.5797 50.1906 52.3102 49.8719 53.0406 49.5531L52.0977 47.3484ZM47.7016 49.2078C46.9711 49.5266 46.2406 49.8453 45.4969 50.1375L46.4266 52.3555C47.157 52.05 47.9008 51.7313 48.6313 51.4258L47.7016 49.2078ZM72.2453 50.1641C67.9953 50.1641 63.7453 53.3516 63.7453 59.7266L72.2453 76.7266L80.7453 59.7266C80.7453 53.3516 76.4953 50.1641 72.2453 50.1641ZM43.2922 51.0672C42.5352 51.4125 41.7383 51.7313 41.0875 52.0102L42.0305 54.2148C42.8141 53.8828 43.5578 53.5641 44.2219 53.2719L43.2922 51.0672ZM38.8828 52.9531C38.1656 53.2852 37.3289 53.657 36.6914 53.9492L37.6742 56.1273C38.4578 55.782 39.1484 55.4367 39.8391 55.1445L38.8828 52.9531ZM34.5 54.9453C33.7562 55.3039 32.9859 55.6758 32.3219 56.0078L33.3977 58.1461C34.1148 57.7742 34.8586 57.4289 35.5094 57.1102L34.5 54.9453ZM72.2453 55.4766C74.5961 55.4766 76.4953 57.3758 76.4953 59.7266C76.4953 62.0773 74.5961 63.9766 72.2453 63.9766C69.8945 63.9766 67.9953 62.0773 67.9953 59.7266C67.9953 57.3758 69.8945 55.4766 72.2453 55.4766ZM30.1703 57.1102C29.4664 57.4953 28.7625 57.8937 28.0453 58.3055L29.2406 60.3773C29.918 59.9789 30.6086 59.607 31.2992 59.2352L30.1703 57.1102ZM25.9602 59.5938C25.2151 60.0187 24.4952 60.5898 23.875 61.0016L25.3227 62.9141C25.9827 62.4359 26.6933 61.9445 27.2617 61.5992L25.9602 59.5938ZM21.9891 62.5953C21.3516 63.1797 20.7234 63.857 20.2359 64.4281L22.0555 65.982C22.5668 65.3578 23.0117 64.893 23.6094 64.3617L21.9891 62.5953ZM50.9156 62.768L51.1281 65.1453C51.8188 65.0258 52.5094 65.1055 53.2 65.2117L53.6117 62.8609C52.7352 62.7281 51.8055 62.6352 50.9156 62.768ZM45.975 64.0961L46.8781 66.3141C47.5688 66.0086 48.2859 65.7695 49.0164 65.5437C48.7641 64.7867 48.5781 64.0164 48.3789 63.2461C47.5422 63.4852 46.7055 63.8039 45.975 64.0961ZM56.268 63.9766L54.9133 65.9422C55.4711 66.3539 56.0156 66.7922 56.4539 67.3367L58.2602 65.7695C57.5828 65.0789 57.0648 64.4281 56.268 63.9766ZM43.7172 65.1719C42.9867 65.5438 42.2828 65.9688 41.5789 66.3805L42.7875 68.4391C43.4781 68.0672 44.1555 67.6289 44.8328 67.2703L43.7172 65.1719ZM18.7763 66.6328C18.3752 67.4961 18.0498 68.4258 17.8984 69.2492L20.2492 69.6609C20.3927 68.9039 20.5985 68.3594 20.9 67.7086C20.1709 67.3898 19.4749 67.0047 18.7763 66.6328ZM39.507 67.6687C38.8297 68.107 38.1656 68.5453 37.5016 68.9969L38.8297 70.9891C39.4938 70.5508 40.1445 70.0992 40.8086 69.6609L39.507 67.6687ZM59.7875 67.8281L57.782 69.1297C58.207 69.7672 58.6188 70.4313 59.0039 71.1086L61.0758 69.9133C60.6109 69.1695 60.2789 68.5055 59.7875 67.8281ZM35.5227 70.3516C34.8586 70.7898 34.1945 71.2148 33.5437 71.6797L34.8719 73.6719C35.5094 73.207 36.1867 72.7687 36.8641 72.3172L35.5227 70.3516ZM20.2758 71.6133C19.5068 71.7727 18.7312 71.9055 17.9582 72.0516C18.0977 72.9812 18.4709 73.8844 18.8082 74.6016L20.9664 73.5656C20.6782 72.9016 20.4046 72.2109 20.2758 71.6133ZM62.2578 71.9852L60.1859 73.1805C60.5977 73.8977 61.0758 74.668 61.4609 75.2789L63.4664 73.9906C63.0148 73.2867 62.6297 72.6227 62.2578 71.9852ZM31.5781 72.9812C30.9141 73.393 30.2633 73.7914 29.5727 74.1766L30.7547 76.2617C31.4586 75.85 32.1625 75.4383 32.8398 75L31.5781 72.9812ZM22.1086 75.1461L20.475 76.8992C21.2134 77.6031 22.1245 78.068 23.118 78.2805L23.6492 75.9563C23.0595 75.8367 22.5084 75.5445 22.1086 75.1461ZM27.5539 75.1859C26.8885 75.4914 26.1979 75.7305 25.482 75.8766L26.0266 78.2141C26.8792 78.0414 27.6814 77.7227 28.4836 77.3906L27.5539 75.1859ZM64.7812 75.8234L62.9352 77.3242C63.5063 78.0281 64.2102 78.7055 64.8211 79.1836L66.2953 77.2977C65.7109 76.8461 65.2062 76.3016 64.7812 75.8234ZM67.982 78.1477L67.3844 80.4719C68.4336 80.6844 69.2172 80.7508 70.2 80.6445L69.9078 78.2672C69.257 78.3734 68.6195 78.307 67.982 78.1477Z" fill="#130CB7"/>
</svg>
