<svg width="85" height="84" viewBox="0 0 85 84" fill="none" xmlns="http://www.w3.org/2000/svg">
<rect x="0.5" width="84" height="84" rx="8" fill="#EBE9FF"/>
<path d="M27.0723 62.75C25.8348 62.75 24.775 62.3097 23.893 61.4292C23.0125 60.5472 22.5723 59.4875 22.5723 58.25V26.75C22.5723 25.5125 23.0125 24.4527 23.893 23.5707C24.775 22.6902 25.8348 22.25 27.0723 22.25H36.466C36.8785 20.9375 37.6848 19.859 38.8848 19.0145C40.0848 18.1715 41.3973 17.75 42.8223 17.75C44.3223 17.75 45.6633 18.1715 46.8453 19.0145C48.0258 19.859 48.8223 20.9375 49.2348 22.25H58.5723C59.8098 22.25 60.8695 22.6902 61.7515 23.5707C62.632 24.4527 63.0723 25.5125 63.0723 26.75V38H58.5723V26.75H54.0723V29C54.0723 30.2375 53.632 31.2965 52.7515 32.177C51.8695 33.059 50.8098 33.5 49.5723 33.5H36.0723C34.8348 33.5 33.7758 33.059 32.8953 32.177C32.0133 31.2965 31.5723 30.2375 31.5723 29V26.75H27.0723V58.25H38.3223V62.75H27.0723ZM62.8473 65.675L58.3473 61.175C57.5598 61.625 56.716 62 55.816 62.3C54.916 62.6 53.9598 62.75 52.9473 62.75C50.1348 62.75 47.7438 61.766 45.7743 59.798C43.8063 57.8285 42.8223 55.4375 42.8223 52.625C42.8223 49.8125 43.8063 47.4215 45.7743 45.452C47.7438 43.484 50.1348 42.5 52.9473 42.5C55.7598 42.5 58.1508 43.484 60.1203 45.452C62.0883 47.4215 63.0723 49.8125 63.0723 52.625C63.0723 53.6375 62.9223 54.5938 62.6223 55.4937C62.3223 56.3937 61.9473 57.2375 61.4973 58.025L65.9973 62.525C66.4098 62.9375 66.616 63.4625 66.616 64.1C66.616 64.7375 66.4098 65.2625 65.9973 65.675C65.5848 66.0875 65.0598 66.2938 64.4223 66.2938C63.7848 66.2938 63.2598 66.0875 62.8473 65.675ZM52.9473 58.25C54.5223 58.25 55.8535 57.7062 56.941 56.6187C58.0285 55.5312 58.5723 54.2 58.5723 52.625C58.5723 51.05 58.0285 49.7188 56.941 48.6313C55.8535 47.5438 54.5223 47 52.9473 47C51.3723 47 50.041 47.5438 48.9535 48.6313C47.866 49.7188 47.3223 51.05 47.3223 52.625C47.3223 54.2 47.866 55.5312 48.9535 56.6187C50.041 57.7062 51.3723 58.25 52.9473 58.25ZM42.8223 26.75C43.4598 26.75 43.9945 26.534 44.4265 26.102C44.857 25.6715 45.0723 25.1375 45.0723 24.5C45.0723 23.8625 44.857 23.3277 44.4265 22.8958C43.9945 22.4653 43.4598 22.25 42.8223 22.25C42.1848 22.25 41.6508 22.4653 41.2203 22.8958C40.7883 23.3277 40.5723 23.8625 40.5723 24.5C40.5723 25.1375 40.7883 25.6715 41.2203 26.102C41.6508 26.534 42.1848 26.75 42.8223 26.75Z" fill="#130CB7"/>
</svg>
